<svg width="1440" height="269" viewBox="0 0 1440 269" fill="none" xmlns="http://www.w3.org/2000/svg">
<g clip-path="url(#clip0_1143_2)">
<mask id="mask0_1143_2" style="mask-type:alpha" maskUnits="userSpaceOnUse" x="-1345" y="70" width="4129" height="4129">
<path d="M2784 2134.5C2784 994.308 1859.69 70 719.5 70C-420.692 70 -1345 994.308 -1345 2134.5C-1345 3274.69 -420.692 4199 719.5 4199C1859.69 4199 2784 3274.69 2784 2134.5Z" fill="white"/>
</mask>
<g mask="url(#mask0_1143_2)">
<path d="M1480.07 88H-43V958H1480.07V88Z" fill="white"/>
<path d="M714.941 281.324H707.325L703.518 274.688L707.325 268.16H714.941L718.639 274.688L714.941 281.324Z" fill="#EAECF0"/>
<path d="M743.341 281.324H735.726L731.918 274.688L735.726 268.16H743.341L747.149 274.688L743.341 281.324Z" fill="#EAECF0"/>
<path d="M729.088 273.055H721.581L717.773 266.528L721.581 260H729.088L732.895 266.528L729.088 273.055Z" fill="#EAECF0"/>
<path d="M713.858 263.152H708.31L705.59 258.365L708.31 253.578H713.858L716.687 258.365L713.858 263.152Z" fill="#EAECF0"/>
<path d="M697.65 267.83H696.236L695.475 266.525L696.236 265.219H697.65L698.412 266.525L697.65 267.83Z" fill="#EAECF0"/>
<path d="M771.732 281.324H764.116L760.309 274.688L764.116 268.16H771.732L775.539 274.688L771.732 281.324Z" fill="#EAECF0"/>
<path d="M755.852 270.225H751.609L749.434 266.527L751.609 262.828H755.852L758.028 266.527L755.852 270.225Z" fill="#EAECF0"/>
<path d="M743.341 264.894H735.726L731.918 258.367L735.726 251.73H743.341L747.149 258.367L743.341 264.894Z" fill="#EAECF0"/>
<path d="M728.87 256.409H721.69L718.1 250.1L721.69 243.898H728.87L732.46 250.1L728.87 256.409Z" fill="#EAECF0"/>
<path d="M800.13 281.324H792.515L788.707 274.688L792.515 268.16H800.13L803.938 274.688L800.13 281.324Z" fill="#EAECF0"/>
<path d="M785.879 273.055H778.372L774.564 266.528L778.372 260H785.879L789.686 266.528L785.879 273.055Z" fill="#EAECF0"/>
<path d="M769.772 261.632H765.965L764.115 258.369L765.965 254.996H769.772L771.731 258.369L769.772 261.632Z" fill="#EAECF0"/>
<path d="M757.478 256.734H749.972L746.164 250.098L749.972 243.57H757.478L761.286 250.098L757.478 256.734Z" fill="#EAECF0"/>
<path d="M743.341 248.465H735.726L731.918 241.938L735.726 235.41H743.341L747.149 241.938L743.341 248.465Z" fill="#EAECF0"/>
<path d="M828.521 281.324H820.905L817.098 274.688L820.905 268.16H828.521L832.328 274.688L828.521 281.324Z" fill="#EAECF0"/>
<path d="M814.267 273.055H806.761L802.953 266.528L806.761 260H814.267L818.075 266.528L814.267 273.055Z" fill="#EAECF0"/>
<path d="M800.13 264.894H792.515L788.707 258.367L792.515 251.73H800.13L803.938 258.367L800.13 264.894Z" fill="#EAECF0"/>
<path d="M785.879 256.734H778.372L774.564 250.098L778.372 243.57H785.879L789.686 250.098L785.879 256.734Z" fill="#EAECF0"/>
<path d="M771.625 248.465H764.228L760.42 241.938L764.228 235.41H771.625L775.433 241.938L771.625 248.465Z" fill="#EAECF0"/>
<path d="M757.478 240.308H749.972L746.164 233.781L749.972 227.145H757.478L761.286 233.781L757.478 240.308Z" fill="#EAECF0"/>
<path d="M742.469 230.517H736.594L733.766 225.512L736.594 220.508H742.469L745.297 225.512L742.469 230.517Z" fill="#EAECF0"/>
<path d="M856.919 281.324H849.304L845.496 274.688L849.304 268.16H856.919L860.727 274.688L856.919 281.324Z" fill="#EAECF0"/>
<path d="M842.667 273.055H835.16L831.354 266.528L835.16 260H842.667L846.474 266.528L842.667 273.055Z" fill="#EAECF0"/>
<path d="M827.653 263.481H821.779L818.732 258.367L821.779 253.145H827.653L830.699 258.367L827.653 263.481Z" fill="#EAECF0"/>
<path d="M814.267 256.734H806.761L802.953 250.098L806.761 243.57H814.267L818.075 250.098L814.267 256.734Z" fill="#EAECF0"/>
<path d="M800.13 248.465H792.515L788.707 241.938L792.515 235.41H800.13L803.938 241.938L800.13 248.465Z" fill="#EAECF0"/>
<path d="M785.879 240.308H778.372L774.564 233.781L778.372 227.145H785.879L789.686 233.781L785.879 240.308Z" fill="#EAECF0"/>
<path d="M771.732 232.148H764.116L760.309 225.512L764.116 218.984H771.732L775.539 225.512L771.732 232.148Z" fill="#EAECF0"/>
<path d="M757.044 223.118H750.408L747.035 217.352L750.408 211.586H757.044L760.416 217.352L757.044 223.118Z" fill="#EAECF0"/>
<path d="M614.966 255.648H608.548L605.393 250.099L608.548 244.66H614.966L618.121 250.099L614.966 255.648Z" fill="#EAECF0"/>
<path d="M600.929 264.245H594.076L590.703 258.371L594.076 252.387H600.929L604.411 258.371L600.929 264.245Z" fill="#EAECF0"/>
<path d="M885.312 281.324H877.696L873.889 274.688L877.696 268.16H885.312L889.119 274.688L885.312 281.324Z" fill="#EAECF0"/>
<path d="M871.056 273.055H863.55L859.742 266.528L863.55 260H871.056L874.864 266.528L871.056 273.055Z" fill="#EAECF0"/>
<path d="M856.919 264.894H849.304L845.496 258.367L849.304 251.73H856.919L860.727 258.367L856.919 264.894Z" fill="#EAECF0"/>
<path d="M842.445 256.302H835.374L831.893 250.101L835.374 244.008H842.445L846.035 250.101L842.445 256.302Z" fill="#EAECF0"/>
<path d="M814.267 240.309H806.761L802.953 233.782L806.761 227.254H814.267L818.075 233.782L814.267 240.309Z" fill="#EAECF0"/>
<path d="M800.13 232.148H792.515L788.707 225.512L792.515 218.984H800.13L803.938 225.512L800.13 232.148Z" fill="#EAECF0"/>
<path d="M785.879 223.879H778.372L774.564 217.351L778.372 210.824H785.879L789.686 217.351L785.879 223.879Z" fill="#EAECF0"/>
<path d="M771.188 214.853H764.659L761.396 209.196L764.659 203.43H771.188L774.451 209.196L771.188 214.853Z" fill="#EAECF0"/>
<path d="M600.822 247.595H594.295L591.031 241.938L594.295 236.281H600.822L604.086 241.938L600.822 247.595Z" fill="#EAECF0"/>
<path d="M587.005 256.626H579.607L575.908 250.099L579.607 243.68H587.005L590.812 250.099L587.005 256.626Z" fill="#EAECF0"/>
<path d="M913.705 281.324H906.09L902.391 274.688L906.09 268.16H913.705L917.513 274.688L913.705 281.324Z" fill="#EAECF0"/>
<path d="M899.459 273.055H891.952L888.145 266.528L891.952 260H899.459L903.266 266.528L899.459 273.055Z" fill="#EAECF0"/>
<path d="M885.312 264.894H877.696L873.889 258.367L877.696 251.73H885.312L889.119 258.367L885.312 264.894Z" fill="#EAECF0"/>
<path d="M871.056 256.734H863.55L859.742 250.098L863.55 243.57H871.056L874.864 250.098L871.056 256.734Z" fill="#EAECF0"/>
<path d="M856.81 248.357H849.412L845.713 241.938L849.412 235.52H856.81L860.508 241.938L856.81 248.357Z" fill="#EAECF0"/>
<path d="M842.451 239.871H835.379L831.789 233.779L835.379 227.578H842.451L846.041 233.779L842.451 239.871Z" fill="#EAECF0"/>
<path d="M828.303 231.82H821.123L817.533 225.51L821.123 219.309H828.303L831.894 225.51L828.303 231.82Z" fill="#EAECF0"/>
<path d="M813.508 222.576H807.524L804.479 217.354L807.524 212.023H813.508L816.553 217.354L813.508 222.576Z" fill="#EAECF0"/>
<path d="M799.37 214.412H793.277L790.23 209.19L793.277 203.859H799.37L802.415 209.19L799.37 214.412Z" fill="#EAECF0"/>
<path d="M784.354 204.841H779.894L777.609 200.924L779.894 197.008H784.354L786.639 200.924L784.354 204.841Z" fill="#EAECF0"/>
<path d="M585.156 236.934H581.457L579.717 233.779L581.457 230.625H585.156L587.006 233.779L585.156 236.934Z" fill="#EAECF0"/>
<path d="M942.103 281.324H934.488L930.789 274.688L934.488 268.16H942.103L945.911 274.688L942.103 281.324Z" fill="#EAECF0"/>
<path d="M927.847 273.055H920.341L916.533 266.528L920.341 260H927.847L931.655 266.528L927.847 273.055Z" fill="#EAECF0"/>
<path d="M913.705 264.894H906.09L902.391 258.367L906.09 251.73H913.705L917.513 258.367L913.705 264.894Z" fill="#EAECF0"/>
<path d="M899.459 256.734H891.952L888.145 250.098L891.952 243.57H899.459L903.266 250.098L899.459 256.734Z" fill="#EAECF0"/>
<path d="M885.312 248.465H877.696L873.889 241.938L877.696 235.41H885.312L889.119 241.938L885.312 248.465Z" fill="#EAECF0"/>
<path d="M869.754 237.916H864.858L862.465 233.782L864.858 229.539H869.754L872.147 233.782L869.754 237.916Z" fill="#EAECF0"/>
<path d="M856.37 231.171H849.841L846.688 225.514L849.841 219.965H856.37L859.633 225.514L856.37 231.171Z" fill="#EAECF0"/>
<path d="M743.342 166.55H735.726L732.027 159.914L735.726 153.387H743.342L747.04 159.914L743.342 166.55Z" fill="#EAECF0"/>
<path d="M727.677 155.777H723L720.605 151.752L723 147.727H727.677L730.07 151.752L727.677 155.777Z" fill="#EAECF0"/>
<path d="M712.771 146.423H709.507L707.875 143.594L709.507 140.766H712.771L714.402 143.594L712.771 146.423Z" fill="#EAECF0"/>
<path d="M498.994 268.051H497.254L496.492 266.528L497.254 265.113H498.994L499.865 266.528L498.994 268.051Z" fill="#EAECF0"/>
<path d="M487.679 281.324H480.173L476.365 274.688L480.173 268.16H487.679L491.487 274.688L487.679 281.324Z" fill="#EAECF0"/>
<path d="M970.496 281.324H962.88L959.182 274.688L962.88 268.16H970.496L974.304 274.688L970.496 281.324Z" fill="#EAECF0"/>
<path d="M956.24 273.055H948.733L944.926 266.528L948.733 260H956.24L960.048 266.528L956.24 273.055Z" fill="#EAECF0"/>
<path d="M942.103 264.894H934.488L930.789 258.367L934.488 251.73H942.103L945.911 258.367L942.103 264.894Z" fill="#EAECF0"/>
<path d="M927.847 256.734H920.341L916.533 250.098L920.341 243.57H927.847L931.655 250.098L927.847 256.734Z" fill="#EAECF0"/>
<path d="M913.705 248.465H906.09L902.391 241.938L906.09 235.41H913.705L917.513 241.938L913.705 248.465Z" fill="#EAECF0"/>
<path d="M899.459 240.308H891.952L888.145 233.781L891.952 227.145H899.459L903.266 233.781L899.459 240.308Z" fill="#EAECF0"/>
<path d="M884.111 229.972H878.998L876.387 225.512L878.998 221.16H884.111L886.613 225.512L884.111 229.972Z" fill="#EAECF0"/>
<path d="M768.685 161.218H767.162L766.4 159.912L767.162 158.715H768.685L769.446 159.912L768.685 161.218Z" fill="#EAECF0"/>
<path d="M755.2 154.363H752.154L750.631 151.752L752.154 149.141H755.2L756.832 151.752L755.2 154.363Z" fill="#EAECF0"/>
<path d="M743.341 150.121H735.726L731.918 143.593L735.726 136.957H743.341L747.149 143.593L743.341 150.121Z" fill="#EAECF0"/>
<path d="M729.088 141.961H721.581L717.773 135.325L721.581 128.797H729.088L732.895 135.325L729.088 141.961Z" fill="#EAECF0"/>
<path d="M714.941 133.696H707.325L703.518 127.168L707.325 120.641H714.941L718.639 127.168L714.941 133.696Z" fill="#EAECF0"/>
<path d="M584.724 203.314H582.004L580.59 200.921L582.004 198.527H584.724L586.029 200.921L584.724 203.314Z" fill="#EAECF0"/>
<path d="M571.449 213.11H566.88L564.486 209.193L566.88 205.168H571.449L573.734 209.193L571.449 213.11Z" fill="#EAECF0"/>
<path d="M558.72 223.879H551.214L547.406 217.351L551.214 210.824H558.72L562.419 217.351L558.72 223.879Z" fill="#EAECF0"/>
<path d="M544.47 232.148H536.964L533.156 225.512L536.964 218.984H544.47L548.278 225.512L544.47 232.148Z" fill="#EAECF0"/>
<path d="M530.328 240.309H522.713L519.014 233.782L522.713 227.254H530.328L534.027 233.782L530.328 240.309Z" fill="#EAECF0"/>
<path d="M515.857 248.032H508.895L505.305 241.94L508.895 235.848H515.857L519.339 241.94L515.857 248.032Z" fill="#EAECF0"/>
<path d="M501.496 255.973H494.751L491.379 250.098L494.751 244.223H501.496L504.978 250.098L501.496 255.973Z" fill="#EAECF0"/>
<path d="M487.679 264.894H480.173L476.365 258.367L480.173 251.73H487.679L491.487 258.367L487.679 264.894Z" fill="#EAECF0"/>
<path d="M473.538 273.055H465.923L462.115 266.528L465.923 260H473.538L477.346 266.528L473.538 273.055Z" fill="#EAECF0"/>
<path d="M998.887 281.324H991.271L987.572 274.688L991.271 268.16H998.887L1002.69 274.688L998.887 281.324Z" fill="#EAECF0"/>
<path d="M984.747 273.055H977.132L973.324 266.528L977.132 260H984.747L988.446 266.528L984.747 273.055Z" fill="#EAECF0"/>
<path d="M970.496 264.894H962.88L959.182 258.367L962.88 251.73H970.496L974.304 258.367L970.496 264.894Z" fill="#EAECF0"/>
<path d="M956.24 256.734H948.733L944.926 250.098L948.733 243.57H956.24L960.048 250.098L956.24 256.734Z" fill="#EAECF0"/>
<path d="M942.103 248.465H934.488L930.789 241.938L934.488 235.41H942.103L945.911 241.938L942.103 248.465Z" fill="#EAECF0"/>
<path d="M927.847 240.308H920.341L916.533 233.781L920.341 227.145H927.847L931.655 233.781L927.847 240.308Z" fill="#EAECF0"/>
<path d="M913.705 232.148H906.09L902.391 225.512L906.09 218.984H913.705L917.513 225.512L913.705 232.148Z" fill="#EAECF0"/>
<path d="M896.845 219.415H894.56L893.363 217.348L894.56 215.281H896.845L898.041 217.348L896.845 219.415Z" fill="#EAECF0"/>
<path d="M769.335 145.986H766.507L765.201 143.593L766.507 141.199H769.335L770.641 143.593L769.335 145.986Z" fill="#EAECF0"/>
<path d="M756.287 139.785H751.174L748.672 135.325L751.174 130.973H756.287L758.789 135.325L756.287 139.785Z" fill="#EAECF0"/>
<path d="M741.382 130.425H737.574L735.725 127.162L737.574 123.898H741.382L743.34 127.162L741.382 130.425Z" fill="#EAECF0"/>
<path d="M726.147 120.314H724.515L723.754 119.008L724.515 117.594H726.147L726.909 119.008L726.147 120.314Z" fill="#EAECF0"/>
<path d="M587.007 190.916H579.718L576.02 184.606L579.718 178.188H587.007L590.598 184.606L587.007 190.916Z" fill="#EAECF0"/>
<path d="M571.667 197.117H566.662L564.16 192.766L566.662 188.414H571.667L574.169 192.766L571.667 197.117Z" fill="#EAECF0"/>
<path d="M557.849 206.04H551.974L549.037 200.926L551.974 195.812H557.849L560.895 200.926L557.849 206.04Z" fill="#EAECF0"/>
<path d="M544.47 215.718H536.964L533.156 209.191L536.964 202.555H544.47L548.278 209.191L544.47 215.718Z" fill="#EAECF0"/>
<path d="M530.328 223.879H522.713L519.014 217.351L522.713 210.824H530.328L534.136 217.351L530.328 223.879Z" fill="#EAECF0"/>
<path d="M516.076 232.148H508.569L504.762 225.512L508.569 218.984H516.076L519.884 225.512L516.076 232.148Z" fill="#EAECF0"/>
<path d="M501.931 240.308H494.316L490.617 233.781L494.316 227.145H501.931L505.739 233.781L501.931 240.308Z" fill="#EAECF0"/>
<path d="M487.679 248.465H480.173L476.365 241.938L480.173 235.41H487.679L491.487 241.938L487.679 248.465Z" fill="#EAECF0"/>
<path d="M473.538 256.734H465.923L462.115 250.098L465.923 243.57H473.538L477.346 250.098L473.538 256.734Z" fill="#EAECF0"/>
<path d="M458.636 263.696H452.435L449.389 258.365L452.435 253.035H458.636L461.682 258.365L458.636 263.696Z" fill="#EAECF0"/>
<path d="M1027.28 281.324H1019.67L1015.97 274.688L1019.67 268.16H1027.28L1031.09 274.688L1027.28 281.324Z" fill="#EAECF0"/>
<path d="M1013.14 273.055H1005.52L1001.72 266.528L1005.52 260H1013.14L1016.84 266.528L1013.14 273.055Z" fill="#EAECF0"/>
<path d="M998.887 264.894H991.271L987.572 258.367L991.271 251.73H998.887L1002.69 258.367L998.887 264.894Z" fill="#EAECF0"/>
<path d="M984.747 256.734H977.132L973.324 250.098L977.132 243.57H984.747L988.446 250.098L984.747 256.734Z" fill="#EAECF0"/>
<path d="M970.496 248.465H962.88L959.182 241.938L962.88 235.41H970.496L974.304 241.938L970.496 248.465Z" fill="#EAECF0"/>
<path d="M956.24 240.308H948.733L944.926 233.781L948.733 227.145H956.24L960.048 233.781L956.24 240.308Z" fill="#EAECF0"/>
<path d="M942.103 232.148H934.488L930.789 225.512L934.488 218.984H942.103L945.911 225.512L942.103 232.148Z" fill="#EAECF0"/>
<path d="M927.847 223.879H920.341L916.533 217.351L920.341 210.824H927.847L931.655 217.351L927.847 223.879Z" fill="#EAECF0"/>
<path d="M910.879 210.934H908.921L907.941 209.193L908.921 207.453H910.879L911.967 209.193L910.879 210.934Z" fill="#EAECF0"/>
<path d="M898.911 206.58H892.492L889.229 200.923L892.492 195.375H898.911L902.176 200.923L898.911 206.58Z" fill="#EAECF0"/>
<path d="M882.7 194.724H880.307L879.219 192.766L880.307 190.699H882.7L883.788 192.766L882.7 194.724Z" fill="#EAECF0"/>
<path d="M771.082 132.606H764.772L761.617 127.166L764.772 121.727H771.082L774.237 127.166L771.082 132.606Z" fill="#EAECF0"/>
<path d="M756.942 124.553H750.524L747.26 119.005L750.524 113.457H756.942L760.097 119.005L756.942 124.553Z" fill="#EAECF0"/>
<path d="M598.321 161.324H596.689L595.928 159.91L596.689 158.496H598.321L599.191 159.91L598.321 161.324Z" fill="#EAECF0"/>
<path d="M587.115 174.594H579.608L575.801 168.176L579.608 161.648H587.115L590.814 168.176L587.115 174.594Z" fill="#EAECF0"/>
<path d="M572.974 182.864H565.358L561.551 176.337L565.358 169.809H572.974L576.673 176.337L572.974 182.864Z" fill="#EAECF0"/>
<path d="M558.72 191.132H551.105L547.406 184.605L551.105 177.969H558.72L562.528 184.605L558.72 191.132Z" fill="#EAECF0"/>
<path d="M544.47 199.293H536.964L533.156 192.766L536.964 186.238H544.47L548.278 192.766L544.47 199.293Z" fill="#EAECF0"/>
<path d="M530.328 207.559H522.713L519.014 200.922L522.713 194.395H530.328L534.136 200.922L530.328 207.559Z" fill="#EAECF0"/>
<path d="M516.076 215.718H508.569L504.762 209.191L508.569 202.555H516.076L519.884 209.191L516.076 215.718Z" fill="#EAECF0"/>
<path d="M501.931 223.879H494.316L490.617 217.351L494.316 210.824H501.931L505.739 217.351L501.931 223.879Z" fill="#EAECF0"/>
<path d="M487.679 232.148H480.173L476.365 225.512L480.173 218.984H487.679L491.487 225.512L487.679 232.148Z" fill="#EAECF0"/>
<path d="M473.538 240.308H465.923L462.115 233.781L465.923 227.145H473.538L477.346 233.781L473.538 240.308Z" fill="#EAECF0"/>
<path d="M459.287 248.465H451.78L447.973 241.938L451.78 235.41H459.287L463.095 241.938L459.287 248.465Z" fill="#EAECF0"/>
<path d="M1055.68 281.324H1048.06L1044.36 274.688L1048.06 268.16H1055.68L1059.48 274.688L1055.68 281.324Z" fill="#EAECF0"/>
<path d="M1041.54 273.055H1033.92L1030.11 266.528L1033.92 260H1041.54L1045.24 266.528L1041.54 273.055Z" fill="#EAECF0"/>
<path d="M1027.28 264.894H1019.67L1015.97 258.367L1019.67 251.73H1027.28L1031.09 258.367L1027.28 264.894Z" fill="#EAECF0"/>
<path d="M1013.14 256.734H1005.52L1001.72 250.098L1005.52 243.57H1013.14L1016.84 250.098L1013.14 256.734Z" fill="#EAECF0"/>
<path d="M998.887 248.465H991.271L987.572 241.938L991.271 235.41H998.887L1002.69 241.938L998.887 248.465Z" fill="#EAECF0"/>
<path d="M984.747 240.308H977.132L973.324 233.781L977.132 227.145H984.747L988.446 233.781L984.747 240.308Z" fill="#EAECF0"/>
<path d="M970.496 232.148H962.88L959.182 225.512L962.88 218.984H970.496L974.304 225.512L970.496 232.148Z" fill="#EAECF0"/>
<path d="M956.24 223.879H948.733L944.926 217.351L948.733 210.824H956.24L960.048 217.351L956.24 223.879Z" fill="#EAECF0"/>
<path d="M940.033 212.128H936.551L934.811 209.191L936.551 206.145H940.033L941.773 209.191L940.033 212.128Z" fill="#EAECF0"/>
<path d="M898.258 188.849H893.254L890.643 184.606L893.254 180.254H898.258L900.76 184.606L898.258 188.849Z" fill="#EAECF0"/>
<path d="M797.189 128.687H795.448L794.578 127.164L795.448 125.641H797.189L798.059 127.164L797.189 128.687Z" fill="#EAECF0"/>
<path d="M785.444 124.77H778.808L775.436 119.004L778.808 113.129H785.444L788.817 119.004L785.444 124.77Z" fill="#EAECF0"/>
<path d="M768.797 112.261H767.056L766.186 110.738L767.056 109.215H768.797L769.667 110.738L768.797 112.261Z" fill="#EAECF0"/>
<path d="M598.645 145.55H596.359L595.271 143.592L596.359 141.633H598.645L599.841 143.592L598.645 145.55Z" fill="#EAECF0"/>
<path d="M587.115 158.278H579.5L575.801 151.75L579.5 145.223H587.115L590.923 151.75L587.115 158.278Z" fill="#EAECF0"/>
<path d="M572.974 166.55H565.358L561.551 159.914L565.358 153.387H572.974L576.673 159.914L572.974 166.55Z" fill="#EAECF0"/>
<path d="M558.72 174.703H551.105L547.406 168.176L551.105 161.648H558.72L562.528 168.176L558.72 174.703Z" fill="#EAECF0"/>
<path d="M544.47 182.864H536.964L533.156 176.337L536.964 169.809H544.47L548.278 176.337L544.47 182.864Z" fill="#EAECF0"/>
<path d="M530.328 191.132H522.713L519.014 184.605L522.713 177.969H530.328L534.136 184.605L530.328 191.132Z" fill="#EAECF0"/>
<path d="M516.076 199.293H508.569L504.762 192.766L508.569 186.238H516.076L519.884 192.766L516.076 199.293Z" fill="#EAECF0"/>
<path d="M501.931 207.559H494.316L490.617 200.922L494.316 194.395H501.931L505.739 200.922L501.931 207.559Z" fill="#EAECF0"/>
<path d="M487.679 215.718H480.173L476.365 209.191L480.173 202.555H487.679L491.487 209.191L487.679 215.718Z" fill="#EAECF0"/>
<path d="M473.538 223.879H465.923L462.115 217.351L465.923 210.824H473.538L477.346 217.351L473.538 223.879Z" fill="#EAECF0"/>
<path d="M457.872 229.644H453.194L450.801 225.51L453.194 221.484H457.872L460.266 225.51L457.872 229.644Z" fill="#EAECF0"/>
<path d="M399.669 259.89H397.82L396.949 258.367L397.82 256.844H399.669L400.539 258.367L399.669 259.89Z" fill="#EAECF0"/>
<path d="M388.355 273.055H380.739L376.932 266.528L380.739 260H388.355L392.162 266.528L388.355 273.055Z" fill="#EAECF0"/>
<path d="M1084.07 281.324H1076.57L1072.76 274.688L1076.57 268.16H1084.07L1087.88 274.688L1084.07 281.324Z" fill="#EAECF0"/>
<path d="M1069.93 273.055H1062.31L1058.5 266.528L1062.31 260H1069.93L1073.63 266.528L1069.93 273.055Z" fill="#EAECF0"/>
<path d="M1055.68 264.894H1048.06L1044.36 258.367L1048.06 251.73H1055.68L1059.48 258.367L1055.68 264.894Z" fill="#EAECF0"/>
<path d="M1041.54 256.734H1033.92L1030.11 250.098L1033.92 243.57H1041.54L1045.24 250.098L1041.54 256.734Z" fill="#EAECF0"/>
<path d="M1027.28 248.465H1019.67L1015.97 241.938L1019.67 235.41H1027.28L1031.09 241.938L1027.28 248.465Z" fill="#EAECF0"/>
<path d="M1013.14 240.308H1005.52L1001.72 233.781L1005.52 227.145H1013.14L1016.84 233.781L1013.14 240.308Z" fill="#EAECF0"/>
<path d="M998.887 232.148H991.271L987.572 225.512L991.271 218.984H998.887L1002.69 225.512L998.887 232.148Z" fill="#EAECF0"/>
<path d="M984.532 223.55H977.352L973.762 217.349L977.352 211.148H984.532L988.013 217.349L984.532 223.55Z" fill="#EAECF0"/>
<path d="M970.382 215.503H963.093L959.395 209.193L963.093 202.883H970.382L973.971 209.193L970.382 215.503Z" fill="#EAECF0"/>
<path d="M955.914 206.909H949.06L945.688 200.925L949.06 195.051H955.914L959.395 200.925L955.914 206.909Z" fill="#EAECF0"/>
<path d="M913.159 181.886H906.74L903.477 176.337L906.74 170.789H913.159L916.314 176.337L913.159 181.886Z" fill="#EAECF0"/>
<path d="M896.299 169.27H895.102L894.449 168.182L895.102 167.094H896.299L896.951 168.182L896.299 169.27Z" fill="#EAECF0"/>
<path d="M615.293 125.206H608.112L604.521 119.005L608.112 112.695H615.293L618.992 119.005L615.293 125.206Z" fill="#EAECF0"/>
<path d="M601.04 133.367H593.969L590.379 127.166L593.969 120.965H601.04L604.63 127.166L601.04 133.367Z" fill="#EAECF0"/>
<path d="M587.115 141.961H579.5L575.801 135.325L579.5 128.797H587.115L590.923 135.325L587.115 141.961Z" fill="#EAECF0"/>
<path d="M572.974 150.121H565.358L561.551 143.593L565.358 136.957H572.974L576.673 143.593L572.974 150.121Z" fill="#EAECF0"/>
<path d="M558.72 158.278H551.105L547.406 151.75L551.105 145.223H558.72L562.528 151.75L558.72 158.278Z" fill="#EAECF0"/>
<path d="M544.47 166.55H536.964L533.156 159.914L536.964 153.387H544.47L548.278 159.914L544.47 166.55Z" fill="#EAECF0"/>
<path d="M530.328 174.703H522.713L519.014 168.176L522.713 161.648H530.328L534.136 168.176L530.328 174.703Z" fill="#EAECF0"/>
<path d="M516.076 182.864H508.569L504.762 176.337L508.569 169.809H516.076L519.884 176.337L516.076 182.864Z" fill="#EAECF0"/>
<path d="M501.931 191.132H494.316L490.617 184.605L494.316 177.969H501.931L505.739 184.605L501.931 191.132Z" fill="#EAECF0"/>
<path d="M487.679 199.293H480.173L476.365 192.766L480.173 186.238H487.679L491.487 192.766L487.679 199.293Z" fill="#EAECF0"/>
<path d="M473.538 207.559H465.923L462.115 200.922L465.923 194.395H473.538L477.346 200.922L473.538 207.559Z" fill="#EAECF0"/>
<path d="M458.959 215.07H452.105L448.732 209.195L452.105 203.211H458.959L462.331 209.195L458.959 215.07Z" fill="#EAECF0"/>
<path d="M415.116 237.371H410.764L408.697 233.781L410.764 230.082H415.116L417.183 233.781L415.116 237.371Z" fill="#EAECF0"/>
<path d="M402.498 248.465H394.991L391.184 241.938L394.991 235.41H402.498L406.306 241.938L402.498 248.465Z" fill="#EAECF0"/>
<path d="M388.355 256.734H380.739L376.932 250.098L380.739 243.57H388.355L392.162 250.098L388.355 256.734Z" fill="#EAECF0"/>
<path d="M374.103 264.895H366.597L362.789 258.367L366.597 251.84H374.103L377.911 258.367L374.103 264.895Z" fill="#EAECF0"/>
<path d="M345.707 281.212H338.201L334.502 274.685L338.201 268.266H345.707L349.406 274.685L345.707 281.212Z" fill="#EAECF0"/>
<path d="M1112.46 281.324H1104.96L1101.15 274.688L1104.96 268.16H1112.46L1116.27 274.688L1112.46 281.324Z" fill="#EAECF0"/>
<path d="M1098.33 273.055H1090.71L1086.9 266.528L1090.71 260H1098.33L1102.03 266.528L1098.33 273.055Z" fill="#EAECF0"/>
<path d="M1084.07 264.894H1076.57L1072.76 258.367L1076.57 251.73H1084.07L1087.88 258.367L1084.07 264.894Z" fill="#EAECF0"/>
<path d="M1069.93 256.734H1062.31L1058.5 250.098L1062.31 243.57H1069.93L1073.63 250.098L1069.93 256.734Z" fill="#EAECF0"/>
<path d="M1055.68 248.465H1048.06L1044.36 241.938L1048.06 235.41H1055.68L1059.48 241.938L1055.68 248.465Z" fill="#EAECF0"/>
<path d="M1041.54 240.308H1033.92L1030.11 233.781L1033.92 227.145H1041.54L1045.24 233.781L1041.54 240.308Z" fill="#EAECF0"/>
<path d="M1027.28 232.148H1019.67L1015.97 225.512L1019.67 218.984H1027.28L1031.09 225.512L1027.28 232.148Z" fill="#EAECF0"/>
<path d="M1013.14 223.879H1005.52L1001.72 217.351L1005.52 210.824H1013.14L1016.84 217.351L1013.14 223.879Z" fill="#EAECF0"/>
<path d="M998.887 215.718H991.271L987.572 209.191L991.271 202.555H998.887L1002.69 209.191L998.887 215.718Z" fill="#EAECF0"/>
<path d="M983.01 204.513H978.876L976.809 200.923L978.876 197.441H983.01L984.968 200.923L983.01 204.513Z" fill="#EAECF0"/>
<path d="M967.667 194.288H965.818L964.947 192.765L965.818 191.133H967.667L968.537 192.765L967.667 194.288Z" fill="#EAECF0"/>
<path d="M926.763 172.639H921.541L918.93 168.178L921.541 163.609H926.763L929.265 168.178L926.763 172.639Z" fill="#EAECF0"/>
<path d="M600.059 115.195H595.054L592.443 110.734L595.054 106.383H600.059L602.561 110.734L600.059 115.195Z" fill="#EAECF0"/>
<path d="M587.115 125.531H579.5L575.801 119.003L579.5 112.367H587.115L590.923 119.003L587.115 125.531Z" fill="#EAECF0"/>
<path d="M572.974 133.696H565.358L561.551 127.168L565.358 120.641H572.974L576.673 127.168L572.974 133.696Z" fill="#EAECF0"/>
<path d="M558.72 141.961H551.105L547.406 135.325L551.105 128.797H558.72L562.528 135.325L558.72 141.961Z" fill="#EAECF0"/>
<path d="M544.47 150.121H536.964L533.156 143.593L536.964 136.957H544.47L548.278 143.593L544.47 150.121Z" fill="#EAECF0"/>
<path d="M530.328 158.278H522.713L519.014 151.75L522.713 145.223H530.328L534.136 151.75L530.328 158.278Z" fill="#EAECF0"/>
<path d="M516.076 166.55H508.569L504.762 159.914L508.569 153.387H516.076L519.884 159.914L516.076 166.55Z" fill="#EAECF0"/>
<path d="M501.931 174.703H494.316L490.617 168.176L494.316 161.648H501.931L505.739 168.176L501.931 174.703Z" fill="#EAECF0"/>
<path d="M487.679 182.864H480.173L476.365 176.337L480.173 169.809H487.679L491.487 176.337L487.679 182.864Z" fill="#EAECF0"/>
<path d="M473.538 191.132H465.923L462.115 184.605L465.923 177.969H473.538L477.346 184.605L473.538 191.132Z" fill="#EAECF0"/>
<path d="M459.288 199.184H451.781L448.082 192.766L451.781 186.238H459.288L462.986 192.766L459.288 199.184Z" fill="#EAECF0"/>
<path d="M442.207 202.336H440.467L439.705 200.922L440.467 199.508H442.207L442.969 200.922L442.207 202.336Z" fill="#EAECF0"/>
<path d="M401.084 229.535H396.406L394.121 225.51L396.406 221.484H401.084L403.368 225.51L401.084 229.535Z" fill="#EAECF0"/>
<path d="M388.355 240.308H380.739L376.932 233.781L380.739 227.145H388.355L392.162 233.781L388.355 240.308Z" fill="#EAECF0"/>
<path d="M374.103 248.465H366.597L362.789 241.938L366.597 235.41H374.103L377.911 241.938L374.103 248.465Z" fill="#EAECF0"/>
<path d="M359.852 256.626H352.344L348.646 250.099L352.344 243.68H359.852L363.659 250.099L359.852 256.626Z" fill="#EAECF0"/>
<path d="M342.772 259.782H341.14L340.27 258.367L341.14 256.844H342.772L343.642 258.367L342.772 259.782Z" fill="#EAECF0"/>
<path d="M329.499 269.572H326.018L324.277 266.526L326.018 263.48H329.499L331.24 266.526L329.499 269.572Z" fill="#EAECF0"/>
<path d="M1140.86 281.324H1133.36L1129.55 274.688L1133.36 268.16H1140.86L1144.67 274.688L1140.86 281.324Z" fill="#EAECF0"/>
<path d="M1126.72 273.055H1119.1L1115.29 266.528L1119.1 260H1126.72L1130.42 266.528L1126.72 273.055Z" fill="#EAECF0"/>
<path d="M1112.46 264.894H1104.96L1101.15 258.367L1104.96 251.73H1112.46L1116.27 258.367L1112.46 264.894Z" fill="#EAECF0"/>
<path d="M1098.33 256.734H1090.71L1086.9 250.098L1090.71 243.57H1098.33L1102.03 250.098L1098.33 256.734Z" fill="#EAECF0"/>
<path d="M1084.07 248.465H1076.57L1072.76 241.938L1076.57 235.41H1084.07L1087.88 241.938L1084.07 248.465Z" fill="#EAECF0"/>
<path d="M1069.93 240.308H1062.31L1058.5 233.781L1062.31 227.145H1069.93L1073.63 233.781L1069.93 240.308Z" fill="#EAECF0"/>
<path d="M1055.68 232.148H1048.06L1044.36 225.512L1048.06 218.984H1055.68L1059.48 225.512L1055.68 232.148Z" fill="#EAECF0"/>
<path d="M1041.54 223.879H1033.92L1030.11 217.351L1033.92 210.824H1041.54L1045.24 217.351L1041.54 223.879Z" fill="#EAECF0"/>
<path d="M1027.28 215.718H1019.67L1015.97 209.191L1019.67 202.555H1027.28L1031.09 209.191L1027.28 215.718Z" fill="#EAECF0"/>
<path d="M1012.93 207.342H1005.64L1001.94 200.923L1005.64 194.613H1012.93L1016.63 200.923L1012.93 207.342Z" fill="#EAECF0"/>
<path d="M996.93 195.811H993.34L991.49 192.765L993.34 189.719H996.93L998.67 192.765L996.93 195.811Z" fill="#EAECF0"/>
<path d="M941.661 165.677H935.025L931.652 159.912L935.025 154.254H941.661L944.925 159.912L941.661 165.677Z" fill="#EAECF0"/>
<path d="M600.062 98.8774H594.949L592.338 94.417L594.949 89.8477H600.062L602.673 94.417L600.062 98.8774Z" fill="#EAECF0"/>
<path d="M586.788 108.561H579.934L576.453 102.578L579.934 96.5938H586.788L590.161 102.578L586.788 108.561Z" fill="#EAECF0"/>
<path d="M570.795 113.676H567.423L565.791 110.738L567.423 107.801H570.795L572.536 110.738L570.795 113.676Z" fill="#EAECF0"/>
<path d="M558.72 125.531H551.105L547.406 119.003L551.105 112.367H558.72L562.528 119.003L558.72 125.531Z" fill="#EAECF0"/>
<path d="M544.47 133.696H536.964L533.156 127.168L536.964 120.641H544.47L548.278 127.168L544.47 133.696Z" fill="#EAECF0"/>
<path d="M530.328 141.961H522.713L519.014 135.325L522.713 128.797H530.328L534.136 135.325L530.328 141.961Z" fill="#EAECF0"/>
<path d="M516.076 150.121H508.569L504.762 143.593L508.569 136.957H516.076L519.884 143.593L516.076 150.121Z" fill="#EAECF0"/>
<path d="M501.931 158.278H494.316L490.617 151.75L494.316 145.223H501.931L505.739 151.75L501.931 158.278Z" fill="#EAECF0"/>
<path d="M487.679 166.55H480.173L476.365 159.914L480.173 153.387H487.679L491.487 159.914L487.679 166.55Z" fill="#EAECF0"/>
<path d="M473.538 174.703H465.923L462.115 168.176L465.923 161.648H473.538L477.346 168.176L473.538 174.703Z" fill="#EAECF0"/>
<path d="M459.287 182.864H451.78L447.973 176.337L451.78 169.809H459.287L463.095 176.337L459.287 182.864Z" fill="#EAECF0"/>
<path d="M442.751 187.001H439.922L438.508 184.608L439.922 182.105H442.751L444.165 184.608L442.751 187.001Z" fill="#EAECF0"/>
<path d="M388.355 223.879H380.739L376.932 217.351L380.739 210.824H388.355L392.162 217.351L388.355 223.879Z" fill="#EAECF0"/>
<path d="M373.884 231.711H366.813L363.223 225.51L366.813 219.309H373.884L377.474 225.51L373.884 231.711Z" fill="#EAECF0"/>
<path d="M316.443 263.368H310.678L307.74 258.363L310.678 253.359H316.443L319.381 258.363L316.443 263.368Z" fill="#EAECF0"/>
<path d="M1155.11 273.055H1147.49L1143.68 266.528L1147.49 260H1155.11L1158.92 266.528L1155.11 273.055Z" fill="#EAECF0"/>
<path d="M1140.86 264.894H1133.36L1129.55 258.367L1133.36 251.73H1140.86L1144.67 258.367L1140.86 264.894Z" fill="#EAECF0"/>
<path d="M1126.72 256.734H1119.1L1115.29 250.098L1119.1 243.57H1126.72L1130.42 250.098L1126.72 256.734Z" fill="#EAECF0"/>
<path d="M1112.46 248.465H1104.96L1101.15 241.938L1104.96 235.41H1112.46L1116.27 241.938L1112.46 248.465Z" fill="#EAECF0"/>
<path d="M1098.33 240.308H1090.71L1086.9 233.781L1090.71 227.145H1098.33L1102.03 233.781L1098.33 240.308Z" fill="#EAECF0"/>
<path d="M1084.07 232.148H1076.57L1072.76 225.512L1076.57 218.984H1084.07L1087.88 225.512L1084.07 232.148Z" fill="#EAECF0"/>
<path d="M1069.93 223.879H1062.31L1058.5 217.351L1062.31 210.824H1069.93L1073.63 217.351L1069.93 223.879Z" fill="#EAECF0"/>
<path d="M1055.68 215.718H1048.06L1044.36 209.191L1048.06 202.555H1055.68L1059.48 209.191L1055.68 215.718Z" fill="#EAECF0"/>
<path d="M1041.54 207.559H1033.92L1030.11 200.922L1033.92 194.395H1041.54L1045.24 200.922L1041.54 207.559Z" fill="#EAECF0"/>
<path d="M1027.28 199.293H1019.67L1015.97 192.766L1019.67 186.238H1027.28L1031.09 192.766L1027.28 199.293Z" fill="#EAECF0"/>
<path d="M1012.06 189.285H1006.62L1003.9 184.607L1006.62 179.82H1012.06L1014.78 184.607L1012.06 189.285Z" fill="#EAECF0"/>
<path d="M911.316 129.557H908.487L907.182 127.164L908.487 124.77H911.316L912.73 127.164L911.316 129.557Z" fill="#EAECF0"/>
<path d="M572.753 100.729H565.464L561.766 94.4187L565.464 88H572.753L576.452 94.4187L572.753 100.729Z" fill="#EAECF0"/>
<path d="M558.501 108.781H551.321L547.73 102.58L551.321 96.3789H558.501L562.091 102.58L558.501 108.781Z" fill="#EAECF0"/>
<path d="M544.47 117.375H536.964L533.156 110.739L536.964 104.211H544.47L548.278 110.739L544.47 117.375Z" fill="#EAECF0"/>
<path d="M530.328 125.531H522.713L519.014 119.003L522.713 112.367H530.328L534.136 119.003L530.328 125.531Z" fill="#EAECF0"/>
<path d="M516.076 133.696H508.569L504.762 127.168L508.569 120.641H516.076L519.884 127.168L516.076 133.696Z" fill="#EAECF0"/>
<path d="M501.931 141.961H494.316L490.617 135.325L494.316 128.797H501.931L505.739 135.325L501.931 141.961Z" fill="#EAECF0"/>
<path d="M487.679 150.121H480.173L476.365 143.593L480.173 136.957H487.679L491.487 143.593L487.679 150.121Z" fill="#EAECF0"/>
<path d="M473.538 158.278H465.923L462.115 151.75L465.923 145.223H473.538L477.346 151.75L473.538 158.278Z" fill="#EAECF0"/>
<path d="M459.287 166.55H451.78L447.973 159.914L451.78 153.387H459.287L463.095 159.914L459.287 166.55Z" fill="#EAECF0"/>
<path d="M445.035 174.49H437.637L434.047 168.18L437.637 161.762H445.035L448.625 168.18L445.035 174.49Z" fill="#EAECF0"/>
<path d="M386.722 204.733H382.371L380.086 200.925L382.371 197.117H386.722L389.007 200.925L386.722 204.733Z" fill="#EAECF0"/>
<path d="M374.103 215.718H366.597L362.789 209.191L366.597 202.555H374.103L377.911 209.191L374.103 215.718Z" fill="#EAECF0"/>
<path d="M358.98 222.244H353.323L350.494 217.349L353.323 212.453H358.98L361.808 217.349L358.98 222.244Z" fill="#EAECF0"/>
<path d="M331.569 240.308H323.953L320.146 233.781L323.953 227.145H331.569L335.376 233.781L331.569 240.308Z" fill="#EAECF0"/>
<path d="M317.203 248.14H309.914L306.324 241.939L309.914 235.738H317.203L320.793 241.939L317.203 248.14Z" fill="#EAECF0"/>
<path d="M303.173 256.734H295.558L291.75 250.098L295.558 243.57H303.173L306.872 250.098L303.173 256.734Z" fill="#EAECF0"/>
<path d="M288.919 264.894H281.411L277.604 258.367L281.411 251.73H288.919L292.726 258.367L288.919 264.894Z" fill="#EAECF0"/>
<path d="M274.778 273.055H267.161L263.354 266.528L267.161 260H274.778L278.476 266.528L274.778 273.055Z" fill="#EAECF0"/>
<path d="M1169.25 281.324H1161.75L1157.94 274.688L1161.75 268.16H1169.25L1173.06 274.688L1169.25 281.324Z" fill="#EAECF0"/>
<path d="M1169.25 264.894H1161.75L1157.94 258.367L1161.75 251.73H1169.25L1173.06 258.367L1169.25 264.894Z" fill="#EAECF0"/>
<path d="M1155.11 256.734H1147.49L1143.68 250.098L1147.49 243.57H1155.11L1158.92 250.098L1155.11 256.734Z" fill="#EAECF0"/>
<path d="M1140.86 248.465H1133.36L1129.55 241.938L1133.36 235.41H1140.86L1144.67 241.938L1140.86 248.465Z" fill="#EAECF0"/>
<path d="M1126.72 240.308H1119.1L1115.29 233.781L1119.1 227.145H1126.72L1130.42 233.781L1126.72 240.308Z" fill="#EAECF0"/>
<path d="M1112.46 232.148H1104.96L1101.15 225.512L1104.96 218.984H1112.46L1116.27 225.512L1112.46 232.148Z" fill="#EAECF0"/>
<path d="M1098.33 223.879H1090.71L1086.9 217.351L1090.71 210.824H1098.33L1102.03 217.351L1098.33 223.879Z" fill="#EAECF0"/>
<path d="M1084.07 215.718H1076.57L1072.76 209.191L1076.57 202.555H1084.07L1087.88 209.191L1084.07 215.718Z" fill="#EAECF0"/>
<path d="M1069.93 207.559H1062.31L1058.5 200.922L1062.31 194.395H1069.93L1073.63 200.922L1069.93 207.559Z" fill="#EAECF0"/>
<path d="M1055.68 199.293H1048.06L1044.36 192.766L1048.06 186.238H1055.68L1059.48 192.766L1055.68 199.293Z" fill="#EAECF0"/>
<path d="M1041.54 191.132H1033.92L1030.11 184.605L1033.92 177.969H1041.54L1045.24 184.605L1041.54 191.132Z" fill="#EAECF0"/>
<path d="M1027.17 182.756H1019.77L1016.18 176.337L1019.77 170.027H1027.17L1030.87 176.337L1027.17 182.756Z" fill="#EAECF0"/>
<path d="M544.472 100.729H537.074L533.375 94.4187L537.074 88H544.472L548.062 94.4187L544.472 100.729Z" fill="#EAECF0"/>
<path d="M530.328 109.106H522.713L519.014 102.578L522.713 96.0508H530.328L534.136 102.578L530.328 109.106Z" fill="#EAECF0"/>
<path d="M516.076 117.375H508.569L504.762 110.739L508.569 104.211H516.076L519.884 110.739L516.076 117.375Z" fill="#EAECF0"/>
<path d="M501.931 125.531H494.316L490.617 119.003L494.316 112.367H501.931L505.739 119.003L501.931 125.531Z" fill="#EAECF0"/>
<path d="M487.679 133.696H480.173L476.365 127.168L480.173 120.641H487.679L491.487 127.168L487.679 133.696Z" fill="#EAECF0"/>
<path d="M473.538 141.961H465.923L462.115 135.325L465.923 128.797H473.538L477.346 135.325L473.538 141.961Z" fill="#EAECF0"/>
<path d="M459.287 150.121H451.78L447.973 143.593L451.78 136.957H459.287L463.095 143.593L459.287 150.121Z" fill="#EAECF0"/>
<path d="M445.146 158.278H437.53L433.723 151.75L437.53 145.223H445.146L448.953 151.75L445.146 158.278Z" fill="#EAECF0"/>
<path d="M430.892 166.55H423.386L419.578 159.914L423.386 153.387H430.892L434.7 159.914L430.892 166.55Z" fill="#EAECF0"/>
<path d="M414.356 170.681H411.528L410.113 168.178L411.528 165.676H414.356L415.77 168.178L414.356 170.681Z" fill="#EAECF0"/>
<path d="M371.059 193.964H369.644L368.883 192.767L369.644 191.461H371.059L371.82 192.767L371.059 193.964Z" fill="#EAECF0"/>
<path d="M359.958 207.559H352.343L348.535 200.922L352.343 194.395H359.958L363.766 200.922L359.958 207.559Z" fill="#EAECF0"/>
<path d="M345.71 215.718H338.203L334.396 209.191L338.203 202.555H345.71L349.517 209.191L345.71 215.718Z" fill="#EAECF0"/>
<path d="M330.694 222.464H324.82L321.773 217.351L324.82 212.238H330.694L333.74 217.351L330.694 222.464Z" fill="#EAECF0"/>
<path d="M315.682 229.318H311.33L309.154 225.51L311.33 221.812H315.682L317.966 225.51L315.682 229.318Z" fill="#EAECF0"/>
<path d="M303.173 240.308H295.558L291.75 233.781L295.558 227.145H303.173L306.872 233.781L303.173 240.308Z" fill="#EAECF0"/>
<path d="M288.919 248.465H281.411L277.604 241.938L281.411 235.41H288.919L292.726 241.938L288.919 248.465Z" fill="#EAECF0"/>
<path d="M274.778 256.734H267.161L263.354 250.098L267.161 243.57H274.778L278.476 250.098L274.778 256.734Z" fill="#EAECF0"/>
<path d="M260.525 264.894H253.019L249.211 258.367L253.019 251.73H260.525L264.333 258.367L260.525 264.894Z" fill="#EAECF0"/>
<path d="M260.525 281.324H253.019L249.211 274.688L253.019 268.16H260.525L264.333 274.688L260.525 281.324Z" fill="#EAECF0"/>
<path d="M1183.51 273.055H1175.89L1172.08 266.528L1175.89 260H1183.51L1187.31 266.528L1183.51 273.055Z" fill="#EAECF0"/>
<path d="M1183.51 256.734H1175.89L1172.08 250.098L1175.89 243.57H1183.51L1187.31 250.098L1183.51 256.734Z" fill="#EAECF0"/>
<path d="M1169.25 248.465H1161.75L1157.94 241.938L1161.75 235.41H1169.25L1173.06 241.938L1169.25 248.465Z" fill="#EAECF0"/>
<path d="M1155.11 240.308H1147.49L1143.68 233.781L1147.49 227.145H1155.11L1158.92 233.781L1155.11 240.308Z" fill="#EAECF0"/>
<path d="M1140.86 232.148H1133.36L1129.55 225.512L1133.36 218.984H1140.86L1144.67 225.512L1140.86 232.148Z" fill="#EAECF0"/>
<path d="M1126.72 223.879H1119.1L1115.29 217.351L1119.1 210.824H1126.72L1130.42 217.351L1126.72 223.879Z" fill="#EAECF0"/>
<path d="M1112.46 215.718H1104.96L1101.15 209.191L1104.96 202.555H1112.46L1116.27 209.191L1112.46 215.718Z" fill="#EAECF0"/>
<path d="M1098.33 207.559H1090.71L1086.9 200.922L1090.71 194.395H1098.33L1102.03 200.922L1098.33 207.559Z" fill="#EAECF0"/>
<path d="M1084.07 199.293H1076.57L1072.76 192.766L1076.57 186.238H1084.07L1087.88 192.766L1084.07 199.293Z" fill="#EAECF0"/>
<path d="M1069.93 191.132H1062.31L1058.5 184.605L1062.31 177.969H1069.93L1073.63 184.605L1069.93 191.132Z" fill="#EAECF0"/>
<path d="M1055.68 182.864H1048.06L1044.36 176.337L1048.06 169.809H1055.68L1059.48 176.337L1055.68 182.864Z" fill="#EAECF0"/>
<path d="M1039.68 171.549H1035.66L1033.7 168.177L1035.66 164.695H1039.68L1041.64 168.177L1039.68 171.549Z" fill="#EAECF0"/>
<path d="M515.424 99.6386H509.331L506.285 94.4167L509.331 89.0859H515.424L518.47 94.4167L515.424 99.6386Z" fill="#EAECF0"/>
<path d="M501.172 107.799H495.189L492.143 102.577L495.189 97.3555H501.172L504.11 102.577L501.172 107.799Z" fill="#EAECF0"/>
<path d="M486.811 115.852H481.045L478.107 110.739L481.045 105.734H486.811L489.748 110.739L486.811 115.852Z" fill="#EAECF0"/>
<path d="M473.538 125.531H465.923L462.115 119.003L465.923 112.367H473.538L477.346 119.003L473.538 125.531Z" fill="#EAECF0"/>
<path d="M459.287 133.696H451.78L447.973 127.168L451.78 120.641H459.287L463.095 127.168L459.287 133.696Z" fill="#EAECF0"/>
<path d="M445.146 141.961H437.53L433.723 135.325L437.53 128.797H445.146L448.953 135.325L445.146 141.961Z" fill="#EAECF0"/>
<path d="M430.892 150.121H423.386L419.578 143.593L423.386 136.957H430.892L434.7 143.593L430.892 150.121Z" fill="#EAECF0"/>
<path d="M414.681 154.8H411.2L409.459 151.754L411.2 148.816H414.681L416.422 151.754L414.681 154.8Z" fill="#EAECF0"/>
<path d="M402.281 166.109H395.209L391.619 159.908L395.209 153.816H402.281L405.871 159.908L402.281 166.109Z" fill="#EAECF0"/>
<path d="M345.6 199.076H338.311L334.721 192.766L338.311 186.457H345.6L349.19 192.766L345.6 199.076Z" fill="#EAECF0"/>
<path d="M331.569 207.559H323.953L320.146 200.922L323.953 194.395H331.569L335.376 200.922L331.569 207.559Z" fill="#EAECF0"/>
<path d="M317.314 215.718H309.808L306 209.191L309.808 202.555H317.314L321.122 209.191L317.314 215.718Z" fill="#EAECF0"/>
<path d="M303.17 223.879H295.554L291.855 217.351L295.554 210.824H303.17L306.869 217.351L303.17 223.879Z" fill="#EAECF0"/>
<path d="M288.594 231.387H281.74L278.367 225.512L281.74 219.637H288.594L291.966 225.512L288.594 231.387Z" fill="#EAECF0"/>
<path d="M274.778 240.308H267.161L263.354 233.781L267.161 227.145H274.778L278.476 233.781L274.778 240.308Z" fill="#EAECF0"/>
<path d="M260.525 248.465H253.019L249.211 241.938L253.019 235.41H260.525L264.333 241.938L260.525 248.465Z" fill="#EAECF0"/>
<path d="M246.384 256.734H238.769L234.961 250.098L238.769 243.57H246.384L250.083 250.098L246.384 256.734Z" fill="#EAECF0"/>
<path d="M246.384 273.055H238.769L234.961 266.528L238.769 260H246.384L250.083 266.528L246.384 273.055Z" fill="#EAECF0"/>
<path d="M1197.65 281.324H1190.14L1186.33 274.688L1190.14 268.16H1197.65L1201.45 274.688L1197.65 281.324Z" fill="#EAECF0"/>
<path d="M1197.65 264.894H1190.14L1186.33 258.367L1190.14 251.73H1197.65L1201.45 258.367L1197.65 264.894Z" fill="#EAECF0"/>
<path d="M1197.65 248.465H1190.14L1186.33 241.938L1190.14 235.41H1197.65L1201.45 241.938L1197.65 248.465Z" fill="#EAECF0"/>
<path d="M1183.51 240.308H1175.89L1172.08 233.781L1175.89 227.145H1183.51L1187.31 233.781L1183.51 240.308Z" fill="#EAECF0"/>
<path d="M1169.25 232.148H1161.75L1157.94 225.512L1161.75 218.984H1169.25L1173.06 225.512L1169.25 232.148Z" fill="#EAECF0"/>
<path d="M1155.11 223.879H1147.49L1143.68 217.351L1147.49 210.824H1155.11L1158.92 217.351L1155.11 223.879Z" fill="#EAECF0"/>
<path d="M1140.86 215.718H1133.36L1129.55 209.191L1133.36 202.555H1140.86L1144.67 209.191L1140.86 215.718Z" fill="#EAECF0"/>
<path d="M1126.72 207.559H1119.1L1115.29 200.922L1119.1 194.395H1126.72L1130.42 200.922L1126.72 207.559Z" fill="#EAECF0"/>
<path d="M1112.46 199.293H1104.96L1101.15 192.766L1104.96 186.238H1112.46L1116.27 192.766L1112.46 199.293Z" fill="#EAECF0"/>
<path d="M1098.33 191.132H1090.71L1086.9 184.605L1090.71 177.969H1098.33L1102.03 184.605L1098.33 191.132Z" fill="#EAECF0"/>
<path d="M1084.07 182.864H1076.57L1072.76 176.337L1076.57 169.809H1084.07L1087.88 176.337L1084.07 182.864Z" fill="#EAECF0"/>
<path d="M1069.82 174.594H1062.32L1058.62 168.176L1062.32 161.648H1069.82L1073.63 168.176L1069.82 174.594Z" fill="#EAECF0"/>
<path d="M1052.96 161.761H1050.78L1049.8 159.911L1050.78 158.062H1052.96L1054.05 159.911L1052.96 161.761Z" fill="#EAECF0"/>
<path d="M458.308 115.523H452.868L450.148 110.737L452.868 106.059H458.308L461.027 110.737L458.308 115.523Z" fill="#EAECF0"/>
<path d="M444.927 125.207H437.746L434.156 119.006L437.746 112.805H444.927L448.517 119.006L444.927 125.207Z" fill="#EAECF0"/>
<path d="M430.892 133.696H423.386L419.578 127.168L423.386 120.641H430.892L434.7 127.168L430.892 133.696Z" fill="#EAECF0"/>
<path d="M414.139 137.497H411.746L410.549 135.321L411.746 133.254H414.139L415.336 135.321L414.139 137.497Z" fill="#EAECF0"/>
<path d="M401.408 148.27H396.077L393.357 143.592L396.077 138.914H401.408L404.128 143.592L401.408 148.27Z" fill="#EAECF0"/>
<path d="M359.087 173.184H353.213L350.275 168.18L353.213 163.066H359.087L361.916 168.18L359.087 173.184Z" fill="#EAECF0"/>
<path d="M345.275 181.998H338.639L335.375 176.341L338.639 170.684H345.275L348.539 176.341L345.275 181.998Z" fill="#EAECF0"/>
<path d="M330.043 188.632H325.365L323.08 184.607L325.365 180.473H330.043L332.436 184.607L330.043 188.632Z" fill="#EAECF0"/>
<path d="M317.207 199.076H309.918L306.219 192.766L309.918 186.457H317.207L320.906 192.766L317.207 199.076Z" fill="#EAECF0"/>
<path d="M288.812 215.503H281.523L277.824 209.193L281.523 202.883H288.812L292.402 209.193L288.812 215.503Z" fill="#EAECF0"/>
<path d="M257.914 227.468H255.629L254.541 225.51L255.629 223.66H257.914L259.001 225.51L257.914 227.468Z" fill="#EAECF0"/>
<path d="M246.384 240.308H238.769L234.961 233.781L238.769 227.145H246.384L250.083 233.781L246.384 240.308Z" fill="#EAECF0"/>
<path d="M232.131 248.465H224.515L220.816 241.938L224.515 235.41H232.131L235.938 241.938L232.131 248.465Z" fill="#EAECF0"/>
<path d="M232.131 264.894H224.515L220.816 258.367L224.515 251.73H232.131L235.938 258.367L232.131 264.894Z" fill="#EAECF0"/>
<path d="M232.131 281.324H224.515L220.816 274.688L224.515 268.16H232.131L235.938 274.688L232.131 281.324Z" fill="#EAECF0"/>
<path d="M1211.9 273.055H1204.28L1200.48 266.528L1204.28 260H1211.9L1215.71 266.528L1211.9 273.055Z" fill="#EAECF0"/>
<path d="M1211.9 256.734H1204.28L1200.48 250.098L1204.28 243.57H1211.9L1215.71 250.098L1211.9 256.734Z" fill="#EAECF0"/>
<path d="M1211.9 240.308H1204.28L1200.48 233.781L1204.28 227.145H1211.9L1215.71 233.781L1211.9 240.308Z" fill="#EAECF0"/>
<path d="M1197.65 232.148H1190.14L1186.33 225.512L1190.14 218.984H1197.65L1201.45 225.512L1197.65 232.148Z" fill="#EAECF0"/>
<path d="M1183.51 223.879H1175.89L1172.08 217.351L1175.89 210.824H1183.51L1187.31 217.351L1183.51 223.879Z" fill="#EAECF0"/>
<path d="M1169.25 215.718H1161.75L1157.94 209.191L1161.75 202.555H1169.25L1173.06 209.191L1169.25 215.718Z" fill="#EAECF0"/>
<path d="M1155.11 207.559H1147.49L1143.68 200.922L1147.49 194.395H1155.11L1158.92 200.922L1155.11 207.559Z" fill="#EAECF0"/>
<path d="M1140.86 199.293H1133.36L1129.55 192.766L1133.36 186.238H1140.86L1144.67 192.766L1140.86 199.293Z" fill="#EAECF0"/>
<path d="M1126.61 191.024H1119.21L1115.51 184.605L1119.21 178.078H1126.61L1130.3 184.605L1126.61 191.024Z" fill="#EAECF0"/>
<path d="M1112.47 182.869H1104.96L1101.26 176.341L1104.96 169.922H1112.47L1116.17 176.341L1112.47 182.869Z" fill="#EAECF0"/>
<path d="M1098.33 174.703H1090.71L1086.9 168.176L1090.71 161.648H1098.33L1102.03 168.176L1098.33 174.703Z" fill="#EAECF0"/>
<path d="M1084.07 166.55H1076.57L1072.76 159.914L1076.57 153.387H1084.07L1087.88 159.914L1084.07 166.55Z" fill="#EAECF0"/>
<path d="M1040.44 140.112H1034.9L1032.18 135.325L1034.9 130.539H1040.44L1043.27 135.325L1040.44 140.112Z" fill="#EAECF0"/>
<path d="M1025.33 130.209H1021.74L1019.89 127.163L1021.74 124.117H1025.33L1027.07 127.163L1025.33 130.209Z" fill="#EAECF0"/>
<path d="M429.803 115.306H424.581L421.861 110.737L424.581 106.277H429.803L432.414 110.737L429.803 115.306Z" fill="#EAECF0"/>
<path d="M415.012 122.598H410.878L408.811 119.008L410.878 115.309H415.012L417.187 119.008L415.012 122.598Z" fill="#EAECF0"/>
<path d="M402.063 132.93H395.427L392.055 127.164L395.427 121.398H402.063L405.436 127.164L402.063 132.93Z" fill="#EAECF0"/>
<path d="M386.831 139.24H382.262L380.086 135.324L382.262 131.516H386.831L389.007 135.324L386.831 139.24Z" fill="#EAECF0"/>
<path d="M373.994 149.792H366.705L363.115 143.591L366.705 137.281H373.994L377.584 143.591L373.994 149.792Z" fill="#EAECF0"/>
<path d="M359.958 158.278H352.343L348.535 151.75L352.343 145.223H359.958L363.766 151.75L359.958 158.278Z" fill="#EAECF0"/>
<path d="M345.71 166.55H338.203L334.396 159.914L338.203 153.387H345.71L349.517 159.914L345.71 166.55Z" fill="#EAECF0"/>
<path d="M329.39 170.897H326.127L324.604 168.177L326.127 165.457H329.39L330.913 168.177L329.39 170.897Z" fill="#EAECF0"/>
<path d="M315.354 179.493H311.655L309.914 176.338L311.655 173.184H315.354L317.203 176.338L315.354 179.493Z" fill="#EAECF0"/>
<path d="M272.712 204.08H269.122L267.381 200.925L269.122 197.879H272.712L274.561 200.925L272.712 204.08Z" fill="#EAECF0"/>
<path d="M259.002 213.11H254.433L252.148 209.193L254.433 205.168H259.002L261.287 209.193L259.002 213.11Z" fill="#EAECF0"/>
<path d="M244.857 221.378H240.179L237.895 217.353L240.179 213.328H244.857L247.251 217.353L244.857 221.378Z" fill="#EAECF0"/>
<path d="M229.413 227.359H227.237L226.258 225.51L227.237 223.66H229.413L230.501 225.51L229.413 227.359Z" fill="#EAECF0"/>
<path d="M217.987 240.308H210.372L206.564 233.781L210.372 227.145H217.987L221.686 233.781L217.987 240.308Z" fill="#EAECF0"/>
<path d="M217.987 256.734H210.372L206.564 250.098L210.372 243.57H217.987L221.686 250.098L217.987 256.734Z" fill="#EAECF0"/>
<path d="M217.987 273.055H210.372L206.564 266.528L210.372 260H217.987L221.686 266.528L217.987 273.055Z" fill="#EAECF0"/>
<path d="M1226.04 281.324H1218.54L1214.73 274.688L1218.54 268.16H1226.04L1229.85 274.688L1226.04 281.324Z" fill="#EAECF0"/>
<path d="M1226.04 264.894H1218.54L1214.73 258.367L1218.54 251.73H1226.04L1229.85 258.367L1226.04 264.894Z" fill="#EAECF0"/>
<path d="M1226.04 248.465H1218.54L1214.73 241.938L1218.54 235.41H1226.04L1229.85 241.938L1226.04 248.465Z" fill="#EAECF0"/>
<path d="M1226.04 232.148H1218.54L1214.73 225.512L1218.54 218.984H1226.04L1229.85 225.512L1226.04 232.148Z" fill="#EAECF0"/>
<path d="M1211.9 223.879H1204.28L1200.48 217.351L1204.28 210.824H1211.9L1215.71 217.351L1211.9 223.879Z" fill="#EAECF0"/>
<path d="M1197.65 215.718H1190.14L1186.33 209.191L1190.14 202.555H1197.65L1201.45 209.191L1197.65 215.718Z" fill="#EAECF0"/>
<path d="M1183.51 207.559H1175.89L1172.08 200.922L1175.89 194.395H1183.51L1187.31 200.922L1183.51 207.559Z" fill="#EAECF0"/>
<path d="M1169.25 199.293H1161.75L1157.94 192.766L1161.75 186.238H1169.25L1172.95 192.766L1169.25 199.293Z" fill="#EAECF0"/>
<path d="M1152.93 187.434H1149.56L1147.93 184.606L1149.56 181.668H1152.93L1154.67 184.606L1152.93 187.434Z" fill="#EAECF0"/>
<path d="M1124.65 171.116H1121.17L1119.43 168.179L1121.17 165.133H1124.65L1126.39 168.179L1124.65 171.116Z" fill="#EAECF0"/>
<path d="M1112.46 166.438H1104.96L1101.15 159.91L1104.96 153.492H1112.46L1116.16 159.91L1112.46 166.438Z" fill="#EAECF0"/>
<path d="M1053.72 130.209H1050.13L1048.39 127.163L1050.13 124.117H1053.72L1055.46 127.163L1053.72 130.209Z" fill="#EAECF0"/>
<path d="M415.553 107.146H410.331L407.611 102.577L410.331 98.0078H415.553L418.273 102.577L415.553 107.146Z" fill="#EAECF0"/>
<path d="M402.498 117.375H394.991L391.184 110.739L394.991 104.211H402.498L406.306 110.739L402.498 117.375Z" fill="#EAECF0"/>
<path d="M388.355 125.531H380.739L376.932 119.003L380.739 112.367H388.355L392.162 119.003L388.355 125.531Z" fill="#EAECF0"/>
<path d="M374.103 133.696H366.597L362.789 127.168L366.597 120.641H374.103L377.911 127.168L374.103 133.696Z" fill="#EAECF0"/>
<path d="M359.958 141.961H352.343L348.535 135.325L352.343 128.797H359.958L363.766 135.325L359.958 141.961Z" fill="#EAECF0"/>
<path d="M345.71 150.121H338.203L334.396 143.593L338.203 136.957H345.71L349.517 143.593L345.71 150.121Z" fill="#EAECF0"/>
<path d="M331.022 157.408H324.494L321.23 151.751L324.494 146.094H331.022L334.285 151.751L331.022 157.408Z" fill="#EAECF0"/>
<path d="M316.551 165.241H310.568L307.521 159.91L310.568 154.688H316.551L319.597 159.91L316.551 165.241Z" fill="#EAECF0"/>
<path d="M300.342 169.811H298.383L297.404 168.179L298.383 166.547H300.342L301.212 168.179L300.342 169.811Z" fill="#EAECF0"/>
<path d="M274.778 191.132H267.161L263.354 184.605L267.161 177.969H274.778L278.476 184.605L274.778 191.132Z" fill="#EAECF0"/>
<path d="M258.021 194.833H255.519L254.322 192.766L255.519 190.59H258.021L259.218 192.766L258.021 194.833Z" fill="#EAECF0"/>
<path d="M246.384 207.559H238.769L234.961 200.922L238.769 194.395H246.384L250.083 200.922L246.384 207.559Z" fill="#EAECF0"/>
<path d="M232.131 215.718H224.515L220.816 209.191L224.515 202.555H232.131L235.938 209.191L232.131 215.718Z" fill="#EAECF0"/>
<path d="M217.444 222.897H210.916L207.652 217.348L210.916 211.691H217.444L220.598 217.348L217.444 222.897Z" fill="#EAECF0"/>
<path d="M203.409 231.494H196.556L193.074 225.51L196.556 219.527H203.409L206.891 225.51L203.409 231.494Z" fill="#EAECF0"/>
<path d="M203.736 248.465H196.121L192.422 241.938L196.121 235.41H203.736L207.544 241.938L203.736 248.465Z" fill="#EAECF0"/>
<path d="M203.736 264.894H196.121L192.422 258.367L196.121 251.73H203.736L207.544 258.367L203.736 264.894Z" fill="#EAECF0"/>
<path d="M203.736 281.324H196.121L192.422 274.688L196.121 268.16H203.736L207.544 274.688L203.736 281.324Z" fill="#EAECF0"/>
<path d="M1240.3 273.055H1232.68L1228.87 266.528L1232.68 260H1240.3L1244.1 266.528L1240.3 273.055Z" fill="#EAECF0"/>
<path d="M1240.3 256.734H1232.68L1228.87 250.098L1232.68 243.57H1240.3L1244.1 250.098L1240.3 256.734Z" fill="#EAECF0"/>
<path d="M1240.3 240.308H1232.68L1228.87 233.781L1232.68 227.145H1240.3L1244.1 233.781L1240.3 240.308Z" fill="#EAECF0"/>
<path d="M1240.3 223.879H1232.68L1228.87 217.351L1232.68 210.824H1240.3L1244.1 217.351L1240.3 223.879Z" fill="#EAECF0"/>
<path d="M1226.04 215.718H1218.54L1214.73 209.191L1218.54 202.555H1226.04L1229.85 209.191L1226.04 215.718Z" fill="#EAECF0"/>
<path d="M1211.9 207.559H1204.28L1200.48 200.922L1204.28 194.395H1211.9L1215.71 200.922L1211.9 207.559Z" fill="#EAECF0"/>
<path d="M1196.02 196.356H1191.78L1189.71 192.766L1191.78 189.176H1196.02L1198.09 192.766L1196.02 196.356Z" fill="#EAECF0"/>
<path d="M387.484 107.691H381.609L378.562 102.578L381.609 97.4648H387.484L390.53 102.578L387.484 107.691Z" fill="#EAECF0"/>
<path d="M374.103 117.375H366.597L362.789 110.739L366.597 104.211H374.103L377.911 110.739L374.103 117.375Z" fill="#EAECF0"/>
<path d="M359.958 125.531H352.343L348.535 119.003L352.343 112.367H359.958L363.766 119.003L359.958 125.531Z" fill="#EAECF0"/>
<path d="M345.71 133.696H338.203L334.396 127.168L338.203 120.641H345.71L349.517 127.168L345.71 133.696Z" fill="#EAECF0"/>
<path d="M330.044 139.24H325.475L323.299 135.324L325.475 131.516H330.044L332.22 135.324L330.044 139.24Z" fill="#EAECF0"/>
<path d="M316.551 148.811H310.568L307.521 143.589L310.568 138.367H316.551L319.597 143.589L316.551 148.811Z" fill="#EAECF0"/>
<path d="M286.2 161.758H284.133L283.154 159.909L284.133 158.168H286.2L287.18 159.909L286.2 161.758Z" fill="#EAECF0"/>
<path d="M274.126 173.617H267.816L264.553 168.178L267.816 162.629H274.126L277.281 168.178L274.126 173.617Z" fill="#EAECF0"/>
<path d="M258.348 179.056H255.193L253.562 176.336L255.193 173.617H258.348L259.981 176.336L258.348 179.056Z" fill="#EAECF0"/>
<path d="M245.73 190.154H239.311L236.156 184.606L239.311 178.949H245.73L248.994 184.606L245.73 190.154Z" fill="#EAECF0"/>
<path d="M232.131 199.293H224.624L220.816 192.766L224.624 186.238H232.131L235.83 192.766L232.131 199.293Z" fill="#EAECF0"/>
<path d="M217.987 207.559H210.372L206.564 200.922L210.372 194.395H217.987L221.686 200.922L217.987 207.559Z" fill="#EAECF0"/>
<path d="M203.302 214.957H196.557L193.293 209.191L196.557 203.316H203.302L206.674 209.191L203.302 214.957Z" fill="#EAECF0"/>
<path d="M186.656 218.874H184.915L184.045 217.351L184.915 215.828H186.656L187.526 217.351L186.656 218.874Z" fill="#EAECF0"/>
<path d="M189.595 240.308H181.98L178.172 233.781L181.98 227.145H189.595L193.294 233.781L189.595 240.308Z" fill="#EAECF0"/>
<path d="M189.595 256.734H181.98L178.172 250.098L181.98 243.57H189.595L193.294 250.098L189.595 256.734Z" fill="#EAECF0"/>
<path d="M189.595 273.055H181.98L178.172 266.528L181.98 260H189.595L193.294 266.528L189.595 273.055Z" fill="#EAECF0"/>
<path d="M1254.44 281.324H1246.93L1243.12 274.688L1246.93 268.16H1254.44L1258.24 274.688L1254.44 281.324Z" fill="#EAECF0"/>
<path d="M1254.44 264.894H1246.93L1243.12 258.367L1246.93 251.73H1254.44L1258.24 258.367L1254.44 264.894Z" fill="#EAECF0"/>
<path d="M1254.44 248.465H1246.93L1243.12 241.938L1246.93 235.41H1254.44L1258.24 241.938L1254.44 248.465Z" fill="#EAECF0"/>
<path d="M1254.44 232.148H1246.93L1243.12 225.512L1246.93 218.984H1254.44L1258.24 225.512L1254.44 232.148Z" fill="#EAECF0"/>
<path d="M1254.44 215.718H1246.93L1243.12 209.191L1246.93 202.555H1254.44L1258.24 209.191L1254.44 215.718Z" fill="#EAECF0"/>
<path d="M1240.3 207.559H1232.68L1228.87 200.922L1232.68 194.395H1240.3L1244.1 200.922L1240.3 207.559Z" fill="#EAECF0"/>
<path d="M1224.41 196.356H1220.17L1218.1 192.766L1220.17 189.176H1224.41L1226.48 192.766L1224.41 196.356Z" fill="#EAECF0"/>
<path d="M358.436 106.494H353.867L351.582 102.577L353.867 98.6602H358.436L360.72 102.577L358.436 106.494Z" fill="#EAECF0"/>
<path d="M345.71 117.375H338.203L334.396 110.739L338.203 104.211H345.71L349.517 110.739L345.71 117.375Z" fill="#EAECF0"/>
<path d="M330.479 123.684H325.039L322.211 119.006L325.039 114.219H330.479L333.199 119.006L330.479 123.684Z" fill="#EAECF0"/>
<path d="M317.314 133.696H309.808L306 127.168L309.808 120.641H317.314L321.122 127.168L317.314 133.696Z" fill="#EAECF0"/>
<path d="M257.912 162.087H255.519L254.322 159.911L255.519 157.844H257.912L259.109 159.911L257.912 162.087Z" fill="#EAECF0"/>
<path d="M246.166 174.379H238.986L235.396 168.178L238.986 161.977H246.166L249.647 168.178L246.166 174.379Z" fill="#EAECF0"/>
<path d="M231.043 180.908H225.713L223.102 176.339L225.713 171.77H231.043L233.654 176.339L231.043 180.908Z" fill="#EAECF0"/>
<path d="M217.879 191.132H210.372L206.564 184.605L210.372 177.969H217.879L221.686 184.605L217.879 191.132Z" fill="#EAECF0"/>
<path d="M203.736 199.293H196.121L192.422 192.766L196.121 186.238H203.736L207.544 192.766L203.736 199.293Z" fill="#EAECF0"/>
<path d="M186.659 202.552H184.809L183.83 200.92L184.809 199.289H186.659L187.638 200.92L186.659 202.552Z" fill="#EAECF0"/>
<path d="M175.344 232.148H167.728L164.029 225.512L167.728 218.984H175.344L179.151 225.512L175.344 232.148Z" fill="#EAECF0"/>
<path d="M175.344 248.465H167.728L164.029 241.938L167.728 235.41H175.344L179.151 241.938L175.344 248.465Z" fill="#EAECF0"/>
<path d="M175.344 264.894H167.728L164.029 258.367L167.728 251.73H175.344L179.151 258.367L175.344 264.894Z" fill="#EAECF0"/>
<path d="M175.344 281.324H167.728L164.029 274.688L167.728 268.16H175.344L179.151 274.688L175.344 281.324Z" fill="#EAECF0"/>
<path d="M1268.69 273.055H1261.07L1257.27 266.528L1261.07 260H1268.69L1272.5 266.528L1268.69 273.055Z" fill="#EAECF0"/>
<path d="M1268.69 256.734H1261.07L1257.27 250.098L1261.07 243.57H1268.69L1272.5 250.098L1268.69 256.734Z" fill="#EAECF0"/>
<path d="M1268.69 240.308H1261.07L1257.27 233.781L1261.07 227.145H1268.69L1272.5 233.781L1268.69 240.308Z" fill="#EAECF0"/>
<path d="M1268.69 223.879H1261.07L1257.27 217.351L1261.07 210.824H1268.69L1272.5 217.351L1268.69 223.879Z" fill="#EAECF0"/>
<path d="M1268.69 207.559H1261.07L1257.27 200.922L1261.07 194.395H1268.69L1272.5 200.922L1268.69 207.559Z" fill="#EAECF0"/>
<path d="M1254.44 199.293H1246.93L1243.12 192.766L1246.93 186.238H1254.44L1258.24 192.766L1254.44 199.293Z" fill="#EAECF0"/>
<path d="M1238.34 187.763H1234.64L1232.79 184.608L1234.64 181.344H1238.34L1240.18 184.608L1238.34 187.763Z" fill="#EAECF0"/>
<path d="M328.409 103.664H327.104L326.451 102.576L327.104 101.488H328.409L329.062 102.576L328.409 103.664Z" fill="#EAECF0"/>
<path d="M314.161 111.933H312.964L312.312 110.736L312.964 109.648H314.161L314.814 110.736L314.161 111.933Z" fill="#EAECF0"/>
<path d="M243.988 154.25H241.16L239.637 151.748L241.16 149.246H243.988L245.403 151.748L243.988 154.25Z" fill="#EAECF0"/>
<path d="M229.305 161.542H227.456L226.477 159.91L227.456 158.387H229.305L230.175 159.91L229.305 161.542Z" fill="#EAECF0"/>
<path d="M215.815 171.009H212.551L210.811 168.181L212.551 165.352H215.815L217.447 168.181L215.815 171.009Z" fill="#EAECF0"/>
<path d="M203.629 182.647H196.34L192.75 176.337L196.34 170.027H203.629L207.219 176.337L203.629 182.647Z" fill="#EAECF0"/>
<path d="M189.595 191.132H181.98L178.172 184.605L181.98 177.969H189.595L193.294 184.605L189.595 191.132Z" fill="#EAECF0"/>
<path d="M175.344 199.293H167.728L164.029 192.766L167.728 186.238H175.344L179.151 192.766L175.344 199.293Z" fill="#EAECF0"/>
<path d="M159.57 221.162H155.218L152.934 217.355L155.218 213.547H159.57L161.746 217.355L159.57 221.162Z" fill="#EAECF0"/>
<path d="M161.198 240.308H153.583L149.775 233.781L153.583 227.145H161.198L164.897 233.781L161.198 240.308Z" fill="#EAECF0"/>
<path d="M161.198 256.734H153.583L149.775 250.098L153.583 243.57H161.198L164.897 250.098L161.198 256.734Z" fill="#EAECF0"/>
<path d="M161.198 273.055H153.583L149.775 266.528L153.583 260H161.198L164.897 266.528L161.198 273.055Z" fill="#EAECF0"/>
<path d="M1282.84 281.324H1275.33L1271.52 274.688L1275.33 268.16H1282.84L1286.64 274.688L1282.84 281.324Z" fill="#EAECF0"/>
<path d="M1282.84 264.894H1275.33L1271.52 258.367L1275.33 251.73H1282.84L1286.64 258.367L1282.84 264.894Z" fill="#EAECF0"/>
<path d="M1282.84 248.465H1275.33L1271.52 241.938L1275.33 235.41H1282.84L1286.64 241.938L1282.84 248.465Z" fill="#EAECF0"/>
<path d="M1282.84 232.148H1275.33L1271.52 225.512L1275.33 218.984H1282.84L1286.64 225.512L1282.84 232.148Z" fill="#EAECF0"/>
<path d="M1282.84 215.718H1275.33L1271.52 209.191L1275.33 202.555H1282.84L1286.64 209.191L1282.84 215.718Z" fill="#EAECF0"/>
<path d="M1239.86 173.945H1233.11L1229.74 168.179L1233.11 162.305H1239.86L1243.23 168.179L1239.86 173.945Z" fill="#EAECF0"/>
<path d="M1225.28 165.132H1219.3L1216.25 159.91L1219.3 154.797H1225.28L1228.33 159.91L1225.28 165.132Z" fill="#EAECF0"/>
<path d="M187.094 170.459H184.374L183.068 168.175L184.374 165.781H187.094L188.508 168.175L187.094 170.459Z" fill="#EAECF0"/>
<path d="M173.492 179.602H169.685L167.727 176.338L169.685 173.074H173.492L175.342 176.338L173.492 179.602Z" fill="#EAECF0"/>
<path d="M146.951 232.148H139.336L135.637 225.512L139.336 218.984H146.951L150.759 225.512L146.951 232.148Z" fill="#EAECF0"/>
<path d="M146.951 248.465H139.336L135.637 241.938L139.336 235.41H146.951L150.759 241.938L146.951 248.465Z" fill="#EAECF0"/>
<path d="M146.951 264.894H139.336L135.637 258.367L139.336 251.73H146.951L150.759 258.367L146.951 264.894Z" fill="#EAECF0"/>
<path d="M146.951 281.324H139.336L135.637 274.688L139.336 268.16H146.951L150.759 274.688L146.951 281.324Z" fill="#EAECF0"/>
<path d="M1297.09 273.055H1289.47L1285.67 266.528L1289.47 260H1297.09L1300.9 266.528L1297.09 273.055Z" fill="#EAECF0"/>
<path d="M1297.09 256.734H1289.47L1285.67 250.098L1289.47 243.57H1297.09L1300.9 250.098L1297.09 256.734Z" fill="#EAECF0"/>
<path d="M1297.09 240.308H1289.47L1285.67 233.781L1289.47 227.145H1297.09L1300.9 233.781L1297.09 240.308Z" fill="#EAECF0"/>
<path d="M1297.09 223.879H1289.47L1285.67 217.351L1289.47 210.824H1297.09L1300.9 217.351L1297.09 223.879Z" fill="#EAECF0"/>
<path d="M1294.26 202.661H1292.3L1291.32 200.92L1292.3 199.289H1294.26L1295.24 200.92L1294.26 202.661Z" fill="#EAECF0"/>
<path d="M131.391 221.595H126.495L124.102 217.352L126.495 213.109H131.391L133.893 217.352L131.391 221.595Z" fill="#EAECF0"/>
<path d="M132.695 240.308H125.189L121.381 233.781L125.189 227.145H132.695L136.503 233.781L132.695 240.308Z" fill="#EAECF0"/>
<path d="M132.695 256.734H125.189L121.381 250.098L125.189 243.57H132.695L136.503 250.098L132.695 256.734Z" fill="#EAECF0"/>
<path d="M132.695 273.055H125.189L121.381 266.528L125.189 260H132.695L136.503 266.528L132.695 273.055Z" fill="#EAECF0"/>
<path d="M1311.23 281.324H1303.72L1299.91 274.688L1303.72 268.16H1311.23L1315.03 274.688L1311.23 281.324Z" fill="#EAECF0"/>
<path d="M1311.23 264.894H1303.72L1299.91 258.367L1303.72 251.73H1311.23L1315.03 258.367L1311.23 264.894Z" fill="#EAECF0"/>
<path d="M1311.23 248.465H1303.72L1299.91 241.938L1303.72 235.41H1311.23L1315.03 241.938L1311.23 248.465Z" fill="#EAECF0"/>
<path d="M1311.23 232.148H1303.72L1299.91 225.512L1303.72 218.984H1311.23L1315.03 225.512L1311.23 232.148Z" fill="#EAECF0"/>
<path d="M1311.23 215.718H1303.72L1299.91 209.191L1303.72 202.555H1311.23L1315.03 209.191L1311.23 215.718Z" fill="#EAECF0"/>
<path d="M118.554 232.148H110.939L107.24 225.512L110.939 218.984H118.554L122.362 225.512L118.554 232.148Z" fill="#EAECF0"/>
<path d="M118.554 248.465H110.939L107.24 241.938L110.939 235.41H118.554L122.362 241.938L118.554 248.465Z" fill="#EAECF0"/>
<path d="M118.554 264.894H110.939L107.24 258.367L110.939 251.73H118.554L122.362 258.367L118.554 264.894Z" fill="#EAECF0"/>
<path d="M118.554 281.324H110.939L107.24 274.688L110.939 268.16H118.554L122.362 274.688L118.554 281.324Z" fill="#EAECF0"/>
<path d="M1325.48 273.055H1317.87L1314.17 266.528L1317.87 260H1325.48L1329.29 266.528L1325.48 273.055Z" fill="#EAECF0"/>
<path d="M1325.48 256.734H1317.87L1314.17 250.098L1317.87 243.57H1325.48L1329.29 250.098L1325.48 256.734Z" fill="#EAECF0"/>
<path d="M1325.48 240.308H1317.87L1314.17 233.781L1317.87 227.145H1325.48L1329.29 233.781L1325.48 240.308Z" fill="#EAECF0"/>
<path d="M1325.37 223.771H1317.97L1314.27 217.352L1317.97 210.934H1325.37L1329.06 217.352L1325.37 223.771Z" fill="#EAECF0"/>
<path d="M103.323 222.028H97.8839L95.1641 217.35L97.8839 212.672H103.323L106.043 217.35L103.323 222.028Z" fill="#EAECF0"/>
<path d="M104.303 240.308H96.796L92.9883 233.781L96.796 227.145H104.303L108.11 233.781L104.303 240.308Z" fill="#EAECF0"/>
<path d="M104.303 256.734H96.796L92.9883 250.098L96.796 243.57H104.303L108.11 250.098L104.303 256.734Z" fill="#EAECF0"/>
<path d="M104.303 273.055H96.796L92.9883 266.528L96.796 260H104.303L108.11 266.528L104.303 273.055Z" fill="#EAECF0"/>
<path d="M1339.62 281.215H1332.12L1328.31 274.688L1332.12 268.16H1339.62L1343.43 274.688L1339.62 281.215Z" fill="#EAECF0"/>
<path d="M1339.62 264.894H1332.12L1328.31 258.367L1332.12 251.73H1339.62L1343.43 258.367L1339.62 264.894Z" fill="#EAECF0"/>
<path d="M1339.62 248.465H1332.12L1328.31 241.938L1332.12 235.41H1339.62L1343.43 241.938L1339.62 248.465Z" fill="#EAECF0"/>
<path d="M1339.62 232.148H1332.12L1328.31 225.512L1332.12 218.984H1339.62L1343.43 225.512L1339.62 232.148Z" fill="#EAECF0"/>
<path d="M87.1113 210.389H85.6971L84.9355 209.192L85.6971 207.887H87.1113L87.7641 209.192L87.1113 210.389Z" fill="#EAECF0"/>
<path d="M90.158 232.148H82.5426L78.8438 225.512L82.5426 218.984H90.158L93.9657 225.512L90.158 232.148Z" fill="#EAECF0"/>
<path d="M90.158 248.465H82.5426L78.8438 241.938L82.5426 235.41H90.158L93.9657 241.938L90.158 248.465Z" fill="#EAECF0"/>
<path d="M90.158 264.894H82.5426L78.8438 258.367L82.5426 251.73H90.158L93.9657 258.367L90.158 264.894Z" fill="#EAECF0"/>
<path d="M90.158 281.324H82.5426L78.8438 274.688L82.5426 268.16H90.158L93.9657 274.688L90.158 281.324Z" fill="#EAECF0"/>
<path d="M1353.87 273.055H1346.26L1342.56 266.528L1346.26 260H1353.87L1357.68 266.528L1353.87 273.055Z" fill="#EAECF0"/>
<path d="M1353.87 256.734H1346.26L1342.56 250.098L1346.26 243.57H1353.87L1357.68 250.098L1353.87 256.734Z" fill="#EAECF0"/>
<path d="M1353.87 240.308H1346.26L1342.56 233.781L1346.26 227.145H1353.87L1357.68 233.781L1353.87 240.308Z" fill="#EAECF0"/>
<path d="M1353.77 223.663H1346.48L1342.78 217.353L1346.48 211.043H1353.77L1357.36 217.353L1353.77 223.663Z" fill="#EAECF0"/>
<path d="M75.908 223.879H68.4014L64.5938 217.351L68.4014 210.824H75.908L79.7157 217.351L75.908 223.879Z" fill="#EAECF0"/>
<path d="M75.908 240.308H68.4014L64.5938 233.781L68.4014 227.145H75.908L79.7157 233.781L75.908 240.308Z" fill="#EAECF0"/>
<path d="M75.908 256.734H68.4014L64.5938 250.098L68.4014 243.57H75.908L79.7157 250.098L75.908 256.734Z" fill="#EAECF0"/>
<path d="M75.908 273.055H68.4014L64.5938 266.528L68.4014 260H75.908L79.7157 266.528L75.908 273.055Z" fill="#EAECF0"/>
<path d="M1368.01 281.324H1360.51L1356.7 274.688L1360.51 268.16H1368.01L1371.82 274.688L1368.01 281.324Z" fill="#EAECF0"/>
<path d="M1368.01 264.894H1360.51L1356.7 258.367L1360.51 251.73H1368.01L1371.82 258.367L1368.01 264.894Z" fill="#EAECF0"/>
<path d="M1368.01 248.465H1360.51L1356.7 241.938L1360.51 235.41H1368.01L1371.82 241.938L1368.01 248.465Z" fill="#EAECF0"/>
<path d="M1368.01 232.148H1360.51L1356.7 225.512L1360.51 218.984H1368.01L1371.82 225.512L1368.01 232.148Z" fill="#EAECF0"/>
<path d="M1365.95 212.02H1362.58L1360.95 209.192L1362.58 206.254H1365.95L1367.58 209.192L1365.95 212.02Z" fill="#EAECF0"/>
<path d="M59.9138 212.565H55.9973L54.0391 209.193L55.9973 205.711H59.9138L61.9808 209.193L59.9138 212.565Z" fill="#EAECF0"/>
<path d="M61.7629 232.148H54.1475L50.3398 225.512L54.1475 218.984H61.7629L65.5705 225.512L61.7629 232.148Z" fill="#EAECF0"/>
<path d="M61.7629 248.465H54.1475L50.3398 241.938L54.1475 235.41H61.7629L65.5705 241.938L61.7629 248.465Z" fill="#EAECF0"/>
<path d="M61.7629 264.894H54.1475L50.3398 258.367L54.1475 251.73H61.7629L65.5705 258.367L61.7629 264.894Z" fill="#EAECF0"/>
<path d="M61.7629 281.324H54.1475L50.3398 274.688L54.1475 268.16H61.7629L65.5705 274.688L61.7629 281.324Z" fill="#EAECF0"/>
<path d="M1382.27 273.055H1374.65L1370.96 266.528L1374.65 260H1382.27L1386.08 266.528L1382.27 273.055Z" fill="#EAECF0"/>
<path d="M1382.27 256.734H1374.65L1370.96 250.098L1374.65 243.57H1382.27L1386.08 250.098L1382.27 256.734Z" fill="#EAECF0"/>
<path d="M1382.27 240.308H1374.65L1370.96 233.781L1374.65 227.145H1382.27L1386.08 233.781L1382.27 240.308Z" fill="#EAECF0"/>
<path d="M1382.27 223.879H1374.76L1370.96 217.351L1374.76 210.824H1382.27L1386.08 217.351L1382.27 223.879Z" fill="#EAECF0"/>
<path d="M44.6846 202.448H42.9439L41.9648 200.925L42.9439 199.402H44.6846L45.5549 200.925L44.6846 202.448Z" fill="#EAECF0"/>
<path d="M47.5115 223.879H40.0049L36.1973 217.351L40.0049 210.824H47.5115L51.3192 217.351L47.5115 223.879Z" fill="#EAECF0"/>
<path d="M47.5115 240.308H40.0049L36.1973 233.781L40.0049 227.145H47.5115L51.3192 233.781L47.5115 240.308Z" fill="#EAECF0"/>
<path d="M47.5115 256.734H40.0049L36.1973 250.098L40.0049 243.57H47.5115L51.3192 250.098L47.5115 256.734Z" fill="#EAECF0"/>
<path d="M47.5115 273.055H40.0049L36.1973 266.528L40.0049 260H47.5115L51.3192 266.528L47.5115 273.055Z" fill="#EAECF0"/>
<path d="M1396.52 281.324H1388.9L1385.09 274.688L1388.9 268.16H1396.52L1400.21 274.688L1396.52 281.324Z" fill="#EAECF0"/>
<path d="M1396.52 264.894H1388.9L1385.09 258.367L1388.9 251.73H1396.52L1400.21 258.367L1396.52 264.894Z" fill="#EAECF0"/>
<path d="M1396.52 248.465H1388.9L1385.09 241.938L1388.9 235.41H1396.52L1400.21 241.938L1396.52 248.465Z" fill="#EAECF0"/>
<path d="M1396.52 232.148H1388.9L1385.09 225.512L1388.9 218.984H1396.52L1400.21 225.512L1396.52 232.148Z" fill="#EAECF0"/>
<path d="M32.8269 214.74H26.2994L23.1445 209.192L26.2994 203.535H32.8269L35.9818 209.192L32.8269 214.74Z" fill="#EAECF0"/>
<path d="M33.3703 232.148H25.7549L21.9473 225.512L25.7549 218.984H33.3703L37.178 225.512L33.3703 232.148Z" fill="#EAECF0"/>
<path d="M33.3703 248.465H25.7549L21.9473 241.938L25.7549 235.41H33.3703L37.178 241.938L33.3703 248.465Z" fill="#EAECF0"/>
<path d="M33.3703 264.894H25.7549L21.9473 258.367L25.7549 251.73H33.3703L37.178 258.367L33.3703 264.894Z" fill="#EAECF0"/>
<path d="M33.3703 281.324H25.7549L21.9473 274.688L25.7549 268.16H33.3703L37.178 274.688L33.3703 281.324Z" fill="#EAECF0"/>
<path d="M1410.66 273.055H1403.05L1399.35 266.528L1403.05 260H1410.66L1414.47 266.528L1410.66 273.055Z" fill="#EAECF0"/>
<path d="M1410.66 256.734H1403.05L1399.35 250.098L1403.05 243.57H1410.66L1414.47 250.098L1410.66 256.734Z" fill="#EAECF0"/>
<path d="M1410.66 240.308H1403.05L1399.35 233.781L1403.05 227.145H1410.66L1414.47 233.781L1410.66 240.308Z" fill="#EAECF0"/>
<path d="M1407.73 218.874H1405.98L1405.11 217.351L1405.98 215.828H1407.73L1408.6 217.351L1407.73 218.874Z" fill="#EAECF0"/>
<path d="M19.119 223.879H11.6124L7.80469 217.351L11.6124 210.824H19.119L22.9266 217.351L19.119 223.879Z" fill="#EAECF0"/>
<path d="M18.6845 239.547H12.0483L8.67578 233.782L12.0483 228.016H18.6845L22.057 233.782L18.6845 239.547Z" fill="#EAECF0"/>
<path d="M19.119 256.734H11.6124L7.80469 250.098L11.6124 243.57H19.119L22.9266 250.098L19.119 256.734Z" fill="#EAECF0"/>
<path d="M19.119 273.055H11.6124L7.80469 266.528L11.6124 260H19.119L22.9266 266.528L19.119 273.055Z" fill="#EAECF0"/>
<path d="M1423.39 262.282H1418.82L1416.43 258.366L1418.82 254.34H1423.39L1425.67 258.366L1423.39 262.282Z" fill="#EAECF0"/>
<path d="M1424.91 248.465H1417.3L1413.49 241.938L1417.3 235.41H1424.91L1428.61 241.938L1424.91 248.465Z" fill="#EAECF0"/>
<path d="M1424.15 230.845H1417.95L1414.9 225.514L1417.95 220.184H1424.15L1427.2 225.514L1424.15 230.845Z" fill="#EAECF0"/>
<path d="M1.82151 210.281H0.516024L-0.136719 209.193L0.516024 207.996H1.82151L2.47426 209.193L1.82151 210.281Z" fill="#EAECF0"/>
<path d="M2.9075 228.557H-0.573805L-2.31445 225.511L-0.573805 222.465H2.9075L4.75695 225.511L2.9075 228.557Z" fill="#EAECF0"/>
<path d="M4.86815 248.357H-2.52963L-6.22852 241.938L-2.52963 235.52H4.86815L8.67583 241.938L4.86815 248.357Z" fill="#EAECF0"/>
<path d="M4.10444 263.481H-1.77026L-4.81641 258.367L-1.77026 253.145H4.10444L7.15058 258.367L4.10444 263.481Z" fill="#EAECF0"/>
<path d="M4.97577 281.324H-2.63959L-6.44727 274.688L-2.63959 268.16H4.97577L8.78345 274.688L4.97577 281.324Z" fill="#EAECF0"/>
<path d="M1437.86 254.67H1432.63L1430.02 250.101L1432.63 245.641H1437.86L1440.58 250.101L1437.86 254.67Z" fill="#EAECF0"/>
<path d="M1437.75 238.025H1432.86L1430.36 233.782L1432.86 229.539H1437.75L1440.15 233.782L1437.75 238.025Z" fill="#EAECF0"/>
<path d="M1453 30H-16V1037H1453V30Z" fill="url(#paint0_linear_1143_2)"/>
</g>
</g>
<defs>
<linearGradient id="paint0_linear_1143_2" x1="718" y1="-91" x2="718.5" y2="1037" gradientUnits="userSpaceOnUse">
<stop stop-color="white" stop-opacity="0"/>
<stop offset="0.415033" stop-color="white"/>
</linearGradient>
<clipPath id="clip0_1143_2">
<rect width="1440" height="269" fill="white"/>
</clipPath>
</defs>
</svg>
