<svg width="1440" height="181" viewBox="0 0 1440 181" fill="none" xmlns="http://www.w3.org/2000/svg">
<g clip-path="url(#clip0_1143_2)">
<rect width="1440" height="181" fill="white"/>
<path d="M1480.07 0H-43V870H1480.07V0Z" fill="white"/>
<path d="M714.941 193.324H707.325L703.518 186.688L707.325 180.16H714.941L718.639 186.688L714.941 193.324Z" fill="#EAECF0"/>
<path d="M743.341 193.324H735.726L731.918 186.688L735.726 180.16H743.341L747.149 186.688L743.341 193.324Z" fill="#EAECF0"/>
<path d="M729.088 185.055H721.581L717.773 178.528L721.581 172H729.088L732.895 178.528L729.088 185.055Z" fill="#EAECF0"/>
<path d="M713.858 175.152H708.31L705.59 170.365L708.31 165.578H713.858L716.687 170.365L713.858 175.152Z" fill="#EAECF0"/>
<path d="M697.65 179.83H696.236L695.475 178.525L696.236 177.219H697.65L698.412 178.525L697.65 179.83Z" fill="#EAECF0"/>
<path d="M771.732 193.324H764.116L760.309 186.688L764.116 180.16H771.732L775.539 186.688L771.732 193.324Z" fill="#EAECF0"/>
<path d="M755.852 182.225H751.609L749.434 178.527L751.609 174.828H755.852L758.028 178.527L755.852 182.225Z" fill="#EAECF0"/>
<path d="M743.341 176.894H735.726L731.918 170.367L735.726 163.73H743.341L747.149 170.367L743.341 176.894Z" fill="#EAECF0"/>
<path d="M728.87 168.409H721.69L718.1 162.1L721.69 155.898H728.87L732.46 162.1L728.87 168.409Z" fill="#EAECF0"/>
<path d="M800.13 193.324H792.515L788.707 186.688L792.515 180.16H800.13L803.938 186.688L800.13 193.324Z" fill="#EAECF0"/>
<path d="M785.879 185.055H778.372L774.564 178.528L778.372 172H785.879L789.686 178.528L785.879 185.055Z" fill="#EAECF0"/>
<path d="M769.772 173.632H765.965L764.115 170.369L765.965 166.996H769.772L771.731 170.369L769.772 173.632Z" fill="#EAECF0"/>
<path d="M757.478 168.734H749.972L746.164 162.098L749.972 155.57H757.478L761.286 162.098L757.478 168.734Z" fill="#EAECF0"/>
<path d="M743.341 160.465H735.726L731.918 153.938L735.726 147.41H743.341L747.149 153.938L743.341 160.465Z" fill="#EAECF0"/>
<path d="M828.521 193.324H820.905L817.098 186.688L820.905 180.16H828.521L832.328 186.688L828.521 193.324Z" fill="#EAECF0"/>
<path d="M814.267 185.055H806.761L802.953 178.528L806.761 172H814.267L818.075 178.528L814.267 185.055Z" fill="#EAECF0"/>
<path d="M800.13 176.894H792.515L788.707 170.367L792.515 163.73H800.13L803.938 170.367L800.13 176.894Z" fill="#EAECF0"/>
<path d="M785.879 168.734H778.372L774.564 162.098L778.372 155.57H785.879L789.686 162.098L785.879 168.734Z" fill="#EAECF0"/>
<path d="M771.625 160.465H764.228L760.42 153.938L764.228 147.41H771.625L775.433 153.938L771.625 160.465Z" fill="#EAECF0"/>
<path d="M757.478 152.308H749.972L746.164 145.781L749.972 139.145H757.478L761.286 145.781L757.478 152.308Z" fill="#EAECF0"/>
<path d="M742.469 142.517H736.594L733.766 137.512L736.594 132.508H742.469L745.297 137.512L742.469 142.517Z" fill="#EAECF0"/>
<path d="M856.919 193.324H849.304L845.496 186.688L849.304 180.16H856.919L860.727 186.688L856.919 193.324Z" fill="#EAECF0"/>
<path d="M842.667 185.055H835.16L831.354 178.528L835.16 172H842.667L846.474 178.528L842.667 185.055Z" fill="#EAECF0"/>
<path d="M827.653 175.481H821.779L818.732 170.367L821.779 165.145H827.653L830.699 170.367L827.653 175.481Z" fill="#EAECF0"/>
<path d="M814.267 168.734H806.761L802.953 162.098L806.761 155.57H814.267L818.075 162.098L814.267 168.734Z" fill="#EAECF0"/>
<path d="M800.13 160.465H792.515L788.707 153.938L792.515 147.41H800.13L803.938 153.938L800.13 160.465Z" fill="#EAECF0"/>
<path d="M785.879 152.308H778.372L774.564 145.781L778.372 139.145H785.879L789.686 145.781L785.879 152.308Z" fill="#EAECF0"/>
<path d="M771.732 144.148H764.116L760.309 137.512L764.116 130.984H771.732L775.539 137.512L771.732 144.148Z" fill="#EAECF0"/>
<path d="M757.044 135.118H750.408L747.035 129.352L750.408 123.586H757.044L760.416 129.352L757.044 135.118Z" fill="#EAECF0"/>
<path d="M614.966 167.648H608.548L605.393 162.099L608.548 156.66H614.966L618.121 162.099L614.966 167.648Z" fill="#EAECF0"/>
<path d="M600.929 176.245H594.076L590.703 170.371L594.076 164.387H600.929L604.411 170.371L600.929 176.245Z" fill="#EAECF0"/>
<path d="M885.312 193.324H877.696L873.889 186.688L877.696 180.16H885.312L889.119 186.688L885.312 193.324Z" fill="#EAECF0"/>
<path d="M871.056 185.055H863.55L859.742 178.528L863.55 172H871.056L874.864 178.528L871.056 185.055Z" fill="#EAECF0"/>
<path d="M856.919 176.894H849.304L845.496 170.367L849.304 163.73H856.919L860.727 170.367L856.919 176.894Z" fill="#EAECF0"/>
<path d="M842.445 168.302H835.374L831.893 162.101L835.374 156.008H842.445L846.035 162.101L842.445 168.302Z" fill="#EAECF0"/>
<path d="M814.267 152.309H806.761L802.953 145.782L806.761 139.254H814.267L818.075 145.782L814.267 152.309Z" fill="#EAECF0"/>
<path d="M800.13 144.148H792.515L788.707 137.512L792.515 130.984H800.13L803.938 137.512L800.13 144.148Z" fill="#EAECF0"/>
<path d="M785.879 135.879H778.372L774.564 129.351L778.372 122.824H785.879L789.686 129.351L785.879 135.879Z" fill="#EAECF0"/>
<path d="M771.188 126.853H764.659L761.396 121.196L764.659 115.43H771.188L774.451 121.196L771.188 126.853Z" fill="#EAECF0"/>
<path d="M600.822 159.595H594.295L591.031 153.938L594.295 148.281H600.822L604.086 153.938L600.822 159.595Z" fill="#EAECF0"/>
<path d="M587.005 168.626H579.607L575.908 162.099L579.607 155.68H587.005L590.812 162.099L587.005 168.626Z" fill="#EAECF0"/>
<path d="M913.705 193.324H906.09L902.391 186.688L906.09 180.16H913.705L917.513 186.688L913.705 193.324Z" fill="#EAECF0"/>
<path d="M899.459 185.055H891.952L888.145 178.528L891.952 172H899.459L903.266 178.528L899.459 185.055Z" fill="#EAECF0"/>
<path d="M885.312 176.894H877.696L873.889 170.367L877.696 163.73H885.312L889.119 170.367L885.312 176.894Z" fill="#EAECF0"/>
<path d="M871.056 168.734H863.55L859.742 162.098L863.55 155.57H871.056L874.864 162.098L871.056 168.734Z" fill="#EAECF0"/>
<path d="M856.81 160.357H849.412L845.713 153.938L849.412 147.52H856.81L860.508 153.938L856.81 160.357Z" fill="#EAECF0"/>
<path d="M842.451 151.871H835.379L831.789 145.779L835.379 139.578H842.451L846.041 145.779L842.451 151.871Z" fill="#EAECF0"/>
<path d="M828.303 143.82H821.123L817.533 137.51L821.123 131.309H828.303L831.894 137.51L828.303 143.82Z" fill="#EAECF0"/>
<path d="M813.508 134.576H807.524L804.479 129.354L807.524 124.023H813.508L816.553 129.354L813.508 134.576Z" fill="#EAECF0"/>
<path d="M799.37 126.412H793.277L790.23 121.19L793.277 115.859H799.37L802.415 121.19L799.37 126.412Z" fill="#EAECF0"/>
<path d="M784.354 116.841H779.894L777.609 112.924L779.894 109.008H784.354L786.639 112.924L784.354 116.841Z" fill="#EAECF0"/>
<path d="M585.156 148.934H581.457L579.717 145.779L581.457 142.625H585.156L587.006 145.779L585.156 148.934Z" fill="#EAECF0"/>
<path d="M942.103 193.324H934.488L930.789 186.688L934.488 180.16H942.103L945.911 186.688L942.103 193.324Z" fill="#EAECF0"/>
<path d="M927.847 185.055H920.341L916.533 178.528L920.341 172H927.847L931.655 178.528L927.847 185.055Z" fill="#EAECF0"/>
<path d="M913.705 176.894H906.09L902.391 170.367L906.09 163.73H913.705L917.513 170.367L913.705 176.894Z" fill="#EAECF0"/>
<path d="M899.459 168.734H891.952L888.145 162.098L891.952 155.57H899.459L903.266 162.098L899.459 168.734Z" fill="#EAECF0"/>
<path d="M885.312 160.465H877.696L873.889 153.938L877.696 147.41H885.312L889.119 153.938L885.312 160.465Z" fill="#EAECF0"/>
<path d="M869.754 149.916H864.858L862.465 145.782L864.858 141.539H869.754L872.147 145.782L869.754 149.916Z" fill="#EAECF0"/>
<path d="M856.37 143.171H849.841L846.688 137.514L849.841 131.965H856.37L859.633 137.514L856.37 143.171Z" fill="#EAECF0"/>
<path d="M743.342 78.5497H735.726L732.027 71.9137L735.726 65.3867H743.342L747.04 71.9137L743.342 78.5497Z" fill="#EAECF0"/>
<path d="M727.677 67.7766H723L720.605 63.7516L723 59.7266H727.677L730.07 63.7516L727.677 67.7766Z" fill="#EAECF0"/>
<path d="M712.771 58.4226H709.507L707.875 55.5936L709.507 52.7656H712.771L714.402 55.5936L712.771 58.4226Z" fill="#EAECF0"/>
<path d="M498.994 180.051H497.254L496.492 178.528L497.254 177.113H498.994L499.865 178.528L498.994 180.051Z" fill="#EAECF0"/>
<path d="M487.679 193.324H480.173L476.365 186.688L480.173 180.16H487.679L491.487 186.688L487.679 193.324Z" fill="#EAECF0"/>
<path d="M970.496 193.324H962.88L959.182 186.688L962.88 180.16H970.496L974.304 186.688L970.496 193.324Z" fill="#EAECF0"/>
<path d="M956.24 185.055H948.733L944.926 178.528L948.733 172H956.24L960.048 178.528L956.24 185.055Z" fill="#EAECF0"/>
<path d="M942.103 176.894H934.488L930.789 170.367L934.488 163.73H942.103L945.911 170.367L942.103 176.894Z" fill="#EAECF0"/>
<path d="M927.847 168.734H920.341L916.533 162.098L920.341 155.57H927.847L931.655 162.098L927.847 168.734Z" fill="#EAECF0"/>
<path d="M913.705 160.465H906.09L902.391 153.938L906.09 147.41H913.705L917.513 153.938L913.705 160.465Z" fill="#EAECF0"/>
<path d="M899.459 152.308H891.952L888.145 145.781L891.952 139.145H899.459L903.266 145.781L899.459 152.308Z" fill="#EAECF0"/>
<path d="M884.111 141.972H878.998L876.387 137.512L878.998 133.16H884.111L886.613 137.512L884.111 141.972Z" fill="#EAECF0"/>
<path d="M768.685 73.2178H767.162L766.4 71.9118L767.162 70.7148H768.685L769.446 71.9118L768.685 73.2178Z" fill="#EAECF0"/>
<path d="M755.2 66.3626H752.154L750.631 63.7516L752.154 61.1406H755.2L756.832 63.7516L755.2 66.3626Z" fill="#EAECF0"/>
<path d="M743.341 62.121H735.726L731.918 55.593L735.726 48.957H743.341L747.149 55.593L743.341 62.121Z" fill="#EAECF0"/>
<path d="M729.088 53.9609H721.581L717.773 47.3249L721.581 40.7969H729.088L732.895 47.3249L729.088 53.9609Z" fill="#EAECF0"/>
<path d="M714.941 45.6956H707.325L703.518 39.1676L707.325 32.6406H714.941L718.639 39.1676L714.941 45.6956Z" fill="#EAECF0"/>
<path d="M584.724 115.314H582.004L580.59 112.921L582.004 110.527H584.724L586.029 112.921L584.724 115.314Z" fill="#EAECF0"/>
<path d="M571.449 125.11H566.88L564.486 121.193L566.88 117.168H571.449L573.734 121.193L571.449 125.11Z" fill="#EAECF0"/>
<path d="M558.72 135.879H551.214L547.406 129.351L551.214 122.824H558.72L562.419 129.351L558.72 135.879Z" fill="#EAECF0"/>
<path d="M544.47 144.148H536.964L533.156 137.512L536.964 130.984H544.47L548.278 137.512L544.47 144.148Z" fill="#EAECF0"/>
<path d="M530.328 152.309H522.713L519.014 145.782L522.713 139.254H530.328L534.027 145.782L530.328 152.309Z" fill="#EAECF0"/>
<path d="M515.857 160.032H508.895L505.305 153.94L508.895 147.848H515.857L519.339 153.94L515.857 160.032Z" fill="#EAECF0"/>
<path d="M501.496 167.973H494.751L491.379 162.098L494.751 156.223H501.496L504.978 162.098L501.496 167.973Z" fill="#EAECF0"/>
<path d="M487.679 176.894H480.173L476.365 170.367L480.173 163.73H487.679L491.487 170.367L487.679 176.894Z" fill="#EAECF0"/>
<path d="M473.538 185.055H465.923L462.115 178.528L465.923 172H473.538L477.346 178.528L473.538 185.055Z" fill="#EAECF0"/>
<path d="M998.887 193.324H991.271L987.572 186.688L991.271 180.16H998.887L1002.69 186.688L998.887 193.324Z" fill="#EAECF0"/>
<path d="M984.747 185.055H977.132L973.324 178.528L977.132 172H984.747L988.446 178.528L984.747 185.055Z" fill="#EAECF0"/>
<path d="M970.496 176.894H962.88L959.182 170.367L962.88 163.73H970.496L974.304 170.367L970.496 176.894Z" fill="#EAECF0"/>
<path d="M956.24 168.734H948.733L944.926 162.098L948.733 155.57H956.24L960.048 162.098L956.24 168.734Z" fill="#EAECF0"/>
<path d="M942.103 160.465H934.488L930.789 153.938L934.488 147.41H942.103L945.911 153.938L942.103 160.465Z" fill="#EAECF0"/>
<path d="M927.847 152.308H920.341L916.533 145.781L920.341 139.145H927.847L931.655 145.781L927.847 152.308Z" fill="#EAECF0"/>
<path d="M913.705 144.148H906.09L902.391 137.512L906.09 130.984H913.705L917.513 137.512L913.705 144.148Z" fill="#EAECF0"/>
<path d="M896.845 131.415H894.56L893.363 129.348L894.56 127.281H896.845L898.041 129.348L896.845 131.415Z" fill="#EAECF0"/>
<path d="M769.335 57.9862H766.507L765.201 55.5932L766.507 53.1992H769.335L770.641 55.5932L769.335 57.9862Z" fill="#EAECF0"/>
<path d="M756.287 51.7847H751.174L748.672 47.3247L751.174 42.9727H756.287L758.789 47.3247L756.287 51.7847Z" fill="#EAECF0"/>
<path d="M741.382 42.4254H737.574L735.725 39.1624L737.574 35.8984H741.382L743.34 39.1624L741.382 42.4254Z" fill="#EAECF0"/>
<path d="M726.147 32.3138H724.515L723.754 31.0078L724.515 29.5938H726.147L726.909 31.0078L726.147 32.3138Z" fill="#EAECF0"/>
<path d="M587.007 102.916H579.718L576.02 96.6065L579.718 90.1875H587.007L590.598 96.6065L587.007 102.916Z" fill="#EAECF0"/>
<path d="M571.667 109.117H566.662L564.16 104.766L566.662 100.414H571.667L574.169 104.766L571.667 109.117Z" fill="#EAECF0"/>
<path d="M557.849 118.04H551.974L549.037 112.926L551.974 107.812H557.849L560.895 112.926L557.849 118.04Z" fill="#EAECF0"/>
<path d="M544.47 127.718H536.964L533.156 121.191L536.964 114.555H544.47L548.278 121.191L544.47 127.718Z" fill="#EAECF0"/>
<path d="M530.328 135.879H522.713L519.014 129.351L522.713 122.824H530.328L534.136 129.351L530.328 135.879Z" fill="#EAECF0"/>
<path d="M516.076 144.148H508.569L504.762 137.512L508.569 130.984H516.076L519.884 137.512L516.076 144.148Z" fill="#EAECF0"/>
<path d="M501.931 152.308H494.316L490.617 145.781L494.316 139.145H501.931L505.739 145.781L501.931 152.308Z" fill="#EAECF0"/>
<path d="M487.679 160.465H480.173L476.365 153.938L480.173 147.41H487.679L491.487 153.938L487.679 160.465Z" fill="#EAECF0"/>
<path d="M473.538 168.734H465.923L462.115 162.098L465.923 155.57H473.538L477.346 162.098L473.538 168.734Z" fill="#EAECF0"/>
<path d="M458.636 175.696H452.435L449.389 170.365L452.435 165.035H458.636L461.682 170.365L458.636 175.696Z" fill="#EAECF0"/>
<path d="M1027.28 193.324H1019.67L1015.97 186.688L1019.67 180.16H1027.28L1031.09 186.688L1027.28 193.324Z" fill="#EAECF0"/>
<path d="M1013.14 185.055H1005.52L1001.72 178.528L1005.52 172H1013.14L1016.84 178.528L1013.14 185.055Z" fill="#EAECF0"/>
<path d="M998.887 176.894H991.271L987.572 170.367L991.271 163.73H998.887L1002.69 170.367L998.887 176.894Z" fill="#EAECF0"/>
<path d="M984.747 168.734H977.132L973.324 162.098L977.132 155.57H984.747L988.446 162.098L984.747 168.734Z" fill="#EAECF0"/>
<path d="M970.496 160.465H962.88L959.182 153.938L962.88 147.41H970.496L974.304 153.938L970.496 160.465Z" fill="#EAECF0"/>
<path d="M956.24 152.308H948.733L944.926 145.781L948.733 139.145H956.24L960.048 145.781L956.24 152.308Z" fill="#EAECF0"/>
<path d="M942.103 144.148H934.488L930.789 137.512L934.488 130.984H942.103L945.911 137.512L942.103 144.148Z" fill="#EAECF0"/>
<path d="M927.847 135.879H920.341L916.533 129.351L920.341 122.824H927.847L931.655 129.351L927.847 135.879Z" fill="#EAECF0"/>
<path d="M910.879 122.934H908.921L907.941 121.193L908.921 119.453H910.879L911.967 121.193L910.879 122.934Z" fill="#EAECF0"/>
<path d="M898.911 118.58H892.492L889.229 112.923L892.492 107.375H898.911L902.176 112.923L898.911 118.58Z" fill="#EAECF0"/>
<path d="M882.7 106.724H880.307L879.219 104.766L880.307 102.699H882.7L883.788 104.766L882.7 106.724Z" fill="#EAECF0"/>
<path d="M771.082 44.6056H764.772L761.617 39.1656L764.772 33.7266H771.082L774.237 39.1656L771.082 44.6056Z" fill="#EAECF0"/>
<path d="M756.942 36.553H750.524L747.26 31.005L750.524 25.457H756.942L760.097 31.005L756.942 36.553Z" fill="#EAECF0"/>
<path d="M598.321 73.3241H596.689L595.928 71.9101L596.689 70.4961H598.321L599.191 71.9101L598.321 73.3241Z" fill="#EAECF0"/>
<path d="M587.115 86.5944H579.608L575.801 80.1764L579.608 73.6484H587.115L590.814 80.1764L587.115 86.5944Z" fill="#EAECF0"/>
<path d="M572.974 94.8636H565.358L561.551 88.3366L565.358 81.8086H572.974L576.673 88.3366L572.974 94.8636Z" fill="#EAECF0"/>
<path d="M558.72 103.132H551.105L547.406 96.6048L551.105 89.9688H558.72L562.528 96.6048L558.72 103.132Z" fill="#EAECF0"/>
<path d="M544.47 111.293H536.964L533.156 104.766L536.964 98.2383H544.47L548.278 104.766L544.47 111.293Z" fill="#EAECF0"/>
<path d="M530.328 119.559H522.713L519.014 112.922L522.713 106.395H530.328L534.136 112.922L530.328 119.559Z" fill="#EAECF0"/>
<path d="M516.076 127.718H508.569L504.762 121.191L508.569 114.555H516.076L519.884 121.191L516.076 127.718Z" fill="#EAECF0"/>
<path d="M501.931 135.879H494.316L490.617 129.351L494.316 122.824H501.931L505.739 129.351L501.931 135.879Z" fill="#EAECF0"/>
<path d="M487.679 144.148H480.173L476.365 137.512L480.173 130.984H487.679L491.487 137.512L487.679 144.148Z" fill="#EAECF0"/>
<path d="M473.538 152.308H465.923L462.115 145.781L465.923 139.145H473.538L477.346 145.781L473.538 152.308Z" fill="#EAECF0"/>
<path d="M459.287 160.465H451.78L447.973 153.938L451.78 147.41H459.287L463.095 153.938L459.287 160.465Z" fill="#EAECF0"/>
<path d="M1055.68 193.324H1048.06L1044.36 186.688L1048.06 180.16H1055.68L1059.48 186.688L1055.68 193.324Z" fill="#EAECF0"/>
<path d="M1041.54 185.055H1033.92L1030.11 178.528L1033.92 172H1041.54L1045.24 178.528L1041.54 185.055Z" fill="#EAECF0"/>
<path d="M1027.28 176.894H1019.67L1015.97 170.367L1019.67 163.73H1027.28L1031.09 170.367L1027.28 176.894Z" fill="#EAECF0"/>
<path d="M1013.14 168.734H1005.52L1001.72 162.098L1005.52 155.57H1013.14L1016.84 162.098L1013.14 168.734Z" fill="#EAECF0"/>
<path d="M998.887 160.465H991.271L987.572 153.938L991.271 147.41H998.887L1002.69 153.938L998.887 160.465Z" fill="#EAECF0"/>
<path d="M984.747 152.308H977.132L973.324 145.781L977.132 139.145H984.747L988.446 145.781L984.747 152.308Z" fill="#EAECF0"/>
<path d="M970.496 144.148H962.88L959.182 137.512L962.88 130.984H970.496L974.304 137.512L970.496 144.148Z" fill="#EAECF0"/>
<path d="M956.24 135.879H948.733L944.926 129.351L948.733 122.824H956.24L960.048 129.351L956.24 135.879Z" fill="#EAECF0"/>
<path d="M940.033 124.128H936.551L934.811 121.191L936.551 118.145H940.033L941.773 121.191L940.033 124.128Z" fill="#EAECF0"/>
<path d="M898.258 100.849H893.254L890.643 96.6059L893.254 92.2539H898.258L900.76 96.6059L898.258 100.849Z" fill="#EAECF0"/>
<path d="M797.189 40.6866H795.448L794.578 39.1636L795.448 37.6406H797.189L798.059 39.1636L797.189 40.6866Z" fill="#EAECF0"/>
<path d="M785.444 36.7699H778.808L775.436 31.0039L778.808 25.1289H785.444L788.817 31.0039L785.444 36.7699Z" fill="#EAECF0"/>
<path d="M768.797 24.2608H767.056L766.186 22.7378L767.056 21.2148H768.797L769.667 22.7378L768.797 24.2608Z" fill="#EAECF0"/>
<path d="M598.645 57.5498H596.359L595.271 55.5918L596.359 53.6328H598.645L599.841 55.5918L598.645 57.5498Z" fill="#EAECF0"/>
<path d="M587.115 70.2776H579.5L575.801 63.7496L579.5 57.2227H587.115L590.923 63.7496L587.115 70.2776Z" fill="#EAECF0"/>
<path d="M572.974 78.5497H565.358L561.551 71.9137L565.358 65.3867H572.974L576.673 71.9137L572.974 78.5497Z" fill="#EAECF0"/>
<path d="M558.72 86.7034H551.105L547.406 80.1764L551.105 73.6484H558.72L562.528 80.1764L558.72 86.7034Z" fill="#EAECF0"/>
<path d="M544.47 94.8636H536.964L533.156 88.3366L536.964 81.8086H544.47L548.278 88.3366L544.47 94.8636Z" fill="#EAECF0"/>
<path d="M530.328 103.132H522.713L519.014 96.6048L522.713 89.9688H530.328L534.136 96.6048L530.328 103.132Z" fill="#EAECF0"/>
<path d="M516.076 111.293H508.569L504.762 104.766L508.569 98.2383H516.076L519.884 104.766L516.076 111.293Z" fill="#EAECF0"/>
<path d="M501.931 119.559H494.316L490.617 112.922L494.316 106.395H501.931L505.739 112.922L501.931 119.559Z" fill="#EAECF0"/>
<path d="M487.679 127.718H480.173L476.365 121.191L480.173 114.555H487.679L491.487 121.191L487.679 127.718Z" fill="#EAECF0"/>
<path d="M473.538 135.879H465.923L462.115 129.351L465.923 122.824H473.538L477.346 129.351L473.538 135.879Z" fill="#EAECF0"/>
<path d="M457.872 141.644H453.194L450.801 137.51L453.194 133.484H457.872L460.266 137.51L457.872 141.644Z" fill="#EAECF0"/>
<path d="M399.669 171.89H397.82L396.949 170.367L397.82 168.844H399.669L400.539 170.367L399.669 171.89Z" fill="#EAECF0"/>
<path d="M388.355 185.055H380.739L376.932 178.528L380.739 172H388.355L392.162 178.528L388.355 185.055Z" fill="#EAECF0"/>
<path d="M1084.07 193.324H1076.57L1072.76 186.688L1076.57 180.16H1084.07L1087.88 186.688L1084.07 193.324Z" fill="#EAECF0"/>
<path d="M1069.93 185.055H1062.31L1058.5 178.528L1062.31 172H1069.93L1073.63 178.528L1069.93 185.055Z" fill="#EAECF0"/>
<path d="M1055.68 176.894H1048.06L1044.36 170.367L1048.06 163.73H1055.68L1059.48 170.367L1055.68 176.894Z" fill="#EAECF0"/>
<path d="M1041.54 168.734H1033.92L1030.11 162.098L1033.92 155.57H1041.54L1045.24 162.098L1041.54 168.734Z" fill="#EAECF0"/>
<path d="M1027.28 160.465H1019.67L1015.97 153.938L1019.67 147.41H1027.28L1031.09 153.938L1027.28 160.465Z" fill="#EAECF0"/>
<path d="M1013.14 152.308H1005.52L1001.72 145.781L1005.52 139.145H1013.14L1016.84 145.781L1013.14 152.308Z" fill="#EAECF0"/>
<path d="M998.887 144.148H991.271L987.572 137.512L991.271 130.984H998.887L1002.69 137.512L998.887 144.148Z" fill="#EAECF0"/>
<path d="M984.532 135.55H977.352L973.762 129.349L977.352 123.148H984.532L988.013 129.349L984.532 135.55Z" fill="#EAECF0"/>
<path d="M970.382 127.503H963.093L959.395 121.193L963.093 114.883H970.382L973.971 121.193L970.382 127.503Z" fill="#EAECF0"/>
<path d="M955.914 118.909H949.06L945.688 112.925L949.06 107.051H955.914L959.395 112.925L955.914 118.909Z" fill="#EAECF0"/>
<path d="M913.159 93.8861H906.74L903.477 88.3371L906.74 82.7891H913.159L916.314 88.3371L913.159 93.8861Z" fill="#EAECF0"/>
<path d="M896.299 81.2698H895.102L894.449 80.1817L895.102 79.0938H896.299L896.951 80.1817L896.299 81.2698Z" fill="#EAECF0"/>
<path d="M615.293 37.2063H608.112L604.521 31.0053L608.112 24.6953H615.293L618.992 31.0053L615.293 37.2063Z" fill="#EAECF0"/>
<path d="M601.04 45.3668H593.969L590.379 39.1658L593.969 32.9648H601.04L604.63 39.1658L601.04 45.3668Z" fill="#EAECF0"/>
<path d="M587.115 53.9609H579.5L575.801 47.3249L579.5 40.7969H587.115L590.923 47.3249L587.115 53.9609Z" fill="#EAECF0"/>
<path d="M572.974 62.121H565.358L561.551 55.593L565.358 48.957H572.974L576.673 55.593L572.974 62.121Z" fill="#EAECF0"/>
<path d="M558.72 70.2776H551.105L547.406 63.7496L551.105 57.2227H558.72L562.528 63.7496L558.72 70.2776Z" fill="#EAECF0"/>
<path d="M544.47 78.5497H536.964L533.156 71.9137L536.964 65.3867H544.47L548.278 71.9137L544.47 78.5497Z" fill="#EAECF0"/>
<path d="M530.328 86.7034H522.713L519.014 80.1764L522.713 73.6484H530.328L534.136 80.1764L530.328 86.7034Z" fill="#EAECF0"/>
<path d="M516.076 94.8636H508.569L504.762 88.3366L508.569 81.8086H516.076L519.884 88.3366L516.076 94.8636Z" fill="#EAECF0"/>
<path d="M501.931 103.132H494.316L490.617 96.6048L494.316 89.9688H501.931L505.739 96.6048L501.931 103.132Z" fill="#EAECF0"/>
<path d="M487.679 111.293H480.173L476.365 104.766L480.173 98.2383H487.679L491.487 104.766L487.679 111.293Z" fill="#EAECF0"/>
<path d="M473.538 119.559H465.923L462.115 112.922L465.923 106.395H473.538L477.346 112.922L473.538 119.559Z" fill="#EAECF0"/>
<path d="M458.959 127.07H452.105L448.732 121.195L452.105 115.211H458.959L462.331 121.195L458.959 127.07Z" fill="#EAECF0"/>
<path d="M415.116 149.371H410.764L408.697 145.781L410.764 142.082H415.116L417.183 145.781L415.116 149.371Z" fill="#EAECF0"/>
<path d="M402.498 160.465H394.991L391.184 153.938L394.991 147.41H402.498L406.306 153.938L402.498 160.465Z" fill="#EAECF0"/>
<path d="M388.355 168.734H380.739L376.932 162.098L380.739 155.57H388.355L392.162 162.098L388.355 168.734Z" fill="#EAECF0"/>
<path d="M374.103 176.895H366.597L362.789 170.367L366.597 163.84H374.103L377.911 170.367L374.103 176.895Z" fill="#EAECF0"/>
<path d="M345.707 193.212H338.201L334.502 186.685L338.201 180.266H345.707L349.406 186.685L345.707 193.212Z" fill="#EAECF0"/>
<path d="M1112.46 193.324H1104.96L1101.15 186.688L1104.96 180.16H1112.46L1116.27 186.688L1112.46 193.324Z" fill="#EAECF0"/>
<path d="M1098.33 185.055H1090.71L1086.9 178.528L1090.71 172H1098.33L1102.03 178.528L1098.33 185.055Z" fill="#EAECF0"/>
<path d="M1084.07 176.894H1076.57L1072.76 170.367L1076.57 163.73H1084.07L1087.88 170.367L1084.07 176.894Z" fill="#EAECF0"/>
<path d="M1069.93 168.734H1062.31L1058.5 162.098L1062.31 155.57H1069.93L1073.63 162.098L1069.93 168.734Z" fill="#EAECF0"/>
<path d="M1055.68 160.465H1048.06L1044.36 153.938L1048.06 147.41H1055.68L1059.48 153.938L1055.68 160.465Z" fill="#EAECF0"/>
<path d="M1041.54 152.308H1033.92L1030.11 145.781L1033.92 139.145H1041.54L1045.24 145.781L1041.54 152.308Z" fill="#EAECF0"/>
<path d="M1027.28 144.148H1019.67L1015.97 137.512L1019.67 130.984H1027.28L1031.09 137.512L1027.28 144.148Z" fill="#EAECF0"/>
<path d="M1013.14 135.879H1005.52L1001.72 129.351L1005.52 122.824H1013.14L1016.84 129.351L1013.14 135.879Z" fill="#EAECF0"/>
<path d="M998.887 127.718H991.271L987.572 121.191L991.271 114.555H998.887L1002.69 121.191L998.887 127.718Z" fill="#EAECF0"/>
<path d="M983.01 116.513H978.876L976.809 112.923L978.876 109.441H983.01L984.968 112.923L983.01 116.513Z" fill="#EAECF0"/>
<path d="M967.667 106.288H965.818L964.947 104.765L965.818 103.133H967.667L968.537 104.765L967.667 106.288Z" fill="#EAECF0"/>
<path d="M926.763 84.6394H921.541L918.93 80.1784L921.541 75.6094H926.763L929.265 80.1784L926.763 84.6394Z" fill="#EAECF0"/>
<path d="M600.059 27.1948H595.054L592.443 22.7338L595.054 18.3828H600.059L602.561 22.7338L600.059 27.1948Z" fill="#EAECF0"/>
<path d="M587.115 37.5312H579.5L575.801 31.0032L579.5 24.3672H587.115L590.923 31.0032L587.115 37.5312Z" fill="#EAECF0"/>
<path d="M572.974 45.6956H565.358L561.551 39.1676L565.358 32.6406H572.974L576.673 39.1676L572.974 45.6956Z" fill="#EAECF0"/>
<path d="M558.72 53.9609H551.105L547.406 47.3249L551.105 40.7969H558.72L562.528 47.3249L558.72 53.9609Z" fill="#EAECF0"/>
<path d="M544.47 62.121H536.964L533.156 55.593L536.964 48.957H544.47L548.278 55.593L544.47 62.121Z" fill="#EAECF0"/>
<path d="M530.328 70.2776H522.713L519.014 63.7496L522.713 57.2227H530.328L534.136 63.7496L530.328 70.2776Z" fill="#EAECF0"/>
<path d="M516.076 78.5497H508.569L504.762 71.9137L508.569 65.3867H516.076L519.884 71.9137L516.076 78.5497Z" fill="#EAECF0"/>
<path d="M501.931 86.7034H494.316L490.617 80.1764L494.316 73.6484H501.931L505.739 80.1764L501.931 86.7034Z" fill="#EAECF0"/>
<path d="M487.679 94.8636H480.173L476.365 88.3366L480.173 81.8086H487.679L491.487 88.3366L487.679 94.8636Z" fill="#EAECF0"/>
<path d="M473.538 103.132H465.923L462.115 96.6048L465.923 89.9688H473.538L477.346 96.6048L473.538 103.132Z" fill="#EAECF0"/>
<path d="M459.288 111.184H451.781L448.082 104.766L451.781 98.2383H459.288L462.986 104.766L459.288 111.184Z" fill="#EAECF0"/>
<path d="M442.207 114.336H440.467L439.705 112.922L440.467 111.508H442.207L442.969 112.922L442.207 114.336Z" fill="#EAECF0"/>
<path d="M401.084 141.535H396.406L394.121 137.51L396.406 133.484H401.084L403.368 137.51L401.084 141.535Z" fill="#EAECF0"/>
<path d="M388.355 152.308H380.739L376.932 145.781L380.739 139.145H388.355L392.162 145.781L388.355 152.308Z" fill="#EAECF0"/>
<path d="M374.103 160.465H366.597L362.789 153.938L366.597 147.41H374.103L377.911 153.938L374.103 160.465Z" fill="#EAECF0"/>
<path d="M359.852 168.626H352.344L348.646 162.099L352.344 155.68H359.852L363.659 162.099L359.852 168.626Z" fill="#EAECF0"/>
<path d="M342.772 171.782H341.14L340.27 170.367L341.14 168.844H342.772L343.642 170.367L342.772 171.782Z" fill="#EAECF0"/>
<path d="M329.499 181.572H326.018L324.277 178.526L326.018 175.48H329.499L331.24 178.526L329.499 181.572Z" fill="#EAECF0"/>
<path d="M1140.86 193.324H1133.36L1129.55 186.688L1133.36 180.16H1140.86L1144.67 186.688L1140.86 193.324Z" fill="#EAECF0"/>
<path d="M1126.72 185.055H1119.1L1115.29 178.528L1119.1 172H1126.72L1130.42 178.528L1126.72 185.055Z" fill="#EAECF0"/>
<path d="M1112.46 176.894H1104.96L1101.15 170.367L1104.96 163.73H1112.46L1116.27 170.367L1112.46 176.894Z" fill="#EAECF0"/>
<path d="M1098.33 168.734H1090.71L1086.9 162.098L1090.71 155.57H1098.33L1102.03 162.098L1098.33 168.734Z" fill="#EAECF0"/>
<path d="M1084.07 160.465H1076.57L1072.76 153.938L1076.57 147.41H1084.07L1087.88 153.938L1084.07 160.465Z" fill="#EAECF0"/>
<path d="M1069.93 152.308H1062.31L1058.5 145.781L1062.31 139.145H1069.93L1073.63 145.781L1069.93 152.308Z" fill="#EAECF0"/>
<path d="M1055.68 144.148H1048.06L1044.36 137.512L1048.06 130.984H1055.68L1059.48 137.512L1055.68 144.148Z" fill="#EAECF0"/>
<path d="M1041.54 135.879H1033.92L1030.11 129.351L1033.92 122.824H1041.54L1045.24 129.351L1041.54 135.879Z" fill="#EAECF0"/>
<path d="M1027.28 127.718H1019.67L1015.97 121.191L1019.67 114.555H1027.28L1031.09 121.191L1027.28 127.718Z" fill="#EAECF0"/>
<path d="M1012.93 119.342H1005.64L1001.94 112.923L1005.64 106.613H1012.93L1016.63 112.923L1012.93 119.342Z" fill="#EAECF0"/>
<path d="M996.93 107.811H993.34L991.49 104.765L993.34 101.719H996.93L998.67 104.765L996.93 107.811Z" fill="#EAECF0"/>
<path d="M941.661 77.6769H935.025L931.652 71.9119L935.025 66.2539H941.661L944.925 71.9119L941.661 77.6769Z" fill="#EAECF0"/>
<path d="M600.062 10.8774H594.949L592.338 6.41695L594.949 1.84766H600.062L602.673 6.41695L600.062 10.8774Z" fill="#EAECF0"/>
<path d="M586.788 20.5605H579.934L576.453 14.5776L579.934 8.59375H586.788L590.161 14.5776L586.788 20.5605Z" fill="#EAECF0"/>
<path d="M570.795 25.6758H567.423L565.791 22.7378L567.423 19.8008H570.795L572.536 22.7378L570.795 25.6758Z" fill="#EAECF0"/>
<path d="M558.72 37.5312H551.105L547.406 31.0032L551.105 24.3672H558.72L562.528 31.0032L558.72 37.5312Z" fill="#EAECF0"/>
<path d="M544.47 45.6956H536.964L533.156 39.1676L536.964 32.6406H544.47L548.278 39.1676L544.47 45.6956Z" fill="#EAECF0"/>
<path d="M530.328 53.9609H522.713L519.014 47.3249L522.713 40.7969H530.328L534.136 47.3249L530.328 53.9609Z" fill="#EAECF0"/>
<path d="M516.076 62.121H508.569L504.762 55.593L508.569 48.957H516.076L519.884 55.593L516.076 62.121Z" fill="#EAECF0"/>
<path d="M501.931 70.2776H494.316L490.617 63.7496L494.316 57.2227H501.931L505.739 63.7496L501.931 70.2776Z" fill="#EAECF0"/>
<path d="M487.679 78.5497H480.173L476.365 71.9137L480.173 65.3867H487.679L491.487 71.9137L487.679 78.5497Z" fill="#EAECF0"/>
<path d="M473.538 86.7034H465.923L462.115 80.1764L465.923 73.6484H473.538L477.346 80.1764L473.538 86.7034Z" fill="#EAECF0"/>
<path d="M459.287 94.8636H451.78L447.973 88.3366L451.78 81.8086H459.287L463.095 88.3366L459.287 94.8636Z" fill="#EAECF0"/>
<path d="M442.751 99.0015H439.922L438.508 96.6085L439.922 94.1055H442.751L444.165 96.6085L442.751 99.0015Z" fill="#EAECF0"/>
<path d="M388.355 135.879H380.739L376.932 129.351L380.739 122.824H388.355L392.162 129.351L388.355 135.879Z" fill="#EAECF0"/>
<path d="M373.884 143.711H366.813L363.223 137.51L366.813 131.309H373.884L377.474 137.51L373.884 143.711Z" fill="#EAECF0"/>
<path d="M316.443 175.368H310.678L307.74 170.363L310.678 165.359H316.443L319.381 170.363L316.443 175.368Z" fill="#EAECF0"/>
<path d="M1155.11 185.055H1147.49L1143.68 178.528L1147.49 172H1155.11L1158.92 178.528L1155.11 185.055Z" fill="#EAECF0"/>
<path d="M1140.86 176.894H1133.36L1129.55 170.367L1133.36 163.73H1140.86L1144.67 170.367L1140.86 176.894Z" fill="#EAECF0"/>
<path d="M1126.72 168.734H1119.1L1115.29 162.098L1119.1 155.57H1126.72L1130.42 162.098L1126.72 168.734Z" fill="#EAECF0"/>
<path d="M1112.46 160.465H1104.96L1101.15 153.938L1104.96 147.41H1112.46L1116.27 153.938L1112.46 160.465Z" fill="#EAECF0"/>
<path d="M1098.33 152.308H1090.71L1086.9 145.781L1090.71 139.145H1098.33L1102.03 145.781L1098.33 152.308Z" fill="#EAECF0"/>
<path d="M1084.07 144.148H1076.57L1072.76 137.512L1076.57 130.984H1084.07L1087.88 137.512L1084.07 144.148Z" fill="#EAECF0"/>
<path d="M1069.93 135.879H1062.31L1058.5 129.351L1062.31 122.824H1069.93L1073.63 129.351L1069.93 135.879Z" fill="#EAECF0"/>
<path d="M1055.68 127.718H1048.06L1044.36 121.191L1048.06 114.555H1055.68L1059.48 121.191L1055.68 127.718Z" fill="#EAECF0"/>
<path d="M1041.54 119.559H1033.92L1030.11 112.922L1033.92 106.395H1041.54L1045.24 112.922L1041.54 119.559Z" fill="#EAECF0"/>
<path d="M1027.28 111.293H1019.67L1015.97 104.766L1019.67 98.2383H1027.28L1031.09 104.766L1027.28 111.293Z" fill="#EAECF0"/>
<path d="M1012.06 101.285H1006.62L1003.9 96.6073L1006.62 91.8203H1012.06L1014.78 96.6073L1012.06 101.285Z" fill="#EAECF0"/>
<path d="M911.316 41.5565H908.487L907.182 39.1635L908.487 36.7695H911.316L912.73 39.1635L911.316 41.5565Z" fill="#EAECF0"/>
<path d="M572.753 12.729H565.464L561.766 6.4187L565.464 0H572.753L576.452 6.4187L572.753 12.729Z" fill="#EAECF0"/>
<path d="M558.501 20.7809H551.321L547.73 14.5799L551.321 8.37891H558.501L562.091 14.5799L558.501 20.7809Z" fill="#EAECF0"/>
<path d="M544.47 29.3749H536.964L533.156 22.7389L536.964 16.2109H544.47L548.278 22.7389L544.47 29.3749Z" fill="#EAECF0"/>
<path d="M530.328 37.5312H522.713L519.014 31.0032L522.713 24.3672H530.328L534.136 31.0032L530.328 37.5312Z" fill="#EAECF0"/>
<path d="M516.076 45.6956H508.569L504.762 39.1676L508.569 32.6406H516.076L519.884 39.1676L516.076 45.6956Z" fill="#EAECF0"/>
<path d="M501.931 53.9609H494.316L490.617 47.3249L494.316 40.7969H501.931L505.739 47.3249L501.931 53.9609Z" fill="#EAECF0"/>
<path d="M487.679 62.121H480.173L476.365 55.593L480.173 48.957H487.679L491.487 55.593L487.679 62.121Z" fill="#EAECF0"/>
<path d="M473.538 70.2776H465.923L462.115 63.7496L465.923 57.2227H473.538L477.346 63.7496L473.538 70.2776Z" fill="#EAECF0"/>
<path d="M459.287 78.5497H451.78L447.973 71.9137L451.78 65.3867H459.287L463.095 71.9137L459.287 78.5497Z" fill="#EAECF0"/>
<path d="M445.035 86.4897H437.637L434.047 80.1797L437.637 73.7617H445.035L448.625 80.1797L445.035 86.4897Z" fill="#EAECF0"/>
<path d="M386.722 116.733H382.371L380.086 112.925L382.371 109.117H386.722L389.007 112.925L386.722 116.733Z" fill="#EAECF0"/>
<path d="M374.103 127.718H366.597L362.789 121.191L366.597 114.555H374.103L377.911 121.191L374.103 127.718Z" fill="#EAECF0"/>
<path d="M358.98 134.244H353.323L350.494 129.349L353.323 124.453H358.98L361.808 129.349L358.98 134.244Z" fill="#EAECF0"/>
<path d="M331.569 152.308H323.953L320.146 145.781L323.953 139.145H331.569L335.376 145.781L331.569 152.308Z" fill="#EAECF0"/>
<path d="M317.203 160.14H309.914L306.324 153.939L309.914 147.738H317.203L320.793 153.939L317.203 160.14Z" fill="#EAECF0"/>
<path d="M303.173 168.734H295.558L291.75 162.098L295.558 155.57H303.173L306.872 162.098L303.173 168.734Z" fill="#EAECF0"/>
<path d="M288.919 176.894H281.411L277.604 170.367L281.411 163.73H288.919L292.726 170.367L288.919 176.894Z" fill="#EAECF0"/>
<path d="M274.778 185.055H267.161L263.354 178.528L267.161 172H274.778L278.476 178.528L274.778 185.055Z" fill="#EAECF0"/>
<path d="M1169.25 193.324H1161.75L1157.94 186.688L1161.75 180.16H1169.25L1173.06 186.688L1169.25 193.324Z" fill="#EAECF0"/>
<path d="M1169.25 176.894H1161.75L1157.94 170.367L1161.75 163.73H1169.25L1173.06 170.367L1169.25 176.894Z" fill="#EAECF0"/>
<path d="M1155.11 168.734H1147.49L1143.68 162.098L1147.49 155.57H1155.11L1158.92 162.098L1155.11 168.734Z" fill="#EAECF0"/>
<path d="M1140.86 160.465H1133.36L1129.55 153.938L1133.36 147.41H1140.86L1144.67 153.938L1140.86 160.465Z" fill="#EAECF0"/>
<path d="M1126.72 152.308H1119.1L1115.29 145.781L1119.1 139.145H1126.72L1130.42 145.781L1126.72 152.308Z" fill="#EAECF0"/>
<path d="M1112.46 144.148H1104.96L1101.15 137.512L1104.96 130.984H1112.46L1116.27 137.512L1112.46 144.148Z" fill="#EAECF0"/>
<path d="M1098.33 135.879H1090.71L1086.9 129.351L1090.71 122.824H1098.33L1102.03 129.351L1098.33 135.879Z" fill="#EAECF0"/>
<path d="M1084.07 127.718H1076.57L1072.76 121.191L1076.57 114.555H1084.07L1087.88 121.191L1084.07 127.718Z" fill="#EAECF0"/>
<path d="M1069.93 119.559H1062.31L1058.5 112.922L1062.31 106.395H1069.93L1073.63 112.922L1069.93 119.559Z" fill="#EAECF0"/>
<path d="M1055.68 111.293H1048.06L1044.36 104.766L1048.06 98.2383H1055.68L1059.48 104.766L1055.68 111.293Z" fill="#EAECF0"/>
<path d="M1041.54 103.132H1033.92L1030.11 96.6048L1033.92 89.9688H1041.54L1045.24 96.6048L1041.54 103.132Z" fill="#EAECF0"/>
<path d="M1027.17 94.7563H1019.77L1016.18 88.3374L1019.77 82.0273H1027.17L1030.87 88.3374L1027.17 94.7563Z" fill="#EAECF0"/>
<path d="M544.472 12.729H537.074L533.375 6.4187L537.074 0H544.472L548.062 6.4187L544.472 12.729Z" fill="#EAECF0"/>
<path d="M530.328 21.106H522.713L519.014 14.578L522.713 8.05078H530.328L534.136 14.578L530.328 21.106Z" fill="#EAECF0"/>
<path d="M516.076 29.3749H508.569L504.762 22.7389L508.569 16.2109H516.076L519.884 22.7389L516.076 29.3749Z" fill="#EAECF0"/>
<path d="M501.931 37.5312H494.316L490.617 31.0032L494.316 24.3672H501.931L505.739 31.0032L501.931 37.5312Z" fill="#EAECF0"/>
<path d="M487.679 45.6956H480.173L476.365 39.1676L480.173 32.6406H487.679L491.487 39.1676L487.679 45.6956Z" fill="#EAECF0"/>
<path d="M473.538 53.9609H465.923L462.115 47.3249L465.923 40.7969H473.538L477.346 47.3249L473.538 53.9609Z" fill="#EAECF0"/>
<path d="M459.287 62.121H451.78L447.973 55.593L451.78 48.957H459.287L463.095 55.593L459.287 62.121Z" fill="#EAECF0"/>
<path d="M445.146 70.2776H437.53L433.723 63.7496L437.53 57.2227H445.146L448.953 63.7496L445.146 70.2776Z" fill="#EAECF0"/>
<path d="M430.892 78.5497H423.386L419.578 71.9137L423.386 65.3867H430.892L434.7 71.9137L430.892 78.5497Z" fill="#EAECF0"/>
<path d="M414.356 82.6808H411.528L410.113 80.1778L411.528 77.6758H414.356L415.77 80.1778L414.356 82.6808Z" fill="#EAECF0"/>
<path d="M371.059 105.964H369.644L368.883 104.767L369.644 103.461H371.059L371.82 104.767L371.059 105.964Z" fill="#EAECF0"/>
<path d="M359.958 119.559H352.343L348.535 112.922L352.343 106.395H359.958L363.766 112.922L359.958 119.559Z" fill="#EAECF0"/>
<path d="M345.71 127.718H338.203L334.396 121.191L338.203 114.555H345.71L349.517 121.191L345.71 127.718Z" fill="#EAECF0"/>
<path d="M330.694 134.464H324.82L321.773 129.351L324.82 124.238H330.694L333.74 129.351L330.694 134.464Z" fill="#EAECF0"/>
<path d="M315.682 141.318H311.33L309.154 137.51L311.33 133.812H315.682L317.966 137.51L315.682 141.318Z" fill="#EAECF0"/>
<path d="M303.173 152.308H295.558L291.75 145.781L295.558 139.145H303.173L306.872 145.781L303.173 152.308Z" fill="#EAECF0"/>
<path d="M288.919 160.465H281.411L277.604 153.938L281.411 147.41H288.919L292.726 153.938L288.919 160.465Z" fill="#EAECF0"/>
<path d="M274.778 168.734H267.161L263.354 162.098L267.161 155.57H274.778L278.476 162.098L274.778 168.734Z" fill="#EAECF0"/>
<path d="M260.525 176.894H253.019L249.211 170.367L253.019 163.73H260.525L264.333 170.367L260.525 176.894Z" fill="#EAECF0"/>
<path d="M260.525 193.324H253.019L249.211 186.688L253.019 180.16H260.525L264.333 186.688L260.525 193.324Z" fill="#EAECF0"/>
<path d="M1183.51 185.055H1175.89L1172.08 178.528L1175.89 172H1183.51L1187.31 178.528L1183.51 185.055Z" fill="#EAECF0"/>
<path d="M1183.51 168.734H1175.89L1172.08 162.098L1175.89 155.57H1183.51L1187.31 162.098L1183.51 168.734Z" fill="#EAECF0"/>
<path d="M1169.25 160.465H1161.75L1157.94 153.938L1161.75 147.41H1169.25L1173.06 153.938L1169.25 160.465Z" fill="#EAECF0"/>
<path d="M1155.11 152.308H1147.49L1143.68 145.781L1147.49 139.145H1155.11L1158.92 145.781L1155.11 152.308Z" fill="#EAECF0"/>
<path d="M1140.86 144.148H1133.36L1129.55 137.512L1133.36 130.984H1140.86L1144.67 137.512L1140.86 144.148Z" fill="#EAECF0"/>
<path d="M1126.72 135.879H1119.1L1115.29 129.351L1119.1 122.824H1126.72L1130.42 129.351L1126.72 135.879Z" fill="#EAECF0"/>
<path d="M1112.46 127.718H1104.96L1101.15 121.191L1104.96 114.555H1112.46L1116.27 121.191L1112.46 127.718Z" fill="#EAECF0"/>
<path d="M1098.33 119.559H1090.71L1086.9 112.922L1090.71 106.395H1098.33L1102.03 112.922L1098.33 119.559Z" fill="#EAECF0"/>
<path d="M1084.07 111.293H1076.57L1072.76 104.766L1076.57 98.2383H1084.07L1087.88 104.766L1084.07 111.293Z" fill="#EAECF0"/>
<path d="M1069.93 103.132H1062.31L1058.5 96.6048L1062.31 89.9688H1069.93L1073.63 96.6048L1069.93 103.132Z" fill="#EAECF0"/>
<path d="M1055.68 94.8636H1048.06L1044.36 88.3366L1048.06 81.8086H1055.68L1059.48 88.3366L1055.68 94.8636Z" fill="#EAECF0"/>
<path d="M1039.68 83.5493H1035.66L1033.7 80.1773L1035.66 76.6953H1039.68L1041.64 80.1773L1039.68 83.5493Z" fill="#EAECF0"/>
<path d="M515.424 11.6386H509.331L506.285 6.41674L509.331 1.08594H515.424L518.47 6.41674L515.424 11.6386Z" fill="#EAECF0"/>
<path d="M501.172 19.7991H495.189L492.143 14.5771L495.189 9.35547H501.172L504.11 14.5771L501.172 19.7991Z" fill="#EAECF0"/>
<path d="M486.811 27.8524H481.045L478.107 22.7394L481.045 17.7344H486.811L489.748 22.7394L486.811 27.8524Z" fill="#EAECF0"/>
<path d="M473.538 37.5312H465.923L462.115 31.0032L465.923 24.3672H473.538L477.346 31.0032L473.538 37.5312Z" fill="#EAECF0"/>
<path d="M459.287 45.6956H451.78L447.973 39.1676L451.78 32.6406H459.287L463.095 39.1676L459.287 45.6956Z" fill="#EAECF0"/>
<path d="M445.146 53.9609H437.53L433.723 47.3249L437.53 40.7969H445.146L448.953 47.3249L445.146 53.9609Z" fill="#EAECF0"/>
<path d="M430.892 62.121H423.386L419.578 55.593L423.386 48.957H430.892L434.7 55.593L430.892 62.121Z" fill="#EAECF0"/>
<path d="M414.681 66.8004H411.2L409.459 63.7544L411.2 60.8164H414.681L416.422 63.7544L414.681 66.8004Z" fill="#EAECF0"/>
<path d="M402.281 78.1094H395.209L391.619 71.9084L395.209 65.8164H402.281L405.871 71.9084L402.281 78.1094Z" fill="#EAECF0"/>
<path d="M345.6 111.076H338.311L334.721 104.766L338.311 98.457H345.6L349.19 104.766L345.6 111.076Z" fill="#EAECF0"/>
<path d="M331.569 119.559H323.953L320.146 112.922L323.953 106.395H331.569L335.376 112.922L331.569 119.559Z" fill="#EAECF0"/>
<path d="M317.314 127.718H309.808L306 121.191L309.808 114.555H317.314L321.122 121.191L317.314 127.718Z" fill="#EAECF0"/>
<path d="M303.17 135.879H295.554L291.855 129.351L295.554 122.824H303.17L306.869 129.351L303.17 135.879Z" fill="#EAECF0"/>
<path d="M288.594 143.387H281.74L278.367 137.512L281.74 131.637H288.594L291.966 137.512L288.594 143.387Z" fill="#EAECF0"/>
<path d="M274.778 152.308H267.161L263.354 145.781L267.161 139.145H274.778L278.476 145.781L274.778 152.308Z" fill="#EAECF0"/>
<path d="M260.525 160.465H253.019L249.211 153.938L253.019 147.41H260.525L264.333 153.938L260.525 160.465Z" fill="#EAECF0"/>
<path d="M246.384 168.734H238.769L234.961 162.098L238.769 155.57H246.384L250.083 162.098L246.384 168.734Z" fill="#EAECF0"/>
<path d="M246.384 185.055H238.769L234.961 178.528L238.769 172H246.384L250.083 178.528L246.384 185.055Z" fill="#EAECF0"/>
<path d="M1197.65 193.324H1190.14L1186.33 186.688L1190.14 180.16H1197.65L1201.45 186.688L1197.65 193.324Z" fill="#EAECF0"/>
<path d="M1197.65 176.894H1190.14L1186.33 170.367L1190.14 163.73H1197.65L1201.45 170.367L1197.65 176.894Z" fill="#EAECF0"/>
<path d="M1197.65 160.465H1190.14L1186.33 153.938L1190.14 147.41H1197.65L1201.45 153.938L1197.65 160.465Z" fill="#EAECF0"/>
<path d="M1183.51 152.308H1175.89L1172.08 145.781L1175.89 139.145H1183.51L1187.31 145.781L1183.51 152.308Z" fill="#EAECF0"/>
<path d="M1169.25 144.148H1161.75L1157.94 137.512L1161.75 130.984H1169.25L1173.06 137.512L1169.25 144.148Z" fill="#EAECF0"/>
<path d="M1155.11 135.879H1147.49L1143.68 129.351L1147.49 122.824H1155.11L1158.92 129.351L1155.11 135.879Z" fill="#EAECF0"/>
<path d="M1140.86 127.718H1133.36L1129.55 121.191L1133.36 114.555H1140.86L1144.67 121.191L1140.86 127.718Z" fill="#EAECF0"/>
<path d="M1126.72 119.559H1119.1L1115.29 112.922L1119.1 106.395H1126.72L1130.42 112.922L1126.72 119.559Z" fill="#EAECF0"/>
<path d="M1112.46 111.293H1104.96L1101.15 104.766L1104.96 98.2383H1112.46L1116.27 104.766L1112.46 111.293Z" fill="#EAECF0"/>
<path d="M1098.33 103.132H1090.71L1086.9 96.6048L1090.71 89.9688H1098.33L1102.03 96.6048L1098.33 103.132Z" fill="#EAECF0"/>
<path d="M1084.07 94.8636H1076.57L1072.76 88.3366L1076.57 81.8086H1084.07L1087.88 88.3366L1084.07 94.8636Z" fill="#EAECF0"/>
<path d="M1069.82 86.5944H1062.32L1058.62 80.1764L1062.32 73.6484H1069.82L1073.63 80.1764L1069.82 86.5944Z" fill="#EAECF0"/>
<path d="M1052.96 73.7615H1050.78L1049.8 71.9115L1050.78 70.0625H1052.96L1054.05 71.9115L1052.96 73.7615Z" fill="#EAECF0"/>
<path d="M458.308 27.5226H452.868L450.148 22.7366L452.868 18.0586H458.308L461.027 22.7366L458.308 27.5226Z" fill="#EAECF0"/>
<path d="M444.927 37.2067H437.746L434.156 31.0057L437.746 24.8047H444.927L448.517 31.0057L444.927 37.2067Z" fill="#EAECF0"/>
<path d="M430.892 45.6956H423.386L419.578 39.1676L423.386 32.6406H430.892L434.7 39.1676L430.892 45.6956Z" fill="#EAECF0"/>
<path d="M414.139 49.4969H411.746L410.549 47.3209L411.746 45.2539H414.139L415.336 47.3209L414.139 49.4969Z" fill="#EAECF0"/>
<path d="M401.408 60.2701H396.077L393.357 55.5921L396.077 50.9141H401.408L404.128 55.5921L401.408 60.2701Z" fill="#EAECF0"/>
<path d="M359.087 85.1844H353.213L350.275 80.1804L353.213 75.0664H359.087L361.916 80.1804L359.087 85.1844Z" fill="#EAECF0"/>
<path d="M345.275 93.9976H338.639L335.375 88.3406L338.639 82.6836H345.275L348.539 88.3406L345.275 93.9976Z" fill="#EAECF0"/>
<path d="M330.043 100.632H325.365L323.08 96.6067L325.365 92.4727H330.043L332.436 96.6067L330.043 100.632Z" fill="#EAECF0"/>
<path d="M317.207 111.076H309.918L306.219 104.766L309.918 98.457H317.207L320.906 104.766L317.207 111.076Z" fill="#EAECF0"/>
<path d="M288.812 127.503H281.523L277.824 121.193L281.523 114.883H288.812L292.402 121.193L288.812 127.503Z" fill="#EAECF0"/>
<path d="M257.914 139.468H255.629L254.541 137.51L255.629 135.66H257.914L259.001 137.51L257.914 139.468Z" fill="#EAECF0"/>
<path d="M246.384 152.308H238.769L234.961 145.781L238.769 139.145H246.384L250.083 145.781L246.384 152.308Z" fill="#EAECF0"/>
<path d="M232.131 160.465H224.515L220.816 153.938L224.515 147.41H232.131L235.938 153.938L232.131 160.465Z" fill="#EAECF0"/>
<path d="M232.131 176.894H224.515L220.816 170.367L224.515 163.73H232.131L235.938 170.367L232.131 176.894Z" fill="#EAECF0"/>
<path d="M232.131 193.324H224.515L220.816 186.688L224.515 180.16H232.131L235.938 186.688L232.131 193.324Z" fill="#EAECF0"/>
<path d="M1211.9 185.055H1204.28L1200.48 178.528L1204.28 172H1211.9L1215.71 178.528L1211.9 185.055Z" fill="#EAECF0"/>
<path d="M1211.9 168.734H1204.28L1200.48 162.098L1204.28 155.57H1211.9L1215.71 162.098L1211.9 168.734Z" fill="#EAECF0"/>
<path d="M1211.9 152.308H1204.28L1200.48 145.781L1204.28 139.145H1211.9L1215.71 145.781L1211.9 152.308Z" fill="#EAECF0"/>
<path d="M1197.65 144.148H1190.14L1186.33 137.512L1190.14 130.984H1197.65L1201.45 137.512L1197.65 144.148Z" fill="#EAECF0"/>
<path d="M1183.51 135.879H1175.89L1172.08 129.351L1175.89 122.824H1183.51L1187.31 129.351L1183.51 135.879Z" fill="#EAECF0"/>
<path d="M1169.25 127.718H1161.75L1157.94 121.191L1161.75 114.555H1169.25L1173.06 121.191L1169.25 127.718Z" fill="#EAECF0"/>
<path d="M1155.11 119.559H1147.49L1143.68 112.922L1147.49 106.395H1155.11L1158.92 112.922L1155.11 119.559Z" fill="#EAECF0"/>
<path d="M1140.86 111.293H1133.36L1129.55 104.766L1133.36 98.2383H1140.86L1144.67 104.766L1140.86 111.293Z" fill="#EAECF0"/>
<path d="M1126.61 103.024H1119.21L1115.51 96.6051L1119.21 90.0781H1126.61L1130.3 96.6051L1126.61 103.024Z" fill="#EAECF0"/>
<path d="M1112.47 94.8689H1104.96L1101.26 88.3409L1104.96 81.9219H1112.47L1116.17 88.3409L1112.47 94.8689Z" fill="#EAECF0"/>
<path d="M1098.33 86.7034H1090.71L1086.9 80.1764L1090.71 73.6484H1098.33L1102.03 80.1764L1098.33 86.7034Z" fill="#EAECF0"/>
<path d="M1084.07 78.5497H1076.57L1072.76 71.9137L1076.57 65.3867H1084.07L1087.88 71.9137L1084.07 78.5497Z" fill="#EAECF0"/>
<path d="M1040.44 52.1121H1034.9L1032.18 47.3251L1034.9 42.5391H1040.44L1043.27 47.3251L1040.44 52.1121Z" fill="#EAECF0"/>
<path d="M1025.33 42.2092H1021.74L1019.89 39.1632L1021.74 36.1172H1025.33L1027.07 39.1632L1025.33 42.2092Z" fill="#EAECF0"/>
<path d="M429.803 27.3063H424.581L421.861 22.7373L424.581 18.2773H429.803L432.414 22.7373L429.803 27.3063Z" fill="#EAECF0"/>
<path d="M415.012 34.5976H410.878L408.811 31.0076L410.878 27.3086H415.012L417.187 31.0076L415.012 34.5976Z" fill="#EAECF0"/>
<path d="M402.063 44.9304H395.427L392.055 39.1644L395.427 33.3984H402.063L405.436 39.1644L402.063 44.9304Z" fill="#EAECF0"/>
<path d="M386.831 51.2396H382.262L380.086 47.3236L382.262 43.5156H386.831L389.007 47.3236L386.831 51.2396Z" fill="#EAECF0"/>
<path d="M373.994 61.7923H366.705L363.115 55.5912L366.705 49.2812H373.994L377.584 55.5912L373.994 61.7923Z" fill="#EAECF0"/>
<path d="M359.958 70.2776H352.343L348.535 63.7496L352.343 57.2227H359.958L363.766 63.7496L359.958 70.2776Z" fill="#EAECF0"/>
<path d="M345.71 78.5497H338.203L334.396 71.9137L338.203 65.3867H345.71L349.517 71.9137L345.71 78.5497Z" fill="#EAECF0"/>
<path d="M329.39 82.897H326.127L324.604 80.177L326.127 77.457H329.39L330.913 80.177L329.39 82.897Z" fill="#EAECF0"/>
<path d="M315.354 91.4926H311.655L309.914 88.3376L311.655 85.1836H315.354L317.203 88.3376L315.354 91.4926Z" fill="#EAECF0"/>
<path d="M272.712 116.08H269.122L267.381 112.925L269.122 109.879H272.712L274.561 112.925L272.712 116.08Z" fill="#EAECF0"/>
<path d="M259.002 125.11H254.433L252.148 121.193L254.433 117.168H259.002L261.287 121.193L259.002 125.11Z" fill="#EAECF0"/>
<path d="M244.857 133.378H240.179L237.895 129.353L240.179 125.328H244.857L247.251 129.353L244.857 133.378Z" fill="#EAECF0"/>
<path d="M229.413 139.359H227.237L226.258 137.51L227.237 135.66H229.413L230.501 137.51L229.413 139.359Z" fill="#EAECF0"/>
<path d="M217.987 152.308H210.372L206.564 145.781L210.372 139.145H217.987L221.686 145.781L217.987 152.308Z" fill="#EAECF0"/>
<path d="M217.987 168.734H210.372L206.564 162.098L210.372 155.57H217.987L221.686 162.098L217.987 168.734Z" fill="#EAECF0"/>
<path d="M217.987 185.055H210.372L206.564 178.528L210.372 172H217.987L221.686 178.528L217.987 185.055Z" fill="#EAECF0"/>
<path d="M1226.04 193.324H1218.54L1214.73 186.688L1218.54 180.16H1226.04L1229.85 186.688L1226.04 193.324Z" fill="#EAECF0"/>
<path d="M1226.04 176.894H1218.54L1214.73 170.367L1218.54 163.73H1226.04L1229.85 170.367L1226.04 176.894Z" fill="#EAECF0"/>
<path d="M1226.04 160.465H1218.54L1214.73 153.938L1218.54 147.41H1226.04L1229.85 153.938L1226.04 160.465Z" fill="#EAECF0"/>
<path d="M1226.04 144.148H1218.54L1214.73 137.512L1218.54 130.984H1226.04L1229.85 137.512L1226.04 144.148Z" fill="#EAECF0"/>
<path d="M1211.9 135.879H1204.28L1200.48 129.351L1204.28 122.824H1211.9L1215.71 129.351L1211.9 135.879Z" fill="#EAECF0"/>
<path d="M1197.65 127.718H1190.14L1186.33 121.191L1190.14 114.555H1197.65L1201.45 121.191L1197.65 127.718Z" fill="#EAECF0"/>
<path d="M1183.51 119.559H1175.89L1172.08 112.922L1175.89 106.395H1183.51L1187.31 112.922L1183.51 119.559Z" fill="#EAECF0"/>
<path d="M1169.25 111.293H1161.75L1157.94 104.766L1161.75 98.2383H1169.25L1172.95 104.766L1169.25 111.293Z" fill="#EAECF0"/>
<path d="M1152.93 99.434H1149.56L1147.93 96.606L1149.56 93.668H1152.93L1154.67 96.606L1152.93 99.434Z" fill="#EAECF0"/>
<path d="M1124.65 83.1158H1121.17L1119.43 80.1788L1121.17 77.1328H1124.65L1126.39 80.1788L1124.65 83.1158Z" fill="#EAECF0"/>
<path d="M1112.46 78.4382H1104.96L1101.15 71.9102L1104.96 65.4922H1112.46L1116.16 71.9102L1112.46 78.4382Z" fill="#EAECF0"/>
<path d="M1053.72 42.2092H1050.13L1048.39 39.1632L1050.13 36.1172H1053.72L1055.46 39.1632L1053.72 42.2092Z" fill="#EAECF0"/>
<path d="M415.553 19.146H410.331L407.611 14.577L410.331 10.0078H415.553L418.273 14.577L415.553 19.146Z" fill="#EAECF0"/>
<path d="M402.498 29.3749H394.991L391.184 22.7389L394.991 16.2109H402.498L406.306 22.7389L402.498 29.3749Z" fill="#EAECF0"/>
<path d="M388.355 37.5312H380.739L376.932 31.0032L380.739 24.3672H388.355L392.162 31.0032L388.355 37.5312Z" fill="#EAECF0"/>
<path d="M374.103 45.6956H366.597L362.789 39.1676L366.597 32.6406H374.103L377.911 39.1676L374.103 45.6956Z" fill="#EAECF0"/>
<path d="M359.958 53.9609H352.343L348.535 47.3249L352.343 40.7969H359.958L363.766 47.3249L359.958 53.9609Z" fill="#EAECF0"/>
<path d="M345.71 62.121H338.203L334.396 55.593L338.203 48.957H345.71L349.517 55.593L345.71 62.121Z" fill="#EAECF0"/>
<path d="M331.022 69.4077H324.494L321.23 63.7507L324.494 58.0938H331.022L334.285 63.7507L331.022 69.4077Z" fill="#EAECF0"/>
<path d="M316.551 77.2405H310.568L307.521 71.9095L310.568 66.6875H316.551L319.597 71.9095L316.551 77.2405Z" fill="#EAECF0"/>
<path d="M300.342 81.8109H298.383L297.404 80.1789L298.383 78.5469H300.342L301.212 80.1789L300.342 81.8109Z" fill="#EAECF0"/>
<path d="M274.778 103.132H267.161L263.354 96.6048L267.161 89.9688H274.778L278.476 96.6048L274.778 103.132Z" fill="#EAECF0"/>
<path d="M258.021 106.833H255.519L254.322 104.766L255.519 102.59H258.021L259.218 104.766L258.021 106.833Z" fill="#EAECF0"/>
<path d="M246.384 119.559H238.769L234.961 112.922L238.769 106.395H246.384L250.083 112.922L246.384 119.559Z" fill="#EAECF0"/>
<path d="M232.131 127.718H224.515L220.816 121.191L224.515 114.555H232.131L235.938 121.191L232.131 127.718Z" fill="#EAECF0"/>
<path d="M217.444 134.897H210.916L207.652 129.348L210.916 123.691H217.444L220.598 129.348L217.444 134.897Z" fill="#EAECF0"/>
<path d="M203.409 143.494H196.556L193.074 137.51L196.556 131.527H203.409L206.891 137.51L203.409 143.494Z" fill="#EAECF0"/>
<path d="M203.736 160.465H196.121L192.422 153.938L196.121 147.41H203.736L207.544 153.938L203.736 160.465Z" fill="#EAECF0"/>
<path d="M203.736 176.894H196.121L192.422 170.367L196.121 163.73H203.736L207.544 170.367L203.736 176.894Z" fill="#EAECF0"/>
<path d="M203.736 193.324H196.121L192.422 186.688L196.121 180.16H203.736L207.544 186.688L203.736 193.324Z" fill="#EAECF0"/>
<path d="M1240.3 185.055H1232.68L1228.87 178.528L1232.68 172H1240.3L1244.1 178.528L1240.3 185.055Z" fill="#EAECF0"/>
<path d="M1240.3 168.734H1232.68L1228.87 162.098L1232.68 155.57H1240.3L1244.1 162.098L1240.3 168.734Z" fill="#EAECF0"/>
<path d="M1240.3 152.308H1232.68L1228.87 145.781L1232.68 139.145H1240.3L1244.1 145.781L1240.3 152.308Z" fill="#EAECF0"/>
<path d="M1240.3 135.879H1232.68L1228.87 129.351L1232.68 122.824H1240.3L1244.1 129.351L1240.3 135.879Z" fill="#EAECF0"/>
<path d="M1226.04 127.718H1218.54L1214.73 121.191L1218.54 114.555H1226.04L1229.85 121.191L1226.04 127.718Z" fill="#EAECF0"/>
<path d="M1211.9 119.559H1204.28L1200.48 112.922L1204.28 106.395H1211.9L1215.71 112.922L1211.9 119.559Z" fill="#EAECF0"/>
<path d="M1196.02 108.356H1191.78L1189.71 104.766L1191.78 101.176H1196.02L1198.09 104.766L1196.02 108.356Z" fill="#EAECF0"/>
<path d="M387.484 19.6914H381.609L378.562 14.5784L381.609 9.46484H387.484L390.53 14.5784L387.484 19.6914Z" fill="#EAECF0"/>
<path d="M374.103 29.3749H366.597L362.789 22.7389L366.597 16.2109H374.103L377.911 22.7389L374.103 29.3749Z" fill="#EAECF0"/>
<path d="M359.958 37.5312H352.343L348.535 31.0032L352.343 24.3672H359.958L363.766 31.0032L359.958 37.5312Z" fill="#EAECF0"/>
<path d="M345.71 45.6956H338.203L334.396 39.1676L338.203 32.6406H345.71L349.517 39.1676L345.71 45.6956Z" fill="#EAECF0"/>
<path d="M330.044 51.2396H325.475L323.299 47.3236L325.475 43.5156H330.044L332.22 47.3236L330.044 51.2396Z" fill="#EAECF0"/>
<path d="M316.551 60.8112H310.568L307.521 55.5892L310.568 50.3672H316.551L319.597 55.5892L316.551 60.8112Z" fill="#EAECF0"/>
<path d="M286.2 73.758H284.133L283.154 71.909L284.133 70.168H286.2L287.18 71.909L286.2 73.758Z" fill="#EAECF0"/>
<path d="M274.126 85.6169H267.816L264.553 80.1779L267.816 74.6289H274.126L277.281 80.1779L274.126 85.6169Z" fill="#EAECF0"/>
<path d="M258.348 91.0562H255.193L253.562 88.3362L255.193 85.6172H258.348L259.981 88.3362L258.348 91.0562Z" fill="#EAECF0"/>
<path d="M245.73 102.154H239.311L236.156 96.6062L239.311 90.9492H245.73L248.994 96.6062L245.73 102.154Z" fill="#EAECF0"/>
<path d="M232.131 111.293H224.624L220.816 104.766L224.624 98.2383H232.131L235.83 104.766L232.131 111.293Z" fill="#EAECF0"/>
<path d="M217.987 119.559H210.372L206.564 112.922L210.372 106.395H217.987L221.686 112.922L217.987 119.559Z" fill="#EAECF0"/>
<path d="M203.302 126.957H196.557L193.293 121.191L196.557 115.316H203.302L206.674 121.191L203.302 126.957Z" fill="#EAECF0"/>
<path d="M186.656 130.874H184.915L184.045 129.351L184.915 127.828H186.656L187.526 129.351L186.656 130.874Z" fill="#EAECF0"/>
<path d="M189.595 152.308H181.98L178.172 145.781L181.98 139.145H189.595L193.294 145.781L189.595 152.308Z" fill="#EAECF0"/>
<path d="M189.595 168.734H181.98L178.172 162.098L181.98 155.57H189.595L193.294 162.098L189.595 168.734Z" fill="#EAECF0"/>
<path d="M189.595 185.055H181.98L178.172 178.528L181.98 172H189.595L193.294 178.528L189.595 185.055Z" fill="#EAECF0"/>
<path d="M1254.44 193.324H1246.93L1243.12 186.688L1246.93 180.16H1254.44L1258.24 186.688L1254.44 193.324Z" fill="#EAECF0"/>
<path d="M1254.44 176.894H1246.93L1243.12 170.367L1246.93 163.73H1254.44L1258.24 170.367L1254.44 176.894Z" fill="#EAECF0"/>
<path d="M1254.44 160.465H1246.93L1243.12 153.938L1246.93 147.41H1254.44L1258.24 153.938L1254.44 160.465Z" fill="#EAECF0"/>
<path d="M1254.44 144.148H1246.93L1243.12 137.512L1246.93 130.984H1254.44L1258.24 137.512L1254.44 144.148Z" fill="#EAECF0"/>
<path d="M1254.44 127.718H1246.93L1243.12 121.191L1246.93 114.555H1254.44L1258.24 121.191L1254.44 127.718Z" fill="#EAECF0"/>
<path d="M1240.3 119.559H1232.68L1228.87 112.922L1232.68 106.395H1240.3L1244.1 112.922L1240.3 119.559Z" fill="#EAECF0"/>
<path d="M1224.41 108.356H1220.17L1218.1 104.766L1220.17 101.176H1224.41L1226.48 104.766L1224.41 108.356Z" fill="#EAECF0"/>
<path d="M358.436 18.4936H353.867L351.582 14.5766L353.867 10.6602H358.436L360.72 14.5766L358.436 18.4936Z" fill="#EAECF0"/>
<path d="M345.71 29.3749H338.203L334.396 22.7389L338.203 16.2109H345.71L349.517 22.7389L345.71 29.3749Z" fill="#EAECF0"/>
<path d="M330.479 35.6837H325.039L322.211 31.0057L325.039 26.2188H330.479L333.199 31.0057L330.479 35.6837Z" fill="#EAECF0"/>
<path d="M317.314 45.6956H309.808L306 39.1676L309.808 32.6406H317.314L321.122 39.1676L317.314 45.6956Z" fill="#EAECF0"/>
<path d="M257.912 74.0867H255.519L254.322 71.9108L255.519 69.8438H257.912L259.109 71.9108L257.912 74.0867Z" fill="#EAECF0"/>
<path d="M246.166 86.3786H238.986L235.396 80.1776L238.986 73.9766H246.166L249.647 80.1776L246.166 86.3786Z" fill="#EAECF0"/>
<path d="M231.043 92.9075H225.713L223.102 88.3385L225.713 83.7695H231.043L233.654 88.3385L231.043 92.9075Z" fill="#EAECF0"/>
<path d="M217.879 103.132H210.372L206.564 96.6048L210.372 89.9688H217.879L221.686 96.6048L217.879 103.132Z" fill="#EAECF0"/>
<path d="M203.736 111.293H196.121L192.422 104.766L196.121 98.2383H203.736L207.544 104.766L203.736 111.293Z" fill="#EAECF0"/>
<path d="M186.659 114.552H184.809L183.83 112.92L184.809 111.289H186.659L187.638 112.92L186.659 114.552Z" fill="#EAECF0"/>
<path d="M175.344 144.148H167.728L164.029 137.512L167.728 130.984H175.344L179.151 137.512L175.344 144.148Z" fill="#EAECF0"/>
<path d="M175.344 160.465H167.728L164.029 153.938L167.728 147.41H175.344L179.151 153.938L175.344 160.465Z" fill="#EAECF0"/>
<path d="M175.344 176.894H167.728L164.029 170.367L167.728 163.73H175.344L179.151 170.367L175.344 176.894Z" fill="#EAECF0"/>
<path d="M175.344 193.324H167.728L164.029 186.688L167.728 180.16H175.344L179.151 186.688L175.344 193.324Z" fill="#EAECF0"/>
<path d="M1268.69 185.055H1261.07L1257.27 178.528L1261.07 172H1268.69L1272.5 178.528L1268.69 185.055Z" fill="#EAECF0"/>
<path d="M1268.69 168.734H1261.07L1257.27 162.098L1261.07 155.57H1268.69L1272.5 162.098L1268.69 168.734Z" fill="#EAECF0"/>
<path d="M1268.69 152.308H1261.07L1257.27 145.781L1261.07 139.145H1268.69L1272.5 145.781L1268.69 152.308Z" fill="#EAECF0"/>
<path d="M1268.69 135.879H1261.07L1257.27 129.351L1261.07 122.824H1268.69L1272.5 129.351L1268.69 135.879Z" fill="#EAECF0"/>
<path d="M1268.69 119.559H1261.07L1257.27 112.922L1261.07 106.395H1268.69L1272.5 112.922L1268.69 119.559Z" fill="#EAECF0"/>
<path d="M1254.44 111.293H1246.93L1243.12 104.766L1246.93 98.2383H1254.44L1258.24 104.766L1254.44 111.293Z" fill="#EAECF0"/>
<path d="M1238.34 99.7627H1234.64L1232.79 96.6077L1234.64 93.3438H1238.34L1240.18 96.6077L1238.34 99.7627Z" fill="#EAECF0"/>
<path d="M328.409 15.6643H327.104L326.451 14.5763L327.104 13.4883H328.409L329.062 14.5763L328.409 15.6643Z" fill="#EAECF0"/>
<path d="M314.161 23.9334H312.964L312.312 22.7364L312.964 21.6484H314.161L314.814 22.7364L314.161 23.9334Z" fill="#EAECF0"/>
<path d="M243.988 66.2501H241.16L239.637 63.7481L241.16 61.2461H243.988L245.403 63.7481L243.988 66.2501Z" fill="#EAECF0"/>
<path d="M229.305 73.5417H227.456L226.477 71.9097L227.456 70.3867H229.305L230.175 71.9097L229.305 73.5417Z" fill="#EAECF0"/>
<path d="M215.815 83.0086H212.551L210.811 80.1806L212.551 77.3516H215.815L217.447 80.1806L215.815 83.0086Z" fill="#EAECF0"/>
<path d="M203.629 94.6474H196.34L192.75 88.3374L196.34 82.0273H203.629L207.219 88.3374L203.629 94.6474Z" fill="#EAECF0"/>
<path d="M189.595 103.132H181.98L178.172 96.6048L181.98 89.9688H189.595L193.294 96.6048L189.595 103.132Z" fill="#EAECF0"/>
<path d="M175.344 111.293H167.728L164.029 104.766L167.728 98.2383H175.344L179.151 104.766L175.344 111.293Z" fill="#EAECF0"/>
<path d="M159.57 133.162H155.218L152.934 129.355L155.218 125.547H159.57L161.746 129.355L159.57 133.162Z" fill="#EAECF0"/>
<path d="M161.198 152.308H153.583L149.775 145.781L153.583 139.145H161.198L164.897 145.781L161.198 152.308Z" fill="#EAECF0"/>
<path d="M161.198 168.734H153.583L149.775 162.098L153.583 155.57H161.198L164.897 162.098L161.198 168.734Z" fill="#EAECF0"/>
<path d="M161.198 185.055H153.583L149.775 178.528L153.583 172H161.198L164.897 178.528L161.198 185.055Z" fill="#EAECF0"/>
<path d="M1282.84 193.324H1275.33L1271.52 186.688L1275.33 180.16H1282.84L1286.64 186.688L1282.84 193.324Z" fill="#EAECF0"/>
<path d="M1282.84 176.894H1275.33L1271.52 170.367L1275.33 163.73H1282.84L1286.64 170.367L1282.84 176.894Z" fill="#EAECF0"/>
<path d="M1282.84 160.465H1275.33L1271.52 153.938L1275.33 147.41H1282.84L1286.64 153.938L1282.84 160.465Z" fill="#EAECF0"/>
<path d="M1282.84 144.148H1275.33L1271.52 137.512L1275.33 130.984H1282.84L1286.64 137.512L1282.84 144.148Z" fill="#EAECF0"/>
<path d="M1282.84 127.718H1275.33L1271.52 121.191L1275.33 114.555H1282.84L1286.64 121.191L1282.84 127.718Z" fill="#EAECF0"/>
<path d="M1239.86 85.9447H1233.11L1229.74 80.1787L1233.11 74.3047H1239.86L1243.23 80.1787L1239.86 85.9447Z" fill="#EAECF0"/>
<path d="M1225.28 77.1319H1219.3L1216.25 71.9099L1219.3 66.7969H1225.28L1228.33 71.9099L1225.28 77.1319Z" fill="#EAECF0"/>
<path d="M187.094 82.4592H184.374L183.068 80.1752L184.374 77.7812H187.094L188.508 80.1752L187.094 82.4592Z" fill="#EAECF0"/>
<path d="M173.492 91.6022H169.685L167.727 88.3382L169.685 85.0742H173.492L175.342 88.3382L173.492 91.6022Z" fill="#EAECF0"/>
<path d="M146.951 144.148H139.336L135.637 137.512L139.336 130.984H146.951L150.759 137.512L146.951 144.148Z" fill="#EAECF0"/>
<path d="M146.951 160.465H139.336L135.637 153.938L139.336 147.41H146.951L150.759 153.938L146.951 160.465Z" fill="#EAECF0"/>
<path d="M146.951 176.894H139.336L135.637 170.367L139.336 163.73H146.951L150.759 170.367L146.951 176.894Z" fill="#EAECF0"/>
<path d="M146.951 193.324H139.336L135.637 186.688L139.336 180.16H146.951L150.759 186.688L146.951 193.324Z" fill="#EAECF0"/>
<path d="M1297.09 185.055H1289.47L1285.67 178.528L1289.47 172H1297.09L1300.9 178.528L1297.09 185.055Z" fill="#EAECF0"/>
<path d="M1297.09 168.734H1289.47L1285.67 162.098L1289.47 155.57H1297.09L1300.9 162.098L1297.09 168.734Z" fill="#EAECF0"/>
<path d="M1297.09 152.308H1289.47L1285.67 145.781L1289.47 139.145H1297.09L1300.9 145.781L1297.09 152.308Z" fill="#EAECF0"/>
<path d="M1297.09 135.879H1289.47L1285.67 129.351L1289.47 122.824H1297.09L1300.9 129.351L1297.09 135.879Z" fill="#EAECF0"/>
<path d="M1294.26 114.661H1292.3L1291.32 112.92L1292.3 111.289H1294.26L1295.24 112.92L1294.26 114.661Z" fill="#EAECF0"/>
<path d="M131.391 133.595H126.495L124.102 129.352L126.495 125.109H131.391L133.893 129.352L131.391 133.595Z" fill="#EAECF0"/>
<path d="M132.695 152.308H125.189L121.381 145.781L125.189 139.145H132.695L136.503 145.781L132.695 152.308Z" fill="#EAECF0"/>
<path d="M132.695 168.734H125.189L121.381 162.098L125.189 155.57H132.695L136.503 162.098L132.695 168.734Z" fill="#EAECF0"/>
<path d="M132.695 185.055H125.189L121.381 178.528L125.189 172H132.695L136.503 178.528L132.695 185.055Z" fill="#EAECF0"/>
<path d="M1311.23 193.324H1303.72L1299.91 186.688L1303.72 180.16H1311.23L1315.03 186.688L1311.23 193.324Z" fill="#EAECF0"/>
<path d="M1311.23 176.894H1303.72L1299.91 170.367L1303.72 163.73H1311.23L1315.03 170.367L1311.23 176.894Z" fill="#EAECF0"/>
<path d="M1311.23 160.465H1303.72L1299.91 153.938L1303.72 147.41H1311.23L1315.03 153.938L1311.23 160.465Z" fill="#EAECF0"/>
<path d="M1311.23 144.148H1303.72L1299.91 137.512L1303.72 130.984H1311.23L1315.03 137.512L1311.23 144.148Z" fill="#EAECF0"/>
<path d="M1311.23 127.718H1303.72L1299.91 121.191L1303.72 114.555H1311.23L1315.03 121.191L1311.23 127.718Z" fill="#EAECF0"/>
<path d="M118.554 144.148H110.939L107.24 137.512L110.939 130.984H118.554L122.362 137.512L118.554 144.148Z" fill="#EAECF0"/>
<path d="M118.554 160.465H110.939L107.24 153.938L110.939 147.41H118.554L122.362 153.938L118.554 160.465Z" fill="#EAECF0"/>
<path d="M118.554 176.894H110.939L107.24 170.367L110.939 163.73H118.554L122.362 170.367L118.554 176.894Z" fill="#EAECF0"/>
<path d="M118.554 193.324H110.939L107.24 186.688L110.939 180.16H118.554L122.362 186.688L118.554 193.324Z" fill="#EAECF0"/>
<path d="M1325.48 185.055H1317.87L1314.17 178.528L1317.87 172H1325.48L1329.29 178.528L1325.48 185.055Z" fill="#EAECF0"/>
<path d="M1325.48 168.734H1317.87L1314.17 162.098L1317.87 155.57H1325.48L1329.29 162.098L1325.48 168.734Z" fill="#EAECF0"/>
<path d="M1325.48 152.308H1317.87L1314.17 145.781L1317.87 139.145H1325.48L1329.29 145.781L1325.48 152.308Z" fill="#EAECF0"/>
<path d="M1325.37 135.771H1317.97L1314.27 129.352L1317.97 122.934H1325.37L1329.06 129.352L1325.37 135.771Z" fill="#EAECF0"/>
<path d="M103.323 134.028H97.8839L95.1641 129.35L97.8839 124.672H103.323L106.043 129.35L103.323 134.028Z" fill="#EAECF0"/>
<path d="M104.303 152.308H96.796L92.9883 145.781L96.796 139.145H104.303L108.11 145.781L104.303 152.308Z" fill="#EAECF0"/>
<path d="M104.303 168.734H96.796L92.9883 162.098L96.796 155.57H104.303L108.11 162.098L104.303 168.734Z" fill="#EAECF0"/>
<path d="M104.303 185.055H96.796L92.9883 178.528L96.796 172H104.303L108.11 178.528L104.303 185.055Z" fill="#EAECF0"/>
<path d="M1339.62 193.215H1332.12L1328.31 186.688L1332.12 180.16H1339.62L1343.43 186.688L1339.62 193.215Z" fill="#EAECF0"/>
<path d="M1339.62 176.894H1332.12L1328.31 170.367L1332.12 163.73H1339.62L1343.43 170.367L1339.62 176.894Z" fill="#EAECF0"/>
<path d="M1339.62 160.465H1332.12L1328.31 153.938L1332.12 147.41H1339.62L1343.43 153.938L1339.62 160.465Z" fill="#EAECF0"/>
<path d="M1339.62 144.148H1332.12L1328.31 137.512L1332.12 130.984H1339.62L1343.43 137.512L1339.62 144.148Z" fill="#EAECF0"/>
<path d="M87.1113 122.389H85.6971L84.9355 121.192L85.6971 119.887H87.1113L87.7641 121.192L87.1113 122.389Z" fill="#EAECF0"/>
<path d="M90.158 144.148H82.5426L78.8438 137.512L82.5426 130.984H90.158L93.9657 137.512L90.158 144.148Z" fill="#EAECF0"/>
<path d="M90.158 160.465H82.5426L78.8438 153.938L82.5426 147.41H90.158L93.9657 153.938L90.158 160.465Z" fill="#EAECF0"/>
<path d="M90.158 176.894H82.5426L78.8438 170.367L82.5426 163.73H90.158L93.9657 170.367L90.158 176.894Z" fill="#EAECF0"/>
<path d="M90.158 193.324H82.5426L78.8438 186.688L82.5426 180.16H90.158L93.9657 186.688L90.158 193.324Z" fill="#EAECF0"/>
<path d="M1353.87 185.055H1346.26L1342.56 178.528L1346.26 172H1353.87L1357.68 178.528L1353.87 185.055Z" fill="#EAECF0"/>
<path d="M1353.87 168.734H1346.26L1342.56 162.098L1346.26 155.57H1353.87L1357.68 162.098L1353.87 168.734Z" fill="#EAECF0"/>
<path d="M1353.87 152.308H1346.26L1342.56 145.781L1346.26 139.145H1353.87L1357.68 145.781L1353.87 152.308Z" fill="#EAECF0"/>
<path d="M1353.77 135.663H1346.48L1342.78 129.353L1346.48 123.043H1353.77L1357.36 129.353L1353.77 135.663Z" fill="#EAECF0"/>
<path d="M75.908 135.879H68.4014L64.5938 129.351L68.4014 122.824H75.908L79.7157 129.351L75.908 135.879Z" fill="#EAECF0"/>
<path d="M75.908 152.308H68.4014L64.5938 145.781L68.4014 139.145H75.908L79.7157 145.781L75.908 152.308Z" fill="#EAECF0"/>
<path d="M75.908 168.734H68.4014L64.5938 162.098L68.4014 155.57H75.908L79.7157 162.098L75.908 168.734Z" fill="#EAECF0"/>
<path d="M75.908 185.055H68.4014L64.5938 178.528L68.4014 172H75.908L79.7157 178.528L75.908 185.055Z" fill="#EAECF0"/>
<path d="M1368.01 193.324H1360.51L1356.7 186.688L1360.51 180.16H1368.01L1371.82 186.688L1368.01 193.324Z" fill="#EAECF0"/>
<path d="M1368.01 176.894H1360.51L1356.7 170.367L1360.51 163.73H1368.01L1371.82 170.367L1368.01 176.894Z" fill="#EAECF0"/>
<path d="M1368.01 160.465H1360.51L1356.7 153.938L1360.51 147.41H1368.01L1371.82 153.938L1368.01 160.465Z" fill="#EAECF0"/>
<path d="M1368.01 144.148H1360.51L1356.7 137.512L1360.51 130.984H1368.01L1371.82 137.512L1368.01 144.148Z" fill="#EAECF0"/>
<path d="M1365.95 124.02H1362.58L1360.95 121.192L1362.58 118.254H1365.95L1367.58 121.192L1365.95 124.02Z" fill="#EAECF0"/>
<path d="M59.9138 124.565H55.9973L54.0391 121.193L55.9973 117.711H59.9138L61.9808 121.193L59.9138 124.565Z" fill="#EAECF0"/>
<path d="M61.7629 144.148H54.1475L50.3398 137.512L54.1475 130.984H61.7629L65.5705 137.512L61.7629 144.148Z" fill="#EAECF0"/>
<path d="M61.7629 160.465H54.1475L50.3398 153.938L54.1475 147.41H61.7629L65.5705 153.938L61.7629 160.465Z" fill="#EAECF0"/>
<path d="M61.7629 176.894H54.1475L50.3398 170.367L54.1475 163.73H61.7629L65.5705 170.367L61.7629 176.894Z" fill="#EAECF0"/>
<path d="M61.7629 193.324H54.1475L50.3398 186.688L54.1475 180.16H61.7629L65.5705 186.688L61.7629 193.324Z" fill="#EAECF0"/>
<path d="M1382.27 185.055H1374.65L1370.96 178.528L1374.65 172H1382.27L1386.08 178.528L1382.27 185.055Z" fill="#EAECF0"/>
<path d="M1382.27 168.734H1374.65L1370.96 162.098L1374.65 155.57H1382.27L1386.08 162.098L1382.27 168.734Z" fill="#EAECF0"/>
<path d="M1382.27 152.308H1374.65L1370.96 145.781L1374.65 139.145H1382.27L1386.08 145.781L1382.27 152.308Z" fill="#EAECF0"/>
<path d="M1382.27 135.879H1374.76L1370.96 129.351L1374.76 122.824H1382.27L1386.08 129.351L1382.27 135.879Z" fill="#EAECF0"/>
<path d="M44.6846 114.448H42.9439L41.9648 112.925L42.9439 111.402H44.6846L45.5549 112.925L44.6846 114.448Z" fill="#EAECF0"/>
<path d="M47.5115 135.879H40.0049L36.1973 129.351L40.0049 122.824H47.5115L51.3192 129.351L47.5115 135.879Z" fill="#EAECF0"/>
<path d="M47.5115 152.308H40.0049L36.1973 145.781L40.0049 139.145H47.5115L51.3192 145.781L47.5115 152.308Z" fill="#EAECF0"/>
<path d="M47.5115 168.734H40.0049L36.1973 162.098L40.0049 155.57H47.5115L51.3192 162.098L47.5115 168.734Z" fill="#EAECF0"/>
<path d="M47.5115 185.055H40.0049L36.1973 178.528L40.0049 172H47.5115L51.3192 178.528L47.5115 185.055Z" fill="#EAECF0"/>
<path d="M1396.52 193.324H1388.9L1385.09 186.688L1388.9 180.16H1396.52L1400.21 186.688L1396.52 193.324Z" fill="#EAECF0"/>
<path d="M1396.52 176.894H1388.9L1385.09 170.367L1388.9 163.73H1396.52L1400.21 170.367L1396.52 176.894Z" fill="#EAECF0"/>
<path d="M1396.52 160.465H1388.9L1385.09 153.938L1388.9 147.41H1396.52L1400.21 153.938L1396.52 160.465Z" fill="#EAECF0"/>
<path d="M1396.52 144.148H1388.9L1385.09 137.512L1388.9 130.984H1396.52L1400.21 137.512L1396.52 144.148Z" fill="#EAECF0"/>
<path d="M32.8269 126.74H26.2994L23.1445 121.192L26.2994 115.535H32.8269L35.9818 121.192L32.8269 126.74Z" fill="#EAECF0"/>
<path d="M33.3703 144.148H25.7549L21.9473 137.512L25.7549 130.984H33.3703L37.178 137.512L33.3703 144.148Z" fill="#EAECF0"/>
<path d="M33.3703 160.465H25.7549L21.9473 153.938L25.7549 147.41H33.3703L37.178 153.938L33.3703 160.465Z" fill="#EAECF0"/>
<path d="M33.3703 176.894H25.7549L21.9473 170.367L25.7549 163.73H33.3703L37.178 170.367L33.3703 176.894Z" fill="#EAECF0"/>
<path d="M33.3703 193.324H25.7549L21.9473 186.688L25.7549 180.16H33.3703L37.178 186.688L33.3703 193.324Z" fill="#EAECF0"/>
<path d="M1410.66 185.055H1403.05L1399.35 178.528L1403.05 172H1410.66L1414.47 178.528L1410.66 185.055Z" fill="#EAECF0"/>
<path d="M1410.66 168.734H1403.05L1399.35 162.098L1403.05 155.57H1410.66L1414.47 162.098L1410.66 168.734Z" fill="#EAECF0"/>
<path d="M1410.66 152.308H1403.05L1399.35 145.781L1403.05 139.145H1410.66L1414.47 145.781L1410.66 152.308Z" fill="#EAECF0"/>
<path d="M1407.73 130.874H1405.98L1405.11 129.351L1405.98 127.828H1407.73L1408.6 129.351L1407.73 130.874Z" fill="#EAECF0"/>
<path d="M19.119 135.879H11.6124L7.80469 129.351L11.6124 122.824H19.119L22.9266 129.351L19.119 135.879Z" fill="#EAECF0"/>
<path d="M18.6845 151.547H12.0483L8.67578 145.782L12.0483 140.016H18.6845L22.057 145.782L18.6845 151.547Z" fill="#EAECF0"/>
<path d="M19.119 168.734H11.6124L7.80469 162.098L11.6124 155.57H19.119L22.9266 162.098L19.119 168.734Z" fill="#EAECF0"/>
<path d="M19.119 185.055H11.6124L7.80469 178.528L11.6124 172H19.119L22.9266 178.528L19.119 185.055Z" fill="#EAECF0"/>
<path d="M1423.39 174.282H1418.82L1416.43 170.366L1418.82 166.34H1423.39L1425.67 170.366L1423.39 174.282Z" fill="#EAECF0"/>
<path d="M1424.91 160.465H1417.3L1413.49 153.938L1417.3 147.41H1424.91L1428.61 153.938L1424.91 160.465Z" fill="#EAECF0"/>
<path d="M1424.15 142.845H1417.95L1414.9 137.514L1417.95 132.184H1424.15L1427.2 137.514L1424.15 142.845Z" fill="#EAECF0"/>
<path d="M1.82151 122.281H0.516024L-0.136719 121.193L0.516024 119.996H1.82151L2.47426 121.193L1.82151 122.281Z" fill="#EAECF0"/>
<path d="M2.9075 140.557H-0.573805L-2.31445 137.511L-0.573805 134.465H2.9075L4.75695 137.511L2.9075 140.557Z" fill="#EAECF0"/>
<path d="M4.86815 160.357H-2.52963L-6.22852 153.938L-2.52963 147.52H4.86815L8.67583 153.938L4.86815 160.357Z" fill="#EAECF0"/>
<path d="M4.10444 175.481H-1.77026L-4.81641 170.367L-1.77026 165.145H4.10444L7.15058 170.367L4.10444 175.481Z" fill="#EAECF0"/>
<path d="M4.97577 193.324H-2.63959L-6.44727 186.688L-2.63959 180.16H4.97577L8.78345 186.688L4.97577 193.324Z" fill="#EAECF0"/>
<path d="M1437.86 166.67H1432.63L1430.02 162.101L1432.63 157.641H1437.86L1440.58 162.101L1437.86 166.67Z" fill="#EAECF0"/>
<path d="M1437.75 150.025H1432.86L1430.36 145.782L1432.86 141.539H1437.75L1440.15 145.782L1437.75 150.025Z" fill="#EAECF0"/>
<path d="M1453 -58H-16V949H1453V-58Z" fill="url(#paint0_linear_1143_2)"/>
</g>
<defs>
<linearGradient id="paint0_linear_1143_2" x1="718" y1="-179" x2="718.5" y2="949" gradientUnits="userSpaceOnUse">
<stop stop-color="white" stop-opacity="0"/>
<stop offset="0.415033" stop-color="white"/>
</linearGradient>
<clipPath id="clip0_1143_2">
<rect width="1440" height="181" fill="white"/>
</clipPath>
</defs>
</svg>
