<svg width="1440" height="269" viewBox="0 0 1440 269" fill="none" xmlns="http://www.w3.org/2000/svg">
<g filter="url(#filter0_d_473_121381)">
<rect x="-1345" y="70" width="4129" height="4129" rx="2064.5" fill="white"/>
</g>
<mask id="mask0_473_121381" style="mask-type:alpha" maskUnits="userSpaceOnUse" x="-1345" y="70" width="4129" height="4129">
<rect x="-1345" y="70" width="4129" height="4129" rx="2064.5" fill="white"/>
</mask>
<g mask="url(#mask0_473_121381)">
<rect width="1523.07" height="870" transform="translate(-43 88)" fill="white"/>
<path d="M714.941 281.323H707.325L703.518 274.687L707.325 268.159H714.941L718.639 274.687L714.941 281.323Z" fill="#EAECF0"/>
<path d="M743.34 281.323H735.725L731.917 274.687L735.725 268.159H743.34L747.148 274.687L743.34 281.323Z" fill="#EAECF0"/>
<path d="M729.088 273.055H721.581L717.773 266.528L721.581 260H729.088L732.895 266.528L729.088 273.055Z" fill="#EAECF0"/>
<path d="M713.857 263.153H708.309L705.589 258.366L708.309 253.579H713.857L716.686 258.366L713.857 263.153Z" fill="#EAECF0"/>
<path d="M697.65 267.831H696.236L695.475 266.526L696.236 265.22H697.65L698.412 266.526L697.65 267.831Z" fill="#EAECF0"/>
<path d="M771.732 281.323H764.116L760.309 274.687L764.116 268.159H771.732L775.539 274.687L771.732 281.323Z" fill="#EAECF0"/>
<path d="M755.852 270.226H751.609L749.434 266.528L751.609 262.829H755.852L758.028 266.528L755.852 270.226Z" fill="#EAECF0"/>
<path d="M743.34 264.894H735.725L731.917 258.367L735.725 251.73H743.34L747.148 258.367L743.34 264.894Z" fill="#EAECF0"/>
<path d="M728.87 256.408H721.69L718.1 250.099L721.69 243.897H728.87L732.46 250.099L728.87 256.408Z" fill="#EAECF0"/>
<path d="M800.131 281.323H792.516L788.708 274.687L792.516 268.159H800.131L803.939 274.687L800.131 281.323Z" fill="#EAECF0"/>
<path d="M785.879 273.055H778.372L774.564 266.528L778.372 260H785.879L789.686 266.528L785.879 273.055Z" fill="#EAECF0"/>
<path d="M769.773 261.631H765.966L764.116 258.368L765.966 254.995H769.773L771.732 258.368L769.773 261.631Z" fill="#EAECF0"/>
<path d="M757.478 256.736H749.972L746.164 250.1L749.972 243.572H757.478L761.286 250.1L757.478 256.736Z" fill="#EAECF0"/>
<path d="M743.34 248.467H735.725L731.917 241.94L735.725 235.412H743.34L747.148 241.94L743.34 248.467Z" fill="#EAECF0"/>
<path d="M828.521 281.323H820.905L817.098 274.687L820.905 268.159H828.521L832.328 274.687L828.521 281.323Z" fill="#EAECF0"/>
<path d="M814.268 273.055H806.762L802.954 266.528L806.762 260H814.268L818.076 266.528L814.268 273.055Z" fill="#EAECF0"/>
<path d="M800.131 264.894H792.516L788.708 258.367L792.516 251.73H800.131L803.939 258.367L800.131 264.894Z" fill="#EAECF0"/>
<path d="M785.879 256.736H778.372L774.564 250.1L778.372 243.572H785.879L789.686 250.1L785.879 256.736Z" fill="#EAECF0"/>
<path d="M771.625 248.467H764.228L760.42 241.94L764.228 235.412H771.625L775.433 241.94L771.625 248.467Z" fill="#EAECF0"/>
<path d="M757.478 240.307H749.972L746.164 233.78L749.972 227.144H757.478L761.286 233.78L757.478 240.307Z" fill="#EAECF0"/>
<path d="M742.469 230.516H736.594L733.766 225.511L736.594 220.507H742.469L745.297 225.511L742.469 230.516Z" fill="#EAECF0"/>
<path d="M856.919 281.323H849.304L845.496 274.687L849.304 268.159H856.919L860.727 274.687L856.919 281.323Z" fill="#EAECF0"/>
<path d="M842.667 273.055H835.16L831.353 266.528L835.16 260H842.667L846.474 266.528L842.667 273.055Z" fill="#EAECF0"/>
<path d="M827.653 263.482H821.779L818.732 258.368L821.779 253.146H827.653L830.699 258.368L827.653 263.482Z" fill="#EAECF0"/>
<path d="M814.268 256.736H806.762L802.954 250.1L806.762 243.572H814.268L818.076 250.1L814.268 256.736Z" fill="#EAECF0"/>
<path d="M800.131 248.467H792.516L788.708 241.94L792.516 235.412H800.131L803.939 241.94L800.131 248.467Z" fill="#EAECF0"/>
<path d="M785.879 240.307H778.372L774.564 233.78L778.372 227.144H785.879L789.686 233.78L785.879 240.307Z" fill="#EAECF0"/>
<path d="M771.732 232.147H764.116L760.309 225.511L764.116 218.983H771.732L775.539 225.511L771.732 232.147Z" fill="#EAECF0"/>
<path d="M757.045 223.118H750.409L747.036 217.352L750.409 211.586H757.045L760.417 217.352L757.045 223.118Z" fill="#EAECF0"/>
<path d="M614.965 255.647H608.547L605.392 250.098L608.547 244.659H614.965L618.12 250.098L614.965 255.647Z" fill="#EAECF0"/>
<path d="M600.929 264.243H594.076L590.703 258.369L594.076 252.385H600.929L604.411 258.369L600.929 264.243Z" fill="#EAECF0"/>
<path d="M885.311 281.323H877.695L873.888 274.687L877.695 268.159H885.311L889.118 274.687L885.311 281.323Z" fill="#EAECF0"/>
<path d="M871.057 273.055H863.551L859.743 266.528L863.551 260H871.057L874.865 266.528L871.057 273.055Z" fill="#EAECF0"/>
<path d="M856.919 264.894H849.304L845.496 258.367L849.304 251.73H856.919L860.727 258.367L856.919 264.894Z" fill="#EAECF0"/>
<path d="M842.445 256.302H835.374L831.893 250.101L835.374 244.008H842.445L846.035 250.101L842.445 256.302Z" fill="#EAECF0"/>
<path d="M814.268 240.308H806.762L802.954 233.781L806.762 227.253H814.268L818.076 233.781L814.268 240.308Z" fill="#EAECF0"/>
<path d="M800.131 232.147H792.516L788.708 225.511L792.516 218.983H800.131L803.939 225.511L800.131 232.147Z" fill="#EAECF0"/>
<path d="M785.879 223.88H778.372L774.564 217.352L778.372 210.825H785.879L789.686 217.352L785.879 223.88Z" fill="#EAECF0"/>
<path d="M771.187 214.851H764.659L761.396 209.194L764.659 203.428H771.187L774.45 209.194L771.187 214.851Z" fill="#EAECF0"/>
<path d="M600.823 247.596H594.296L591.032 241.939L594.296 236.282H600.823L604.087 241.939L600.823 247.596Z" fill="#EAECF0"/>
<path d="M587.006 256.625H579.608L575.909 250.098L579.608 243.679H587.006L590.813 250.098L587.006 256.625Z" fill="#EAECF0"/>
<path d="M913.704 281.323H906.089L902.39 274.687L906.089 268.159H913.704L917.512 274.687L913.704 281.323Z" fill="#EAECF0"/>
<path d="M899.458 273.055H891.951L888.144 266.528L891.951 260H899.458L903.265 266.528L899.458 273.055Z" fill="#EAECF0"/>
<path d="M885.311 264.894H877.695L873.888 258.367L877.695 251.73H885.311L889.118 258.367L885.311 264.894Z" fill="#EAECF0"/>
<path d="M871.057 256.736H863.551L859.743 250.1L863.551 243.572H871.057L874.865 250.1L871.057 256.736Z" fill="#EAECF0"/>
<path d="M856.809 248.358H849.411L845.712 241.939L849.411 235.521H856.809L860.507 241.939L856.809 248.358Z" fill="#EAECF0"/>
<path d="M842.451 239.872H835.379L831.789 233.78L835.379 227.579H842.451L846.041 233.78L842.451 239.872Z" fill="#EAECF0"/>
<path d="M828.304 231.82H821.124L817.534 225.51L821.124 219.309H828.304L831.895 225.51L828.304 231.82Z" fill="#EAECF0"/>
<path d="M813.507 222.576H807.524L804.478 217.354L807.524 212.023H813.507L816.553 217.354L813.507 222.576Z" fill="#EAECF0"/>
<path d="M799.369 214.413H793.277L790.23 209.191L793.277 203.86H799.369L802.415 209.191L799.369 214.413Z" fill="#EAECF0"/>
<path d="M784.355 204.839H779.895L777.61 200.922L779.895 197.006H784.355L786.64 200.922L784.355 204.839Z" fill="#EAECF0"/>
<path d="M585.156 236.934H581.457L579.717 233.779L581.457 230.625H585.156L587.006 233.779L585.156 236.934Z" fill="#EAECF0"/>
<path d="M942.103 281.323H934.488L930.789 274.687L934.488 268.159H942.103L945.911 274.687L942.103 281.323Z" fill="#EAECF0"/>
<path d="M927.847 273.055H920.341L916.533 266.528L920.341 260H927.847L931.655 266.528L927.847 273.055Z" fill="#EAECF0"/>
<path d="M913.704 264.894H906.089L902.39 258.367L906.089 251.73H913.704L917.512 258.367L913.704 264.894Z" fill="#EAECF0"/>
<path d="M899.458 256.736H891.951L888.144 250.1L891.951 243.572H899.458L903.265 250.1L899.458 256.736Z" fill="#EAECF0"/>
<path d="M885.311 248.467H877.695L873.888 241.94L877.695 235.412H885.311L889.118 241.94L885.311 248.467Z" fill="#EAECF0"/>
<path d="M869.753 237.915H864.857L862.464 233.781L864.857 229.538H869.753L872.146 233.781L869.753 237.915Z" fill="#EAECF0"/>
<path d="M856.37 231.169H849.842L846.688 225.512L849.842 219.963H856.37L859.634 225.512L856.37 231.169Z" fill="#EAECF0"/>
<path d="M743.342 166.548H735.726L732.027 159.912L735.726 153.385H743.342L747.04 159.912L743.342 166.548Z" fill="#EAECF0"/>
<path d="M727.677 155.775H722.999L720.605 151.75L722.999 147.725H727.677L730.07 151.75L727.677 155.775Z" fill="#EAECF0"/>
<path d="M712.77 146.421H709.506L707.874 143.592L709.506 140.764H712.77L714.401 143.592L712.77 146.421Z" fill="#EAECF0"/>
<path d="M498.994 268.051H497.254L496.492 266.528L497.254 265.113H498.994L499.865 266.528L498.994 268.051Z" fill="#EAECF0"/>
<path d="M487.68 281.323H480.174L476.366 274.687L480.174 268.159H487.68L491.488 274.687L487.68 281.323Z" fill="#EAECF0"/>
<path d="M970.496 281.323H962.88L959.182 274.687L962.88 268.159H970.496L974.304 274.687L970.496 281.323Z" fill="#EAECF0"/>
<path d="M956.24 273.055H948.733L944.926 266.528L948.733 260H956.24L960.048 266.528L956.24 273.055Z" fill="#EAECF0"/>
<path d="M942.103 264.894H934.488L930.789 258.367L934.488 251.73H942.103L945.911 258.367L942.103 264.894Z" fill="#EAECF0"/>
<path d="M927.847 256.736H920.341L916.533 250.1L920.341 243.572H927.847L931.655 250.1L927.847 256.736Z" fill="#EAECF0"/>
<path d="M913.704 248.467H906.089L902.39 241.94L906.089 235.412H913.704L917.512 241.94L913.704 248.467Z" fill="#EAECF0"/>
<path d="M899.458 240.307H891.951L888.144 233.78L891.951 227.144H899.458L903.265 233.78L899.458 240.307Z" fill="#EAECF0"/>
<path d="M884.11 229.973H878.997L876.386 225.513L878.997 221.161H884.11L886.612 225.513L884.11 229.973Z" fill="#EAECF0"/>
<path d="M768.686 161.218H767.163L766.401 159.912L767.163 158.715H768.686L769.447 159.912L768.686 161.218Z" fill="#EAECF0"/>
<path d="M755.2 154.363H752.154L750.631 151.752L752.154 149.141H755.2L756.832 151.752L755.2 154.363Z" fill="#EAECF0"/>
<path d="M743.34 150.12H735.725L731.917 143.592L735.725 136.956H743.34L747.148 143.592L743.34 150.12Z" fill="#EAECF0"/>
<path d="M729.088 141.961H721.581L717.773 135.325L721.581 128.797H729.088L732.895 135.325L729.088 141.961Z" fill="#EAECF0"/>
<path d="M714.941 133.694H707.325L703.518 127.166L707.325 120.639H714.941L718.639 127.166L714.941 133.694Z" fill="#EAECF0"/>
<path d="M584.723 203.316H582.003L580.589 200.923L582.003 198.529H584.723L586.028 200.923L584.723 203.316Z" fill="#EAECF0"/>
<path d="M571.45 213.111H566.881L564.487 209.194L566.881 205.169H571.45L573.735 209.194L571.45 213.111Z" fill="#EAECF0"/>
<path d="M558.721 223.88H551.215L547.407 217.352L551.215 210.825H558.721L562.42 217.352L558.721 223.88Z" fill="#EAECF0"/>
<path d="M544.471 232.147H536.965L533.157 225.511L536.965 218.983H544.471L548.279 225.511L544.471 232.147Z" fill="#EAECF0"/>
<path d="M530.327 240.308H522.712L519.013 233.781L522.712 227.253H530.327L534.026 233.781L530.327 240.308Z" fill="#EAECF0"/>
<path d="M515.857 248.03H508.895L505.305 241.938L508.895 235.846H515.857L519.339 241.938L515.857 248.03Z" fill="#EAECF0"/>
<path d="M501.496 255.972H494.751L491.379 250.097L494.751 244.222H501.496L504.978 250.097L501.496 255.972Z" fill="#EAECF0"/>
<path d="M487.68 264.894H480.174L476.366 258.367L480.174 251.73H487.68L491.488 258.367L487.68 264.894Z" fill="#EAECF0"/>
<path d="M473.538 273.055H465.923L462.115 266.528L465.923 260H473.538L477.346 266.528L473.538 273.055Z" fill="#EAECF0"/>
<path d="M998.887 281.323H991.271L987.572 274.687L991.271 268.159H998.887L1002.69 274.687L998.887 281.323Z" fill="#EAECF0"/>
<path d="M984.747 273.055H977.132L973.324 266.528L977.132 260H984.747L988.446 266.528L984.747 273.055Z" fill="#EAECF0"/>
<path d="M970.496 264.894H962.88L959.182 258.367L962.88 251.73H970.496L974.304 258.367L970.496 264.894Z" fill="#EAECF0"/>
<path d="M956.24 256.736H948.733L944.926 250.1L948.733 243.572H956.24L960.048 250.1L956.24 256.736Z" fill="#EAECF0"/>
<path d="M942.103 248.467H934.488L930.789 241.94L934.488 235.412H942.103L945.911 241.94L942.103 248.467Z" fill="#EAECF0"/>
<path d="M927.847 240.307H920.341L916.533 233.78L920.341 227.144H927.847L931.655 233.78L927.847 240.307Z" fill="#EAECF0"/>
<path d="M913.704 232.147H906.089L902.39 225.511L906.089 218.983H913.704L917.512 225.511L913.704 232.147Z" fill="#EAECF0"/>
<path d="M896.845 219.417H894.56L893.363 217.35L894.56 215.283H896.845L898.041 217.35L896.845 219.417Z" fill="#EAECF0"/>
<path d="M769.336 145.987H766.508L765.202 143.594L766.508 141.2H769.336L770.642 143.594L769.336 145.987Z" fill="#EAECF0"/>
<path d="M756.286 139.783H751.173L748.671 135.323L751.173 130.971H756.286L758.788 135.323L756.286 139.783Z" fill="#EAECF0"/>
<path d="M741.382 130.426H737.574L735.725 127.163L737.574 123.899H741.382L743.34 127.163L741.382 130.426Z" fill="#EAECF0"/>
<path d="M726.147 120.313H724.515L723.754 119.007L724.515 117.593H726.147L726.909 119.007L726.147 120.313Z" fill="#EAECF0"/>
<path d="M587.007 190.915H579.718L576.02 184.605L579.718 178.186H587.007L590.598 184.605L587.007 190.915Z" fill="#EAECF0"/>
<path d="M571.668 197.118H566.663L564.161 192.767L566.663 188.415H571.668L574.17 192.767L571.668 197.118Z" fill="#EAECF0"/>
<path d="M557.849 206.039H551.974L549.037 200.926L551.974 195.812H557.849L560.895 200.926L557.849 206.039Z" fill="#EAECF0"/>
<path d="M544.471 215.718H536.965L533.157 209.191L536.965 202.555H544.471L548.279 209.191L544.471 215.718Z" fill="#EAECF0"/>
<path d="M530.327 223.88H522.712L519.013 217.352L522.712 210.825H530.327L534.135 217.352L530.327 223.88Z" fill="#EAECF0"/>
<path d="M516.076 232.147H508.569L504.762 225.511L508.569 218.983H516.076L519.884 225.511L516.076 232.147Z" fill="#EAECF0"/>
<path d="M501.931 240.307H494.316L490.617 233.78L494.316 227.144H501.931L505.739 233.78L501.931 240.307Z" fill="#EAECF0"/>
<path d="M487.68 248.467H480.174L476.366 241.94L480.174 235.412H487.68L491.488 241.94L487.68 248.467Z" fill="#EAECF0"/>
<path d="M473.538 256.736H465.923L462.115 250.1L465.923 243.572H473.538L477.346 250.1L473.538 256.736Z" fill="#EAECF0"/>
<path d="M458.635 263.697H452.434L449.388 258.366L452.434 253.036H458.635L461.681 258.366L458.635 263.697Z" fill="#EAECF0"/>
<path d="M1027.28 281.323H1019.67L1015.97 274.687L1019.67 268.159H1027.28L1031.09 274.687L1027.28 281.323Z" fill="#EAECF0"/>
<path d="M1013.14 273.055H1005.52L1001.72 266.528L1005.52 260H1013.14L1016.84 266.528L1013.14 273.055Z" fill="#EAECF0"/>
<path d="M998.887 264.894H991.271L987.572 258.367L991.271 251.73H998.887L1002.69 258.367L998.887 264.894Z" fill="#EAECF0"/>
<path d="M984.747 256.736H977.132L973.324 250.1L977.132 243.572H984.747L988.446 250.1L984.747 256.736Z" fill="#EAECF0"/>
<path d="M970.496 248.467H962.88L959.182 241.94L962.88 235.412H970.496L974.304 241.94L970.496 248.467Z" fill="#EAECF0"/>
<path d="M956.24 240.307H948.733L944.926 233.78L948.733 227.144H956.24L960.048 233.78L956.24 240.307Z" fill="#EAECF0"/>
<path d="M942.103 232.147H934.488L930.789 225.511L934.488 218.983H942.103L945.911 225.511L942.103 232.147Z" fill="#EAECF0"/>
<path d="M927.847 223.88H920.341L916.533 217.352L920.341 210.825H927.847L931.655 217.352L927.847 223.88Z" fill="#EAECF0"/>
<path d="M910.88 210.935H908.922L907.942 209.194L908.922 207.454H910.88L911.968 209.194L910.88 210.935Z" fill="#EAECF0"/>
<path d="M898.912 206.581H892.493L889.229 200.924L892.493 195.376H898.912L902.176 200.924L898.912 206.581Z" fill="#EAECF0"/>
<path d="M882.7 194.725H880.307L879.219 192.767L880.307 190.7H882.7L883.788 192.767L882.7 194.725Z" fill="#EAECF0"/>
<path d="M771.083 132.605H764.773L761.618 127.165L764.773 121.726H771.083L774.238 127.165L771.083 132.605Z" fill="#EAECF0"/>
<path d="M756.941 124.552H750.523L747.259 119.004L750.523 113.456H756.941L760.096 119.004L756.941 124.552Z" fill="#EAECF0"/>
<path d="M598.321 161.326H596.689L595.928 159.912L596.689 158.498H598.321L599.191 159.912L598.321 161.326Z" fill="#EAECF0"/>
<path d="M587.115 174.596H579.608L575.801 168.178L579.608 161.65H587.115L590.814 168.178L587.115 174.596Z" fill="#EAECF0"/>
<path d="M572.974 182.864H565.358L561.551 176.337L565.358 169.809H572.974L576.673 176.337L572.974 182.864Z" fill="#EAECF0"/>
<path d="M558.721 191.131H551.106L547.407 184.604L551.106 177.968H558.721L562.529 184.604L558.721 191.131Z" fill="#EAECF0"/>
<path d="M544.471 199.292H536.965L533.157 192.765L536.965 186.237H544.471L548.279 192.765L544.471 199.292Z" fill="#EAECF0"/>
<path d="M530.327 207.56H522.712L519.013 200.923L522.712 194.396H530.327L534.135 200.923L530.327 207.56Z" fill="#EAECF0"/>
<path d="M516.076 215.718H508.569L504.762 209.191L508.569 202.555H516.076L519.884 209.191L516.076 215.718Z" fill="#EAECF0"/>
<path d="M501.931 223.88H494.316L490.617 217.352L494.316 210.825H501.931L505.739 217.352L501.931 223.88Z" fill="#EAECF0"/>
<path d="M487.68 232.147H480.174L476.366 225.511L480.174 218.983H487.68L491.488 225.511L487.68 232.147Z" fill="#EAECF0"/>
<path d="M473.538 240.307H465.923L462.115 233.78L465.923 227.144H473.538L477.346 233.78L473.538 240.307Z" fill="#EAECF0"/>
<path d="M459.286 248.467H451.779L447.972 241.94L451.779 235.412H459.286L463.094 241.94L459.286 248.467Z" fill="#EAECF0"/>
<path d="M1055.68 281.323H1048.06L1044.36 274.687L1048.06 268.159H1055.68L1059.48 274.687L1055.68 281.323Z" fill="#EAECF0"/>
<path d="M1041.54 273.055H1033.92L1030.11 266.528L1033.92 260H1041.54L1045.24 266.528L1041.54 273.055Z" fill="#EAECF0"/>
<path d="M1027.28 264.894H1019.67L1015.97 258.367L1019.67 251.73H1027.28L1031.09 258.367L1027.28 264.894Z" fill="#EAECF0"/>
<path d="M1013.14 256.736H1005.52L1001.72 250.1L1005.52 243.572H1013.14L1016.84 250.1L1013.14 256.736Z" fill="#EAECF0"/>
<path d="M998.887 248.467H991.271L987.572 241.94L991.271 235.412H998.887L1002.69 241.94L998.887 248.467Z" fill="#EAECF0"/>
<path d="M984.747 240.307H977.132L973.324 233.78L977.132 227.144H984.747L988.446 233.78L984.747 240.307Z" fill="#EAECF0"/>
<path d="M970.496 232.147H962.88L959.182 225.511L962.88 218.983H970.496L974.304 225.511L970.496 232.147Z" fill="#EAECF0"/>
<path d="M956.24 223.88H948.733L944.926 217.352L948.733 210.825H956.24L960.048 217.352L956.24 223.88Z" fill="#EAECF0"/>
<path d="M940.032 212.128H936.55L934.81 209.191L936.55 206.145H940.032L941.772 209.191L940.032 212.128Z" fill="#EAECF0"/>
<path d="M898.257 188.847H893.253L890.642 184.604L893.253 180.252H898.257L900.759 184.604L898.257 188.847Z" fill="#EAECF0"/>
<path d="M797.189 128.686H795.448L794.578 127.163L795.448 125.64H797.189L798.059 127.163L797.189 128.686Z" fill="#EAECF0"/>
<path d="M785.443 124.771H778.807L775.435 119.005L778.807 113.13H785.443L788.816 119.005L785.443 124.771Z" fill="#EAECF0"/>
<path d="M768.797 112.262H767.056L766.186 110.739L767.056 109.216H768.797L769.667 110.739L768.797 112.262Z" fill="#EAECF0"/>
<path d="M598.645 145.549H596.36L595.272 143.591L596.36 141.632H598.645L599.842 143.591L598.645 145.549Z" fill="#EAECF0"/>
<path d="M587.115 158.277H579.5L575.801 151.749L579.5 145.222H587.115L590.923 151.749L587.115 158.277Z" fill="#EAECF0"/>
<path d="M572.974 166.548H565.358L561.551 159.912L565.358 153.385H572.974L576.673 159.912L572.974 166.548Z" fill="#EAECF0"/>
<path d="M558.721 174.705H551.106L547.407 168.178L551.106 161.65H558.721L562.529 168.178L558.721 174.705Z" fill="#EAECF0"/>
<path d="M544.471 182.864H536.965L533.157 176.337L536.965 169.809H544.471L548.279 176.337L544.471 182.864Z" fill="#EAECF0"/>
<path d="M530.327 191.131H522.712L519.013 184.604L522.712 177.968H530.327L534.135 184.604L530.327 191.131Z" fill="#EAECF0"/>
<path d="M516.076 199.292H508.569L504.762 192.765L508.569 186.237H516.076L519.884 192.765L516.076 199.292Z" fill="#EAECF0"/>
<path d="M501.931 207.56H494.316L490.617 200.923L494.316 194.396H501.931L505.739 200.923L501.931 207.56Z" fill="#EAECF0"/>
<path d="M487.68 215.718H480.174L476.366 209.191L480.174 202.555H487.68L491.488 209.191L487.68 215.718Z" fill="#EAECF0"/>
<path d="M473.538 223.88H465.923L462.115 217.352L465.923 210.825H473.538L477.346 217.352L473.538 223.88Z" fill="#EAECF0"/>
<path d="M457.871 229.646H453.193L450.8 225.512L453.193 221.486H457.871L460.265 225.512L457.871 229.646Z" fill="#EAECF0"/>
<path d="M399.669 259.889H397.82L396.949 258.366L397.82 256.843H399.669L400.539 258.366L399.669 259.889Z" fill="#EAECF0"/>
<path d="M388.354 273.055H380.738L376.931 266.528L380.738 260H388.354L392.161 266.528L388.354 273.055Z" fill="#EAECF0"/>
<path d="M1084.07 281.323H1076.57L1072.76 274.687L1076.57 268.159H1084.07L1087.88 274.687L1084.07 281.323Z" fill="#EAECF0"/>
<path d="M1069.93 273.055H1062.31L1058.5 266.528L1062.31 260H1069.93L1073.63 266.528L1069.93 273.055Z" fill="#EAECF0"/>
<path d="M1055.68 264.894H1048.06L1044.36 258.367L1048.06 251.73H1055.68L1059.48 258.367L1055.68 264.894Z" fill="#EAECF0"/>
<path d="M1041.54 256.736H1033.92L1030.11 250.1L1033.92 243.572H1041.54L1045.24 250.1L1041.54 256.736Z" fill="#EAECF0"/>
<path d="M1027.28 248.467H1019.67L1015.97 241.94L1019.67 235.412H1027.28L1031.09 241.94L1027.28 248.467Z" fill="#EAECF0"/>
<path d="M1013.14 240.307H1005.52L1001.72 233.78L1005.52 227.144H1013.14L1016.84 233.78L1013.14 240.307Z" fill="#EAECF0"/>
<path d="M998.887 232.147H991.271L987.572 225.511L991.271 218.983H998.887L1002.69 225.511L998.887 232.147Z" fill="#EAECF0"/>
<path d="M984.531 223.552H977.351L973.761 217.351L977.351 211.15H984.531L988.012 217.351L984.531 223.552Z" fill="#EAECF0"/>
<path d="M970.382 215.504H963.093L959.395 209.194L963.093 202.884H970.382L973.972 209.194L970.382 215.504Z" fill="#EAECF0"/>
<path d="M955.914 206.909H949.06L945.688 200.925L949.06 195.051H955.914L959.395 200.925L955.914 206.909Z" fill="#EAECF0"/>
<path d="M913.158 181.886H906.739L903.476 176.337L906.739 170.789H913.158L916.313 176.337L913.158 181.886Z" fill="#EAECF0"/>
<path d="M896.299 169.268H895.102L894.449 168.18L895.102 167.092H896.299L896.951 168.18L896.299 169.268Z" fill="#EAECF0"/>
<path d="M615.293 125.205H608.113L604.522 119.004L608.113 112.694H615.293L618.992 119.004L615.293 125.205Z" fill="#EAECF0"/>
<path d="M601.04 133.366H593.969L590.379 127.165L593.969 120.964H601.04L604.63 127.165L601.04 133.366Z" fill="#EAECF0"/>
<path d="M587.115 141.961H579.5L575.801 135.325L579.5 128.797H587.115L590.923 135.325L587.115 141.961Z" fill="#EAECF0"/>
<path d="M572.974 150.12H565.358L561.551 143.592L565.358 136.956H572.974L576.673 143.592L572.974 150.12Z" fill="#EAECF0"/>
<path d="M558.721 158.277H551.106L547.407 151.749L551.106 145.222H558.721L562.529 151.749L558.721 158.277Z" fill="#EAECF0"/>
<path d="M544.471 166.548H536.965L533.157 159.912L536.965 153.385H544.471L548.279 159.912L544.471 166.548Z" fill="#EAECF0"/>
<path d="M530.327 174.705H522.712L519.013 168.178L522.712 161.65H530.327L534.135 168.178L530.327 174.705Z" fill="#EAECF0"/>
<path d="M516.076 182.864H508.569L504.762 176.337L508.569 169.809H516.076L519.884 176.337L516.076 182.864Z" fill="#EAECF0"/>
<path d="M501.931 191.131H494.316L490.617 184.604L494.316 177.968H501.931L505.739 184.604L501.931 191.131Z" fill="#EAECF0"/>
<path d="M487.68 199.292H480.174L476.366 192.765L480.174 186.237H487.68L491.488 192.765L487.68 199.292Z" fill="#EAECF0"/>
<path d="M473.538 207.56H465.923L462.115 200.923L465.923 194.396H473.538L477.346 200.923L473.538 207.56Z" fill="#EAECF0"/>
<path d="M458.96 215.068H452.106L448.733 209.193L452.106 203.209H458.96L462.332 209.193L458.96 215.068Z" fill="#EAECF0"/>
<path d="M415.116 237.37H410.764L408.697 233.78L410.764 230.081H415.116L417.183 233.78L415.116 237.37Z" fill="#EAECF0"/>
<path d="M402.497 248.467H394.99L391.183 241.94L394.99 235.412H402.497L406.305 241.94L402.497 248.467Z" fill="#EAECF0"/>
<path d="M388.354 256.736H380.738L376.931 250.1L380.738 243.572H388.354L392.161 250.1L388.354 256.736Z" fill="#EAECF0"/>
<path d="M374.104 264.893H366.598L362.79 258.365L366.598 251.838H374.104L377.912 258.365L374.104 264.893Z" fill="#EAECF0"/>
<path d="M345.707 281.212H338.201L334.502 274.685L338.201 268.266H345.707L349.406 274.685L345.707 281.212Z" fill="#EAECF0"/>
<path d="M1112.46 281.323H1104.96L1101.15 274.687L1104.96 268.159H1112.46L1116.27 274.687L1112.46 281.323Z" fill="#EAECF0"/>
<path d="M1098.33 273.055H1090.71L1086.9 266.528L1090.71 260H1098.33L1102.03 266.528L1098.33 273.055Z" fill="#EAECF0"/>
<path d="M1084.07 264.894H1076.57L1072.76 258.367L1076.57 251.73H1084.07L1087.88 258.367L1084.07 264.894Z" fill="#EAECF0"/>
<path d="M1069.93 256.736H1062.31L1058.5 250.1L1062.31 243.572H1069.93L1073.63 250.1L1069.93 256.736Z" fill="#EAECF0"/>
<path d="M1055.68 248.467H1048.06L1044.36 241.94L1048.06 235.412H1055.68L1059.48 241.94L1055.68 248.467Z" fill="#EAECF0"/>
<path d="M1041.54 240.307H1033.92L1030.11 233.78L1033.92 227.144H1041.54L1045.24 233.78L1041.54 240.307Z" fill="#EAECF0"/>
<path d="M1027.28 232.147H1019.67L1015.97 225.511L1019.67 218.983H1027.28L1031.09 225.511L1027.28 232.147Z" fill="#EAECF0"/>
<path d="M1013.14 223.88H1005.52L1001.72 217.352L1005.52 210.825H1013.14L1016.84 217.352L1013.14 223.88Z" fill="#EAECF0"/>
<path d="M998.887 215.718H991.271L987.572 209.191L991.271 202.555H998.887L1002.69 209.191L998.887 215.718Z" fill="#EAECF0"/>
<path d="M983.009 204.514H978.875L976.808 200.924L978.875 197.442H983.009L984.967 200.924L983.009 204.514Z" fill="#EAECF0"/>
<path d="M967.668 194.287H965.819L964.948 192.764L965.819 191.132H967.668L968.538 192.764L967.668 194.287Z" fill="#EAECF0"/>
<path d="M926.762 172.64H921.54L918.929 168.179L921.54 163.61H926.762L929.264 168.179L926.762 172.64Z" fill="#EAECF0"/>
<path d="M600.06 115.196H595.055L592.444 110.735L595.055 106.384H600.06L602.562 110.735L600.06 115.196Z" fill="#EAECF0"/>
<path d="M587.115 125.533H579.5L575.801 119.005L579.5 112.369H587.115L590.923 119.005L587.115 125.533Z" fill="#EAECF0"/>
<path d="M572.974 133.694H565.358L561.551 127.166L565.358 120.639H572.974L576.673 127.166L572.974 133.694Z" fill="#EAECF0"/>
<path d="M558.721 141.961H551.106L547.407 135.325L551.106 128.797H558.721L562.529 135.325L558.721 141.961Z" fill="#EAECF0"/>
<path d="M544.471 150.12H536.965L533.157 143.592L536.965 136.956H544.471L548.279 143.592L544.471 150.12Z" fill="#EAECF0"/>
<path d="M530.327 158.277H522.712L519.013 151.749L522.712 145.222H530.327L534.135 151.749L530.327 158.277Z" fill="#EAECF0"/>
<path d="M516.076 166.548H508.569L504.762 159.912L508.569 153.385H516.076L519.884 159.912L516.076 166.548Z" fill="#EAECF0"/>
<path d="M501.931 174.705H494.316L490.617 168.178L494.316 161.65H501.931L505.739 168.178L501.931 174.705Z" fill="#EAECF0"/>
<path d="M487.68 182.864H480.174L476.366 176.337L480.174 169.809H487.68L491.488 176.337L487.68 182.864Z" fill="#EAECF0"/>
<path d="M473.538 191.131H465.923L462.115 184.604L465.923 177.968H473.538L477.346 184.604L473.538 191.131Z" fill="#EAECF0"/>
<path d="M459.288 199.183H451.781L448.082 192.765L451.781 186.237H459.288L462.986 192.765L459.288 199.183Z" fill="#EAECF0"/>
<path d="M442.207 202.337H440.467L439.705 200.923L440.467 199.509H442.207L442.969 200.923L442.207 202.337Z" fill="#EAECF0"/>
<path d="M401.084 229.537H396.406L394.121 225.512L396.406 221.486H401.084L403.368 225.512L401.084 229.537Z" fill="#EAECF0"/>
<path d="M388.354 240.307H380.738L376.931 233.78L380.738 227.144H388.354L392.161 233.78L388.354 240.307Z" fill="#EAECF0"/>
<path d="M374.104 248.467H366.598L362.79 241.94L366.598 235.412H374.104L377.912 241.94L374.104 248.467Z" fill="#EAECF0"/>
<path d="M359.851 256.625H352.344L348.646 250.098L352.344 243.679H359.851L363.659 250.098L359.851 256.625Z" fill="#EAECF0"/>
<path d="M342.771 259.781H341.139L340.269 258.366L341.139 256.843H342.771L343.641 258.366L342.771 259.781Z" fill="#EAECF0"/>
<path d="M329.499 269.571H326.018L324.277 266.525L326.018 263.479H329.499L331.24 266.525L329.499 269.571Z" fill="#EAECF0"/>
<path d="M1140.86 281.323H1133.36L1129.55 274.687L1133.36 268.159H1140.86L1144.67 274.687L1140.86 281.323Z" fill="#EAECF0"/>
<path d="M1126.72 273.055H1119.1L1115.29 266.528L1119.1 260H1126.72L1130.42 266.528L1126.72 273.055Z" fill="#EAECF0"/>
<path d="M1112.46 264.894H1104.96L1101.15 258.367L1104.96 251.73H1112.46L1116.27 258.367L1112.46 264.894Z" fill="#EAECF0"/>
<path d="M1098.33 256.736H1090.71L1086.9 250.1L1090.71 243.572H1098.33L1102.03 250.1L1098.33 256.736Z" fill="#EAECF0"/>
<path d="M1084.07 248.467H1076.57L1072.76 241.94L1076.57 235.412H1084.07L1087.88 241.94L1084.07 248.467Z" fill="#EAECF0"/>
<path d="M1069.93 240.307H1062.31L1058.5 233.78L1062.31 227.144H1069.93L1073.63 233.78L1069.93 240.307Z" fill="#EAECF0"/>
<path d="M1055.68 232.147H1048.06L1044.36 225.511L1048.06 218.983H1055.68L1059.48 225.511L1055.68 232.147Z" fill="#EAECF0"/>
<path d="M1041.54 223.88H1033.92L1030.11 217.352L1033.92 210.825H1041.54L1045.24 217.352L1041.54 223.88Z" fill="#EAECF0"/>
<path d="M1027.28 215.718H1019.67L1015.97 209.191L1019.67 202.555H1027.28L1031.09 209.191L1027.28 215.718Z" fill="#EAECF0"/>
<path d="M1012.93 207.343H1005.64L1001.94 200.924L1005.64 194.614H1012.93L1016.63 200.924L1012.93 207.343Z" fill="#EAECF0"/>
<path d="M996.93 195.812H993.34L991.49 192.766L993.34 189.72H996.93L998.67 192.766L996.93 195.812Z" fill="#EAECF0"/>
<path d="M941.662 165.676H935.026L931.653 159.911L935.026 154.253H941.662L944.926 159.911L941.662 165.676Z" fill="#EAECF0"/>
<path d="M600.061 98.8778H594.948L592.337 94.4174L594.948 89.8481H600.061L602.672 94.4174L600.061 98.8778Z" fill="#EAECF0"/>
<path d="M586.788 108.562H579.934L576.453 102.579L579.934 96.5952H586.788L590.161 102.579L586.788 108.562Z" fill="#EAECF0"/>
<path d="M570.795 113.675H567.423L565.791 110.737L567.423 107.8H570.795L572.536 110.737L570.795 113.675Z" fill="#EAECF0"/>
<path d="M558.721 125.533H551.106L547.407 119.005L551.106 112.369H558.721L562.529 119.005L558.721 125.533Z" fill="#EAECF0"/>
<path d="M544.471 133.694H536.965L533.157 127.166L536.965 120.639H544.471L548.279 127.166L544.471 133.694Z" fill="#EAECF0"/>
<path d="M530.327 141.961H522.712L519.013 135.325L522.712 128.797H530.327L534.135 135.325L530.327 141.961Z" fill="#EAECF0"/>
<path d="M516.076 150.12H508.569L504.762 143.592L508.569 136.956H516.076L519.884 143.592L516.076 150.12Z" fill="#EAECF0"/>
<path d="M501.931 158.277H494.316L490.617 151.749L494.316 145.222H501.931L505.739 151.749L501.931 158.277Z" fill="#EAECF0"/>
<path d="M487.68 166.548H480.174L476.366 159.912L480.174 153.385H487.68L491.488 159.912L487.68 166.548Z" fill="#EAECF0"/>
<path d="M473.538 174.705H465.923L462.115 168.178L465.923 161.65H473.538L477.346 168.178L473.538 174.705Z" fill="#EAECF0"/>
<path d="M459.286 182.864H451.779L447.972 176.337L451.779 169.809H459.286L463.094 176.337L459.286 182.864Z" fill="#EAECF0"/>
<path d="M442.751 187H439.922L438.508 184.607L439.922 182.104H442.751L444.165 184.607L442.751 187Z" fill="#EAECF0"/>
<path d="M388.354 223.88H380.738L376.931 217.352L380.738 210.825H388.354L392.161 217.352L388.354 223.88Z" fill="#EAECF0"/>
<path d="M373.883 231.711H366.812L363.222 225.51L366.812 219.309H373.883L377.473 225.51L373.883 231.711Z" fill="#EAECF0"/>
<path d="M316.444 263.37H310.679L307.741 258.365L310.679 253.361H316.444L319.382 258.365L316.444 263.37Z" fill="#EAECF0"/>
<path d="M1155.11 273.055H1147.49L1143.68 266.528L1147.49 260H1155.11L1158.92 266.528L1155.11 273.055Z" fill="#EAECF0"/>
<path d="M1140.86 264.894H1133.36L1129.55 258.367L1133.36 251.73H1140.86L1144.67 258.367L1140.86 264.894Z" fill="#EAECF0"/>
<path d="M1126.72 256.736H1119.1L1115.29 250.1L1119.1 243.572H1126.72L1130.42 250.1L1126.72 256.736Z" fill="#EAECF0"/>
<path d="M1112.46 248.467H1104.96L1101.15 241.94L1104.96 235.412H1112.46L1116.27 241.94L1112.46 248.467Z" fill="#EAECF0"/>
<path d="M1098.33 240.307H1090.71L1086.9 233.78L1090.71 227.144H1098.33L1102.03 233.78L1098.33 240.307Z" fill="#EAECF0"/>
<path d="M1084.07 232.147H1076.57L1072.76 225.511L1076.57 218.983H1084.07L1087.88 225.511L1084.07 232.147Z" fill="#EAECF0"/>
<path d="M1069.93 223.88H1062.31L1058.5 217.352L1062.31 210.825H1069.93L1073.63 217.352L1069.93 223.88Z" fill="#EAECF0"/>
<path d="M1055.68 215.718H1048.06L1044.36 209.191L1048.06 202.555H1055.68L1059.48 209.191L1055.68 215.718Z" fill="#EAECF0"/>
<path d="M1041.54 207.56H1033.92L1030.11 200.923L1033.92 194.396H1041.54L1045.24 200.923L1041.54 207.56Z" fill="#EAECF0"/>
<path d="M1027.28 199.292H1019.67L1015.97 192.765L1019.67 186.237H1027.28L1031.09 192.765L1027.28 199.292Z" fill="#EAECF0"/>
<path d="M1012.06 189.285H1006.62L1003.9 184.607L1006.62 179.82H1012.06L1014.78 184.607L1012.06 189.285Z" fill="#EAECF0"/>
<path d="M911.315 129.558H908.486L907.181 127.165L908.486 124.771H911.315L912.729 127.165L911.315 129.558Z" fill="#EAECF0"/>
<path d="M572.753 100.729H565.464L561.766 94.4187L565.464 88H572.753L576.452 94.4187L572.753 100.729Z" fill="#EAECF0"/>
<path d="M558.502 108.779H551.322L547.731 102.578L551.322 96.377H558.502L562.092 102.578L558.502 108.779Z" fill="#EAECF0"/>
<path d="M544.471 117.374H536.965L533.157 110.738L536.965 104.21H544.471L548.279 110.738L544.471 117.374Z" fill="#EAECF0"/>
<path d="M530.327 125.533H522.712L519.013 119.005L522.712 112.369H530.327L534.135 119.005L530.327 125.533Z" fill="#EAECF0"/>
<path d="M516.076 133.694H508.569L504.762 127.166L508.569 120.639H516.076L519.884 127.166L516.076 133.694Z" fill="#EAECF0"/>
<path d="M501.931 141.961H494.316L490.617 135.325L494.316 128.797H501.931L505.739 135.325L501.931 141.961Z" fill="#EAECF0"/>
<path d="M487.68 150.12H480.174L476.366 143.592L480.174 136.956H487.68L491.488 143.592L487.68 150.12Z" fill="#EAECF0"/>
<path d="M473.538 158.277H465.923L462.115 151.749L465.923 145.222H473.538L477.346 151.749L473.538 158.277Z" fill="#EAECF0"/>
<path d="M459.286 166.548H451.779L447.972 159.912L451.779 153.385H459.286L463.094 159.912L459.286 166.548Z" fill="#EAECF0"/>
<path d="M445.034 174.49H437.636L434.046 168.18L437.636 161.762H445.034L448.624 168.18L445.034 174.49Z" fill="#EAECF0"/>
<path d="M386.722 204.733H382.371L380.086 200.925L382.371 197.117H386.722L389.007 200.925L386.722 204.733Z" fill="#EAECF0"/>
<path d="M374.104 215.718H366.598L362.79 209.191L366.598 202.555H374.104L377.912 209.191L374.104 215.718Z" fill="#EAECF0"/>
<path d="M358.98 222.246H353.323L350.494 217.351L353.323 212.455H358.98L361.808 217.351L358.98 222.246Z" fill="#EAECF0"/>
<path d="M331.569 240.307H323.953L320.146 233.78L323.953 227.144H331.569L335.376 233.78L331.569 240.307Z" fill="#EAECF0"/>
<path d="M317.203 248.14H309.914L306.324 241.939L309.914 235.738H317.203L320.793 241.939L317.203 248.14Z" fill="#EAECF0"/>
<path d="M303.173 256.736H295.558L291.75 250.1L295.558 243.572H303.173L306.872 250.1L303.173 256.736Z" fill="#EAECF0"/>
<path d="M288.919 264.894H281.412L277.604 258.367L281.412 251.73H288.919L292.726 258.367L288.919 264.894Z" fill="#EAECF0"/>
<path d="M274.778 273.055H267.162L263.354 266.528L267.162 260H274.778L278.476 266.528L274.778 273.055Z" fill="#EAECF0"/>
<path d="M1169.25 281.323H1161.75L1157.94 274.687L1161.75 268.159H1169.25L1173.06 274.687L1169.25 281.323Z" fill="#EAECF0"/>
<path d="M1169.25 264.894H1161.75L1157.94 258.367L1161.75 251.73H1169.25L1173.06 258.367L1169.25 264.894Z" fill="#EAECF0"/>
<path d="M1155.11 256.736H1147.49L1143.68 250.1L1147.49 243.572H1155.11L1158.92 250.1L1155.11 256.736Z" fill="#EAECF0"/>
<path d="M1140.86 248.467H1133.36L1129.55 241.94L1133.36 235.412H1140.86L1144.67 241.94L1140.86 248.467Z" fill="#EAECF0"/>
<path d="M1126.72 240.307H1119.1L1115.29 233.78L1119.1 227.144H1126.72L1130.42 233.78L1126.72 240.307Z" fill="#EAECF0"/>
<path d="M1112.46 232.147H1104.96L1101.15 225.511L1104.96 218.983H1112.46L1116.27 225.511L1112.46 232.147Z" fill="#EAECF0"/>
<path d="M1098.33 223.88H1090.71L1086.9 217.352L1090.71 210.825H1098.33L1102.03 217.352L1098.33 223.88Z" fill="#EAECF0"/>
<path d="M1084.07 215.718H1076.57L1072.76 209.191L1076.57 202.555H1084.07L1087.88 209.191L1084.07 215.718Z" fill="#EAECF0"/>
<path d="M1069.93 207.56H1062.31L1058.5 200.923L1062.31 194.396H1069.93L1073.63 200.923L1069.93 207.56Z" fill="#EAECF0"/>
<path d="M1055.68 199.292H1048.06L1044.36 192.765L1048.06 186.237H1055.68L1059.48 192.765L1055.68 199.292Z" fill="#EAECF0"/>
<path d="M1041.54 191.131H1033.92L1030.11 184.604L1033.92 177.968H1041.54L1045.24 184.604L1041.54 191.131Z" fill="#EAECF0"/>
<path d="M1027.17 182.756H1019.77L1016.18 176.337L1019.77 170.027H1027.17L1030.87 176.337L1027.17 182.756Z" fill="#EAECF0"/>
<path d="M544.472 100.729H537.074L533.375 94.4187L537.074 88H544.472L548.062 94.4187L544.472 100.729Z" fill="#EAECF0"/>
<path d="M530.327 109.107H522.712L519.013 102.579L522.712 96.0518H530.327L534.135 102.579L530.327 109.107Z" fill="#EAECF0"/>
<path d="M516.076 117.374H508.569L504.762 110.738L508.569 104.21H516.076L519.884 110.738L516.076 117.374Z" fill="#EAECF0"/>
<path d="M501.931 125.533H494.316L490.617 119.005L494.316 112.369H501.931L505.739 119.005L501.931 125.533Z" fill="#EAECF0"/>
<path d="M487.68 133.694H480.174L476.366 127.166L480.174 120.639H487.68L491.488 127.166L487.68 133.694Z" fill="#EAECF0"/>
<path d="M473.538 141.961H465.923L462.115 135.325L465.923 128.797H473.538L477.346 135.325L473.538 141.961Z" fill="#EAECF0"/>
<path d="M459.286 150.12H451.779L447.972 143.592L451.779 136.956H459.286L463.094 143.592L459.286 150.12Z" fill="#EAECF0"/>
<path d="M445.145 158.277H437.529L433.722 151.749L437.529 145.222H445.145L448.952 151.749L445.145 158.277Z" fill="#EAECF0"/>
<path d="M430.892 166.548H423.386L419.578 159.912L423.386 153.385H430.892L434.7 159.912L430.892 166.548Z" fill="#EAECF0"/>
<path d="M414.356 170.681H411.528L410.113 168.178L411.528 165.676H414.356L415.77 168.178L414.356 170.681Z" fill="#EAECF0"/>
<path d="M371.059 193.964H369.644L368.883 192.767L369.644 191.461H371.059L371.82 192.767L371.059 193.964Z" fill="#EAECF0"/>
<path d="M359.958 207.56H352.343L348.535 200.923L352.343 194.396H359.958L363.766 200.923L359.958 207.56Z" fill="#EAECF0"/>
<path d="M345.71 215.718H338.203L334.396 209.191L338.203 202.555H345.71L349.517 209.191L345.71 215.718Z" fill="#EAECF0"/>
<path d="M330.695 222.463H324.821L321.774 217.35L324.821 212.237H330.695L333.741 217.35L330.695 222.463Z" fill="#EAECF0"/>
<path d="M315.682 229.318H311.33L309.154 225.51L311.33 221.812H315.682L317.966 225.51L315.682 229.318Z" fill="#EAECF0"/>
<path d="M303.173 240.307H295.558L291.75 233.78L295.558 227.144H303.173L306.872 233.78L303.173 240.307Z" fill="#EAECF0"/>
<path d="M288.919 248.467H281.412L277.604 241.94L281.412 235.412H288.919L292.726 241.94L288.919 248.467Z" fill="#EAECF0"/>
<path d="M274.778 256.736H267.162L263.354 250.1L267.162 243.572H274.778L278.476 250.1L274.778 256.736Z" fill="#EAECF0"/>
<path d="M260.524 264.894H253.018L249.21 258.367L253.018 251.73H260.524L264.332 258.367L260.524 264.894Z" fill="#EAECF0"/>
<path d="M260.524 281.323H253.018L249.21 274.687L253.018 268.159H260.524L264.332 274.687L260.524 281.323Z" fill="#EAECF0"/>
<path d="M1183.51 273.055H1175.89L1172.08 266.528L1175.89 260H1183.51L1187.31 266.528L1183.51 273.055Z" fill="#EAECF0"/>
<path d="M1183.51 256.736H1175.89L1172.08 250.1L1175.89 243.572H1183.51L1187.31 250.1L1183.51 256.736Z" fill="#EAECF0"/>
<path d="M1169.25 248.467H1161.75L1157.94 241.94L1161.75 235.412H1169.25L1173.06 241.94L1169.25 248.467Z" fill="#EAECF0"/>
<path d="M1155.11 240.307H1147.49L1143.68 233.78L1147.49 227.144H1155.11L1158.92 233.78L1155.11 240.307Z" fill="#EAECF0"/>
<path d="M1140.86 232.147H1133.36L1129.55 225.511L1133.36 218.983H1140.86L1144.67 225.511L1140.86 232.147Z" fill="#EAECF0"/>
<path d="M1126.72 223.88H1119.1L1115.29 217.352L1119.1 210.825H1126.72L1130.42 217.352L1126.72 223.88Z" fill="#EAECF0"/>
<path d="M1112.46 215.718H1104.96L1101.15 209.191L1104.96 202.555H1112.46L1116.27 209.191L1112.46 215.718Z" fill="#EAECF0"/>
<path d="M1098.33 207.56H1090.71L1086.9 200.923L1090.71 194.396H1098.33L1102.03 200.923L1098.33 207.56Z" fill="#EAECF0"/>
<path d="M1084.07 199.292H1076.57L1072.76 192.765L1076.57 186.237H1084.07L1087.88 192.765L1084.07 199.292Z" fill="#EAECF0"/>
<path d="M1069.93 191.131H1062.31L1058.5 184.604L1062.31 177.968H1069.93L1073.63 184.604L1069.93 191.131Z" fill="#EAECF0"/>
<path d="M1055.68 182.864H1048.06L1044.36 176.337L1048.06 169.809H1055.68L1059.48 176.337L1055.68 182.864Z" fill="#EAECF0"/>
<path d="M1039.68 171.55H1035.66L1033.7 168.178L1035.66 164.696H1039.68L1041.64 168.178L1039.68 171.55Z" fill="#EAECF0"/>
<path d="M515.424 99.6396H509.331L506.285 94.4177L509.331 89.0869H515.424L518.47 94.4177L515.424 99.6396Z" fill="#EAECF0"/>
<path d="M501.171 107.8H495.188L492.142 102.578L495.188 97.3564H501.171L504.109 102.578L501.171 107.8Z" fill="#EAECF0"/>
<path d="M486.812 115.851H481.046L478.108 110.738L481.046 105.733H486.812L489.749 110.738L486.812 115.851Z" fill="#EAECF0"/>
<path d="M473.538 125.533H465.923L462.115 119.005L465.923 112.369H473.538L477.346 119.005L473.538 125.533Z" fill="#EAECF0"/>
<path d="M459.286 133.694H451.779L447.972 127.166L451.779 120.639H459.286L463.094 127.166L459.286 133.694Z" fill="#EAECF0"/>
<path d="M445.145 141.961H437.529L433.722 135.325L437.529 128.797H445.145L448.952 135.325L445.145 141.961Z" fill="#EAECF0"/>
<path d="M430.892 150.12H423.386L419.578 143.592L423.386 136.956H430.892L434.7 143.592L430.892 150.12Z" fill="#EAECF0"/>
<path d="M414.681 154.799H411.2L409.459 151.753L411.2 148.815H414.681L416.422 151.753L414.681 154.799Z" fill="#EAECF0"/>
<path d="M402.281 166.11H395.209L391.619 159.909L395.209 153.817H402.281L405.871 159.909L402.281 166.11Z" fill="#EAECF0"/>
<path d="M345.599 199.075H338.31L334.72 192.765L338.31 186.456H345.599L349.189 192.765L345.599 199.075Z" fill="#EAECF0"/>
<path d="M331.569 207.56H323.953L320.146 200.923L323.953 194.396H331.569L335.376 200.923L331.569 207.56Z" fill="#EAECF0"/>
<path d="M317.314 215.718H309.808L306 209.191L309.808 202.555H317.314L321.122 209.191L317.314 215.718Z" fill="#EAECF0"/>
<path d="M303.171 223.88H295.555L291.856 217.352L295.555 210.825H303.171L306.87 217.352L303.171 223.88Z" fill="#EAECF0"/>
<path d="M288.594 231.388H281.74L278.367 225.513L281.74 219.638H288.594L291.966 225.513L288.594 231.388Z" fill="#EAECF0"/>
<path d="M274.778 240.307H267.162L263.354 233.78L267.162 227.144H274.778L278.476 233.78L274.778 240.307Z" fill="#EAECF0"/>
<path d="M260.524 248.467H253.018L249.21 241.94L253.018 235.412H260.524L264.332 241.94L260.524 248.467Z" fill="#EAECF0"/>
<path d="M246.383 256.736H238.768L234.96 250.1L238.768 243.572H246.383L250.082 250.1L246.383 256.736Z" fill="#EAECF0"/>
<path d="M246.383 273.055H238.768L234.96 266.528L238.768 260H246.383L250.082 266.528L246.383 273.055Z" fill="#EAECF0"/>
<path d="M1197.65 281.323H1190.14L1186.33 274.687L1190.14 268.159H1197.65L1201.45 274.687L1197.65 281.323Z" fill="#EAECF0"/>
<path d="M1197.65 264.894H1190.14L1186.33 258.367L1190.14 251.73H1197.65L1201.45 258.367L1197.65 264.894Z" fill="#EAECF0"/>
<path d="M1197.65 248.467H1190.14L1186.33 241.94L1190.14 235.412H1197.65L1201.45 241.94L1197.65 248.467Z" fill="#EAECF0"/>
<path d="M1183.51 240.307H1175.89L1172.08 233.78L1175.89 227.144H1183.51L1187.31 233.78L1183.51 240.307Z" fill="#EAECF0"/>
<path d="M1169.25 232.147H1161.75L1157.94 225.511L1161.75 218.983H1169.25L1173.06 225.511L1169.25 232.147Z" fill="#EAECF0"/>
<path d="M1155.11 223.88H1147.49L1143.68 217.352L1147.49 210.825H1155.11L1158.92 217.352L1155.11 223.88Z" fill="#EAECF0"/>
<path d="M1140.86 215.718H1133.36L1129.55 209.191L1133.36 202.555H1140.86L1144.67 209.191L1140.86 215.718Z" fill="#EAECF0"/>
<path d="M1126.72 207.56H1119.1L1115.29 200.923L1119.1 194.396H1126.72L1130.42 200.923L1126.72 207.56Z" fill="#EAECF0"/>
<path d="M1112.46 199.292H1104.96L1101.15 192.765L1104.96 186.237H1112.46L1116.27 192.765L1112.46 199.292Z" fill="#EAECF0"/>
<path d="M1098.33 191.131H1090.71L1086.9 184.604L1090.71 177.968H1098.33L1102.03 184.604L1098.33 191.131Z" fill="#EAECF0"/>
<path d="M1084.07 182.864H1076.57L1072.76 176.337L1076.57 169.809H1084.07L1087.88 176.337L1084.07 182.864Z" fill="#EAECF0"/>
<path d="M1069.82 174.596H1062.32L1058.62 168.178L1062.32 161.65H1069.82L1073.63 168.178L1069.82 174.596Z" fill="#EAECF0"/>
<path d="M1052.96 161.76H1050.78L1049.8 159.91L1050.78 158.061H1052.96L1054.05 159.91L1052.96 161.76Z" fill="#EAECF0"/>
<path d="M458.309 115.523H452.869L450.149 110.737L452.869 106.059H458.309L461.028 110.737L458.309 115.523Z" fill="#EAECF0"/>
<path d="M444.928 125.207H437.747L434.157 119.006L437.747 112.805H444.928L448.518 119.006L444.928 125.207Z" fill="#EAECF0"/>
<path d="M430.892 133.694H423.386L419.578 127.166L423.386 120.639H430.892L434.7 127.166L430.892 133.694Z" fill="#EAECF0"/>
<path d="M414.139 137.498H411.746L410.549 135.322L411.746 133.255H414.139L415.336 135.322L414.139 137.498Z" fill="#EAECF0"/>
<path d="M401.409 148.272H396.078L393.358 143.594L396.078 138.916H401.409L404.129 143.594L401.409 148.272Z" fill="#EAECF0"/>
<path d="M359.088 173.184H353.214L350.276 168.18L353.214 163.066H359.088L361.917 168.18L359.088 173.184Z" fill="#EAECF0"/>
<path d="M345.275 181.996H338.639L335.375 176.339L338.639 170.682H345.275L348.539 176.339L345.275 181.996Z" fill="#EAECF0"/>
<path d="M330.043 188.63H325.365L323.08 184.605L325.365 180.471H330.043L332.436 184.605L330.043 188.63Z" fill="#EAECF0"/>
<path d="M317.207 199.075H309.918L306.219 192.765L309.918 186.456H317.207L320.906 192.765L317.207 199.075Z" fill="#EAECF0"/>
<path d="M288.812 215.504H281.523L277.824 209.194L281.523 202.884H288.812L292.402 209.194L288.812 215.504Z" fill="#EAECF0"/>
<path d="M257.914 227.469H255.629L254.541 225.511L255.629 223.661H257.914L259.001 225.511L257.914 227.469Z" fill="#EAECF0"/>
<path d="M246.383 240.307H238.768L234.96 233.78L238.768 227.144H246.383L250.082 233.78L246.383 240.307Z" fill="#EAECF0"/>
<path d="M232.131 248.467H224.515L220.816 241.94L224.515 235.412H232.131L235.938 241.94L232.131 248.467Z" fill="#EAECF0"/>
<path d="M232.131 264.894H224.515L220.816 258.367L224.515 251.73H232.131L235.938 258.367L232.131 264.894Z" fill="#EAECF0"/>
<path d="M232.131 281.323H224.515L220.816 274.687L224.515 268.159H232.131L235.938 274.687L232.131 281.323Z" fill="#EAECF0"/>
<path d="M1211.9 273.055H1204.28L1200.48 266.528L1204.28 260H1211.9L1215.71 266.528L1211.9 273.055Z" fill="#EAECF0"/>
<path d="M1211.9 256.736H1204.28L1200.48 250.1L1204.28 243.572H1211.9L1215.71 250.1L1211.9 256.736Z" fill="#EAECF0"/>
<path d="M1211.9 240.307H1204.28L1200.48 233.78L1204.28 227.144H1211.9L1215.71 233.78L1211.9 240.307Z" fill="#EAECF0"/>
<path d="M1197.65 232.147H1190.14L1186.33 225.511L1190.14 218.983H1197.65L1201.45 225.511L1197.65 232.147Z" fill="#EAECF0"/>
<path d="M1183.51 223.88H1175.89L1172.08 217.352L1175.89 210.825H1183.51L1187.31 217.352L1183.51 223.88Z" fill="#EAECF0"/>
<path d="M1169.25 215.718H1161.75L1157.94 209.191L1161.75 202.555H1169.25L1173.06 209.191L1169.25 215.718Z" fill="#EAECF0"/>
<path d="M1155.11 207.56H1147.49L1143.68 200.923L1147.49 194.396H1155.11L1158.92 200.923L1155.11 207.56Z" fill="#EAECF0"/>
<path d="M1140.86 199.292H1133.36L1129.55 192.765L1133.36 186.237H1140.86L1144.67 192.765L1140.86 199.292Z" fill="#EAECF0"/>
<path d="M1126.61 191.025H1119.21L1115.51 184.606L1119.21 178.079H1126.61L1130.3 184.606L1126.61 191.025Z" fill="#EAECF0"/>
<path d="M1112.47 182.867H1104.96L1101.26 176.339L1104.96 169.92H1112.47L1116.17 176.339L1112.47 182.867Z" fill="#EAECF0"/>
<path d="M1098.33 174.705H1090.71L1086.9 168.178L1090.71 161.65H1098.33L1102.03 168.178L1098.33 174.705Z" fill="#EAECF0"/>
<path d="M1084.07 166.548H1076.57L1072.76 159.912L1076.57 153.385H1084.07L1087.88 159.912L1084.07 166.548Z" fill="#EAECF0"/>
<path d="M1040.44 140.112H1034.9L1032.18 135.325L1034.9 130.539H1040.44L1043.27 135.325L1040.44 140.112Z" fill="#EAECF0"/>
<path d="M1025.33 130.209H1021.74L1019.89 127.163L1021.74 124.117H1025.33L1027.07 127.163L1025.33 130.209Z" fill="#EAECF0"/>
<path d="M429.803 115.306H424.581L421.861 110.737L424.581 106.277H429.803L432.414 110.737L429.803 115.306Z" fill="#EAECF0"/>
<path d="M415.011 122.597H410.877L408.81 119.007L410.877 115.308H415.011L417.186 119.007L415.011 122.597Z" fill="#EAECF0"/>
<path d="M402.062 132.932H395.426L392.054 127.166L395.426 121.4H402.062L405.435 127.166L402.062 132.932Z" fill="#EAECF0"/>
<path d="M386.831 139.238H382.262L380.086 135.322L382.262 131.514H386.831L389.007 135.322L386.831 139.238Z" fill="#EAECF0"/>
<path d="M373.994 149.792H366.705L363.115 143.591L366.705 137.281H373.994L377.584 143.591L373.994 149.792Z" fill="#EAECF0"/>
<path d="M359.958 158.277H352.343L348.535 151.749L352.343 145.222H359.958L363.766 151.749L359.958 158.277Z" fill="#EAECF0"/>
<path d="M345.71 166.548H338.203L334.396 159.912L338.203 153.385H345.71L349.517 159.912L345.71 166.548Z" fill="#EAECF0"/>
<path d="M329.389 170.898H326.126L324.603 168.178L326.126 165.458H329.389L330.912 168.178L329.389 170.898Z" fill="#EAECF0"/>
<path d="M315.354 179.494H311.655L309.914 176.339L311.655 173.185H315.354L317.203 176.339L315.354 179.494Z" fill="#EAECF0"/>
<path d="M272.712 204.08H269.122L267.381 200.925L269.122 197.879H272.712L274.561 200.925L272.712 204.08Z" fill="#EAECF0"/>
<path d="M259.003 213.111H254.434L252.149 209.194L254.434 205.169H259.003L261.288 209.194L259.003 213.111Z" fill="#EAECF0"/>
<path d="M244.857 221.378H240.179L237.895 217.353L240.179 213.328H244.857L247.251 217.353L244.857 221.378Z" fill="#EAECF0"/>
<path d="M229.412 227.36H227.236L226.257 225.511L227.236 223.661H229.412L230.5 225.511L229.412 227.36Z" fill="#EAECF0"/>
<path d="M217.987 240.307H210.372L206.564 233.78L210.372 227.144H217.987L221.686 233.78L217.987 240.307Z" fill="#EAECF0"/>
<path d="M217.987 256.736H210.372L206.564 250.1L210.372 243.572H217.987L221.686 250.1L217.987 256.736Z" fill="#EAECF0"/>
<path d="M217.987 273.055H210.372L206.564 266.528L210.372 260H217.987L221.686 266.528L217.987 273.055Z" fill="#EAECF0"/>
<path d="M1226.04 281.323H1218.54L1214.73 274.687L1218.54 268.159H1226.04L1229.85 274.687L1226.04 281.323Z" fill="#EAECF0"/>
<path d="M1226.04 264.894H1218.54L1214.73 258.367L1218.54 251.73H1226.04L1229.85 258.367L1226.04 264.894Z" fill="#EAECF0"/>
<path d="M1226.04 248.467H1218.54L1214.73 241.94L1218.54 235.412H1226.04L1229.85 241.94L1226.04 248.467Z" fill="#EAECF0"/>
<path d="M1226.04 232.147H1218.54L1214.73 225.511L1218.54 218.983H1226.04L1229.85 225.511L1226.04 232.147Z" fill="#EAECF0"/>
<path d="M1211.9 223.88H1204.28L1200.48 217.352L1204.28 210.825H1211.9L1215.71 217.352L1211.9 223.88Z" fill="#EAECF0"/>
<path d="M1197.65 215.718H1190.14L1186.33 209.191L1190.14 202.555H1197.65L1201.45 209.191L1197.65 215.718Z" fill="#EAECF0"/>
<path d="M1183.51 207.56H1175.89L1172.08 200.923L1175.89 194.396H1183.51L1187.31 200.923L1183.51 207.56Z" fill="#EAECF0"/>
<path d="M1169.25 199.292H1161.75L1157.94 192.765L1161.75 186.237H1169.25L1172.95 192.765L1169.25 199.292Z" fill="#EAECF0"/>
<path d="M1152.93 187.434H1149.56L1147.93 184.606L1149.56 181.668H1152.93L1154.67 184.606L1152.93 187.434Z" fill="#EAECF0"/>
<path d="M1124.65 171.116H1121.17L1119.43 168.179L1121.17 165.133H1124.65L1126.39 168.179L1124.65 171.116Z" fill="#EAECF0"/>
<path d="M1112.46 166.438H1104.96L1101.15 159.91L1104.96 153.492H1112.46L1116.16 159.91L1112.46 166.438Z" fill="#EAECF0"/>
<path d="M1053.72 130.209H1050.13L1048.39 127.163L1050.13 124.117H1053.72L1055.46 127.163L1053.72 130.209Z" fill="#EAECF0"/>
<path d="M415.553 107.145H410.331L407.611 102.576L410.331 98.0068H415.553L418.273 102.576L415.553 107.145Z" fill="#EAECF0"/>
<path d="M402.497 117.374H394.99L391.183 110.738L394.99 104.21H402.497L406.305 110.738L402.497 117.374Z" fill="#EAECF0"/>
<path d="M388.354 125.533H380.738L376.931 119.005L380.738 112.369H388.354L392.161 119.005L388.354 125.533Z" fill="#EAECF0"/>
<path d="M374.104 133.694H366.598L362.79 127.166L366.598 120.639H374.104L377.912 127.166L374.104 133.694Z" fill="#EAECF0"/>
<path d="M359.958 141.961H352.343L348.535 135.325L352.343 128.797H359.958L363.766 135.325L359.958 141.961Z" fill="#EAECF0"/>
<path d="M345.71 150.12H338.203L334.396 143.592L338.203 136.956H345.71L349.517 143.592L345.71 150.12Z" fill="#EAECF0"/>
<path d="M331.023 157.409H324.495L321.231 151.752L324.495 146.095H331.023L334.286 151.752L331.023 157.409Z" fill="#EAECF0"/>
<path d="M316.552 165.242H310.569L307.522 159.911L310.569 154.689H316.552L319.598 159.911L316.552 165.242Z" fill="#EAECF0"/>
<path d="M300.343 169.809H298.384L297.405 168.177L298.384 166.545H300.343L301.213 168.177L300.343 169.809Z" fill="#EAECF0"/>
<path d="M274.778 191.131H267.162L263.354 184.604L267.162 177.968H274.778L278.476 184.604L274.778 191.131Z" fill="#EAECF0"/>
<path d="M258.021 194.831H255.519L254.322 192.764L255.519 190.588H258.021L259.218 192.764L258.021 194.831Z" fill="#EAECF0"/>
<path d="M246.383 207.56H238.768L234.96 200.923L238.768 194.396H246.383L250.082 200.923L246.383 207.56Z" fill="#EAECF0"/>
<path d="M232.131 215.718H224.515L220.816 209.191L224.515 202.555H232.131L235.938 209.191L232.131 215.718Z" fill="#EAECF0"/>
<path d="M217.444 222.899H210.916L207.652 217.35L210.916 211.693H217.444L220.598 217.35L217.444 222.899Z" fill="#EAECF0"/>
<path d="M203.409 231.494H196.556L193.074 225.51L196.556 219.527H203.409L206.891 225.51L203.409 231.494Z" fill="#EAECF0"/>
<path d="M203.735 248.467H196.12L192.421 241.94L196.12 235.412H203.735L207.543 241.94L203.735 248.467Z" fill="#EAECF0"/>
<path d="M203.735 264.894H196.12L192.421 258.367L196.12 251.73H203.735L207.543 258.367L203.735 264.894Z" fill="#EAECF0"/>
<path d="M203.735 281.323H196.12L192.421 274.687L196.12 268.159H203.735L207.543 274.687L203.735 281.323Z" fill="#EAECF0"/>
<path d="M1240.3 273.055H1232.68L1228.87 266.528L1232.68 260H1240.3L1244.1 266.528L1240.3 273.055Z" fill="#EAECF0"/>
<path d="M1240.3 256.736H1232.68L1228.87 250.1L1232.68 243.572H1240.3L1244.1 250.1L1240.3 256.736Z" fill="#EAECF0"/>
<path d="M1240.3 240.307H1232.68L1228.87 233.78L1232.68 227.144H1240.3L1244.1 233.78L1240.3 240.307Z" fill="#EAECF0"/>
<path d="M1240.3 223.88H1232.68L1228.87 217.352L1232.68 210.825H1240.3L1244.1 217.352L1240.3 223.88Z" fill="#EAECF0"/>
<path d="M1226.04 215.718H1218.54L1214.73 209.191L1218.54 202.555H1226.04L1229.85 209.191L1226.04 215.718Z" fill="#EAECF0"/>
<path d="M1211.9 207.56H1204.28L1200.48 200.923L1204.28 194.396H1211.9L1215.71 200.923L1211.9 207.56Z" fill="#EAECF0"/>
<path d="M1196.02 196.357H1191.78L1189.71 192.767L1191.78 189.177H1196.02L1198.09 192.767L1196.02 196.357Z" fill="#EAECF0"/>
<path d="M387.484 107.69H381.61L378.563 102.577L381.61 97.4634H387.484L390.53 102.577L387.484 107.69Z" fill="#EAECF0"/>
<path d="M374.104 117.374H366.598L362.79 110.738L366.598 104.21H374.104L377.912 110.738L374.104 117.374Z" fill="#EAECF0"/>
<path d="M359.958 125.533H352.343L348.535 119.005L352.343 112.369H359.958L363.766 119.005L359.958 125.533Z" fill="#EAECF0"/>
<path d="M345.71 133.694H338.203L334.396 127.166L338.203 120.639H345.71L349.517 127.166L345.71 133.694Z" fill="#EAECF0"/>
<path d="M330.043 139.238H325.474L323.298 135.322L325.474 131.514H330.043L332.219 135.322L330.043 139.238Z" fill="#EAECF0"/>
<path d="M316.552 148.812H310.569L307.522 143.59L310.569 138.368H316.552L319.598 143.59L316.552 148.812Z" fill="#EAECF0"/>
<path d="M286.2 161.758H284.133L283.154 159.909L284.133 158.168H286.2L287.18 159.909L286.2 161.758Z" fill="#EAECF0"/>
<path d="M274.125 173.618H267.815L264.552 168.179L267.815 162.63H274.125L277.28 168.179L274.125 173.618Z" fill="#EAECF0"/>
<path d="M258.348 179.056H255.193L253.562 176.336L255.193 173.617H258.348L259.98 176.336L258.348 179.056Z" fill="#EAECF0"/>
<path d="M245.73 190.153H239.311L236.156 184.605L239.311 178.948H245.73L248.994 184.605L245.73 190.153Z" fill="#EAECF0"/>
<path d="M232.131 199.292H224.624L220.816 192.765L224.624 186.237H232.131L235.83 192.765L232.131 199.292Z" fill="#EAECF0"/>
<path d="M217.987 207.56H210.372L206.564 200.923L210.372 194.396H217.987L221.686 200.923L217.987 207.56Z" fill="#EAECF0"/>
<path d="M203.302 214.957H196.557L193.293 209.191L196.557 203.316H203.302L206.674 209.191L203.302 214.957Z" fill="#EAECF0"/>
<path d="M186.655 218.876H184.914L184.044 217.353L184.914 215.83H186.655L187.525 217.353L186.655 218.876Z" fill="#EAECF0"/>
<path d="M189.594 240.307H181.979L178.171 233.78L181.979 227.144H189.594L193.293 233.78L189.594 240.307Z" fill="#EAECF0"/>
<path d="M189.594 256.736H181.979L178.171 250.1L181.979 243.572H189.594L193.293 250.1L189.594 256.736Z" fill="#EAECF0"/>
<path d="M189.594 273.055H181.979L178.171 266.528L181.979 260H189.594L193.293 266.528L189.594 273.055Z" fill="#EAECF0"/>
<path d="M1254.44 281.323H1246.93L1243.12 274.687L1246.93 268.159H1254.44L1258.24 274.687L1254.44 281.323Z" fill="#EAECF0"/>
<path d="M1254.44 264.894H1246.93L1243.12 258.367L1246.93 251.73H1254.44L1258.24 258.367L1254.44 264.894Z" fill="#EAECF0"/>
<path d="M1254.44 248.467H1246.93L1243.12 241.94L1246.93 235.412H1254.44L1258.24 241.94L1254.44 248.467Z" fill="#EAECF0"/>
<path d="M1254.44 232.147H1246.93L1243.12 225.511L1246.93 218.983H1254.44L1258.24 225.511L1254.44 232.147Z" fill="#EAECF0"/>
<path d="M1254.44 215.718H1246.93L1243.12 209.191L1246.93 202.555H1254.44L1258.24 209.191L1254.44 215.718Z" fill="#EAECF0"/>
<path d="M1240.3 207.56H1232.68L1228.87 200.923L1232.68 194.396H1240.3L1244.1 200.923L1240.3 207.56Z" fill="#EAECF0"/>
<path d="M1224.41 196.357H1220.17L1218.1 192.767L1220.17 189.177H1224.41L1226.48 192.767L1224.41 196.357Z" fill="#EAECF0"/>
<path d="M358.436 106.495H353.867L351.582 102.578L353.867 98.6616H358.436L360.72 102.578L358.436 106.495Z" fill="#EAECF0"/>
<path d="M345.71 117.374H338.203L334.396 110.738L338.203 104.21H345.71L349.517 110.738L345.71 117.374Z" fill="#EAECF0"/>
<path d="M330.479 123.682H325.039L322.211 119.004L325.039 114.217H330.479L333.199 119.004L330.479 123.682Z" fill="#EAECF0"/>
<path d="M317.314 133.694H309.808L306 127.166L309.808 120.639H317.314L321.122 127.166L317.314 133.694Z" fill="#EAECF0"/>
<path d="M257.912 162.086H255.519L254.322 159.91L255.519 157.843H257.912L259.109 159.91L257.912 162.086Z" fill="#EAECF0"/>
<path d="M246.166 174.378H238.986L235.396 168.177L238.986 161.976H246.166L249.647 168.177L246.166 174.378Z" fill="#EAECF0"/>
<path d="M231.042 180.907H225.712L223.101 176.338L225.712 171.769H231.042L233.653 176.338L231.042 180.907Z" fill="#EAECF0"/>
<path d="M217.879 191.131H210.372L206.564 184.604L210.372 177.968H217.879L221.686 184.604L217.879 191.131Z" fill="#EAECF0"/>
<path d="M203.735 199.292H196.12L192.421 192.765L196.12 186.237H203.735L207.543 192.765L203.735 199.292Z" fill="#EAECF0"/>
<path d="M186.659 202.554H184.809L183.83 200.922L184.809 199.291H186.659L187.638 200.922L186.659 202.554Z" fill="#EAECF0"/>
<path d="M175.344 232.147H167.728L164.029 225.511L167.728 218.983H175.344L179.151 225.511L175.344 232.147Z" fill="#EAECF0"/>
<path d="M175.344 248.467H167.728L164.029 241.94L167.728 235.412H175.344L179.151 241.94L175.344 248.467Z" fill="#EAECF0"/>
<path d="M175.344 264.894H167.728L164.029 258.367L167.728 251.73H175.344L179.151 258.367L175.344 264.894Z" fill="#EAECF0"/>
<path d="M175.344 281.323H167.728L164.029 274.687L167.728 268.159H175.344L179.151 274.687L175.344 281.323Z" fill="#EAECF0"/>
<path d="M1268.69 273.055H1261.07L1257.27 266.528L1261.07 260H1268.69L1272.5 266.528L1268.69 273.055Z" fill="#EAECF0"/>
<path d="M1268.69 256.736H1261.07L1257.27 250.1L1261.07 243.572H1268.69L1272.5 250.1L1268.69 256.736Z" fill="#EAECF0"/>
<path d="M1268.69 240.307H1261.07L1257.27 233.78L1261.07 227.144H1268.69L1272.5 233.78L1268.69 240.307Z" fill="#EAECF0"/>
<path d="M1268.69 223.88H1261.07L1257.27 217.352L1261.07 210.825H1268.69L1272.5 217.352L1268.69 223.88Z" fill="#EAECF0"/>
<path d="M1268.69 207.56H1261.07L1257.27 200.923L1261.07 194.396H1268.69L1272.5 200.923L1268.69 207.56Z" fill="#EAECF0"/>
<path d="M1254.44 199.292H1246.93L1243.12 192.765L1246.93 186.237H1254.44L1258.24 192.765L1254.44 199.292Z" fill="#EAECF0"/>
<path d="M1238.34 187.762H1234.64L1232.79 184.607L1234.64 181.343H1238.34L1240.18 184.607L1238.34 187.762Z" fill="#EAECF0"/>
<path d="M328.409 103.665H327.104L326.451 102.577L327.104 101.489H328.409L329.062 102.577L328.409 103.665Z" fill="#EAECF0"/>
<path d="M314.161 111.933H312.964L312.312 110.736L312.964 109.648H314.161L314.814 110.736L314.161 111.933Z" fill="#EAECF0"/>
<path d="M243.987 154.252H241.159L239.636 151.75L241.159 149.248H243.987L245.402 151.75L243.987 154.252Z" fill="#EAECF0"/>
<path d="M229.304 161.541H227.455L226.476 159.909L227.455 158.386H229.304L230.174 159.909L229.304 161.541Z" fill="#EAECF0"/>
<path d="M215.814 171.008H212.55L210.81 168.18L212.55 165.351H215.814L217.446 168.18L215.814 171.008Z" fill="#EAECF0"/>
<path d="M203.629 182.647H196.34L192.75 176.337L196.34 170.027H203.629L207.219 176.337L203.629 182.647Z" fill="#EAECF0"/>
<path d="M189.594 191.131H181.979L178.171 184.604L181.979 177.968H189.594L193.293 184.604L189.594 191.131Z" fill="#EAECF0"/>
<path d="M175.344 199.292H167.728L164.029 192.765L167.728 186.237H175.344L179.151 192.765L175.344 199.292Z" fill="#EAECF0"/>
<path d="M159.569 221.161H155.217L152.933 217.354L155.217 213.546H159.569L161.745 217.354L159.569 221.161Z" fill="#EAECF0"/>
<path d="M161.198 240.307H153.583L149.775 233.78L153.583 227.144H161.198L164.897 233.78L161.198 240.307Z" fill="#EAECF0"/>
<path d="M161.198 256.736H153.583L149.775 250.1L153.583 243.572H161.198L164.897 250.1L161.198 256.736Z" fill="#EAECF0"/>
<path d="M161.198 273.055H153.583L149.775 266.528L153.583 260H161.198L164.897 266.528L161.198 273.055Z" fill="#EAECF0"/>
<path d="M1282.84 281.323H1275.33L1271.52 274.687L1275.33 268.159H1282.84L1286.64 274.687L1282.84 281.323Z" fill="#EAECF0"/>
<path d="M1282.84 264.894H1275.33L1271.52 258.367L1275.33 251.73H1282.84L1286.64 258.367L1282.84 264.894Z" fill="#EAECF0"/>
<path d="M1282.84 248.467H1275.33L1271.52 241.94L1275.33 235.412H1282.84L1286.64 241.94L1282.84 248.467Z" fill="#EAECF0"/>
<path d="M1282.84 232.147H1275.33L1271.52 225.511L1275.33 218.983H1282.84L1286.64 225.511L1282.84 232.147Z" fill="#EAECF0"/>
<path d="M1282.84 215.718H1275.33L1271.52 209.191L1275.33 202.555H1282.84L1286.64 209.191L1282.84 215.718Z" fill="#EAECF0"/>
<path d="M1239.86 173.945H1233.11L1229.74 168.179L1233.11 162.305H1239.86L1243.23 168.179L1239.86 173.945Z" fill="#EAECF0"/>
<path d="M1225.28 165.132H1219.3L1216.25 159.91L1219.3 154.797H1225.28L1228.33 159.91L1225.28 165.132Z" fill="#EAECF0"/>
<path d="M187.094 170.461H184.374L183.068 168.177L184.374 165.783H187.094L188.508 168.177L187.094 170.461Z" fill="#EAECF0"/>
<path d="M173.492 179.601H169.685L167.727 176.337L169.685 173.073H173.492L175.342 176.337L173.492 179.601Z" fill="#EAECF0"/>
<path d="M146.95 232.147H139.335L135.636 225.511L139.335 218.983H146.95L150.758 225.511L146.95 232.147Z" fill="#EAECF0"/>
<path d="M146.95 248.467H139.335L135.636 241.94L139.335 235.412H146.95L150.758 241.94L146.95 248.467Z" fill="#EAECF0"/>
<path d="M146.95 264.894H139.335L135.636 258.367L139.335 251.73H146.95L150.758 258.367L146.95 264.894Z" fill="#EAECF0"/>
<path d="M146.95 281.323H139.335L135.636 274.687L139.335 268.159H146.95L150.758 274.687L146.95 281.323Z" fill="#EAECF0"/>
<path d="M1297.09 273.055H1289.47L1285.67 266.528L1289.47 260H1297.09L1300.9 266.528L1297.09 273.055Z" fill="#EAECF0"/>
<path d="M1297.09 256.736H1289.47L1285.67 250.1L1289.47 243.572H1297.09L1300.9 250.1L1297.09 256.736Z" fill="#EAECF0"/>
<path d="M1297.09 240.307H1289.47L1285.67 233.78L1289.47 227.144H1297.09L1300.9 233.78L1297.09 240.307Z" fill="#EAECF0"/>
<path d="M1297.09 223.88H1289.47L1285.67 217.352L1289.47 210.825H1297.09L1300.9 217.352L1297.09 223.88Z" fill="#EAECF0"/>
<path d="M1294.26 202.663H1292.3L1291.32 200.922L1292.3 199.291H1294.26L1295.24 200.922L1294.26 202.663Z" fill="#EAECF0"/>
<path d="M131.391 221.595H126.495L124.102 217.352L126.495 213.109H131.391L133.893 217.352L131.391 221.595Z" fill="#EAECF0"/>
<path d="M132.694 240.307H125.188L121.38 233.78L125.188 227.144H132.694L136.502 233.78L132.694 240.307Z" fill="#EAECF0"/>
<path d="M132.694 256.736H125.188L121.38 250.1L125.188 243.572H132.694L136.502 250.1L132.694 256.736Z" fill="#EAECF0"/>
<path d="M132.694 273.055H125.188L121.38 266.528L125.188 260H132.694L136.502 266.528L132.694 273.055Z" fill="#EAECF0"/>
<path d="M1311.23 281.323H1303.72L1299.91 274.687L1303.72 268.159H1311.23L1315.03 274.687L1311.23 281.323Z" fill="#EAECF0"/>
<path d="M1311.23 264.894H1303.72L1299.91 258.367L1303.72 251.73H1311.23L1315.03 258.367L1311.23 264.894Z" fill="#EAECF0"/>
<path d="M1311.23 248.467H1303.72L1299.91 241.94L1303.72 235.412H1311.23L1315.03 241.94L1311.23 248.467Z" fill="#EAECF0"/>
<path d="M1311.23 232.147H1303.72L1299.91 225.511L1303.72 218.983H1311.23L1315.03 225.511L1311.23 232.147Z" fill="#EAECF0"/>
<path d="M1311.23 215.718H1303.72L1299.91 209.191L1303.72 202.555H1311.23L1315.03 209.191L1311.23 215.718Z" fill="#EAECF0"/>
<path d="M118.554 232.147H110.939L107.24 225.511L110.939 218.983H118.554L122.362 225.511L118.554 232.147Z" fill="#EAECF0"/>
<path d="M118.554 248.467H110.939L107.24 241.94L110.939 235.412H118.554L122.362 241.94L118.554 248.467Z" fill="#EAECF0"/>
<path d="M118.554 264.894H110.939L107.24 258.367L110.939 251.73H118.554L122.362 258.367L118.554 264.894Z" fill="#EAECF0"/>
<path d="M118.554 281.323H110.939L107.24 274.687L110.939 268.159H118.554L122.362 274.687L118.554 281.323Z" fill="#EAECF0"/>
<path d="M1325.48 273.055H1317.87L1314.17 266.528L1317.87 260H1325.48L1329.29 266.528L1325.48 273.055Z" fill="#EAECF0"/>
<path d="M1325.48 256.736H1317.87L1314.17 250.1L1317.87 243.572H1325.48L1329.29 250.1L1325.48 256.736Z" fill="#EAECF0"/>
<path d="M1325.48 240.307H1317.87L1314.17 233.78L1317.87 227.144H1325.48L1329.29 233.78L1325.48 240.307Z" fill="#EAECF0"/>
<path d="M1325.37 223.769H1317.97L1314.27 217.35L1317.97 210.932H1325.37L1329.06 217.35L1325.37 223.769Z" fill="#EAECF0"/>
<path d="M103.322 222.029H97.8829L95.1631 217.351L97.8829 212.673H103.322L106.042 217.351L103.322 222.029Z" fill="#EAECF0"/>
<path d="M104.303 240.307H96.796L92.9883 233.78L96.796 227.144H104.303L108.11 233.78L104.303 240.307Z" fill="#EAECF0"/>
<path d="M104.303 256.736H96.796L92.9883 250.1L96.796 243.572H104.303L108.11 250.1L104.303 256.736Z" fill="#EAECF0"/>
<path d="M104.303 273.055H96.796L92.9883 266.528L96.796 260H104.303L108.11 266.528L104.303 273.055Z" fill="#EAECF0"/>
<path d="M1339.62 281.214H1332.12L1328.31 274.687L1332.12 268.159H1339.62L1343.43 274.687L1339.62 281.214Z" fill="#EAECF0"/>
<path d="M1339.62 264.894H1332.12L1328.31 258.367L1332.12 251.73H1339.62L1343.43 258.367L1339.62 264.894Z" fill="#EAECF0"/>
<path d="M1339.62 248.467H1332.12L1328.31 241.94L1332.12 235.412H1339.62L1343.43 241.94L1339.62 248.467Z" fill="#EAECF0"/>
<path d="M1339.62 232.147H1332.12L1328.31 225.511L1332.12 218.983H1339.62L1343.43 225.511L1339.62 232.147Z" fill="#EAECF0"/>
<path d="M87.1123 210.388H85.6981L84.9365 209.191L85.6981 207.886H87.1123L87.7651 209.191L87.1123 210.388Z" fill="#EAECF0"/>
<path d="M90.159 232.147H82.5436L78.8447 225.511L82.5436 218.983H90.159L93.9667 225.511L90.159 232.147Z" fill="#EAECF0"/>
<path d="M90.159 248.467H82.5436L78.8447 241.94L82.5436 235.412H90.159L93.9667 241.94L90.159 248.467Z" fill="#EAECF0"/>
<path d="M90.159 264.894H82.5436L78.8447 258.367L82.5436 251.73H90.159L93.9667 258.367L90.159 264.894Z" fill="#EAECF0"/>
<path d="M90.159 281.323H82.5436L78.8447 274.687L82.5436 268.159H90.159L93.9667 274.687L90.159 281.323Z" fill="#EAECF0"/>
<path d="M1353.87 273.055H1346.26L1342.56 266.528L1346.26 260H1353.87L1357.68 266.528L1353.87 273.055Z" fill="#EAECF0"/>
<path d="M1353.87 256.736H1346.26L1342.56 250.1L1346.26 243.572H1353.87L1357.68 250.1L1353.87 256.736Z" fill="#EAECF0"/>
<path d="M1353.87 240.307H1346.26L1342.56 233.78L1346.26 227.144H1353.87L1357.68 233.78L1353.87 240.307Z" fill="#EAECF0"/>
<path d="M1353.77 223.663H1346.48L1342.78 217.353L1346.48 211.043H1353.77L1357.36 217.353L1353.77 223.663Z" fill="#EAECF0"/>
<path d="M75.909 223.88H68.4024L64.5947 217.352L68.4024 210.825H75.909L79.7167 217.352L75.909 223.88Z" fill="#EAECF0"/>
<path d="M75.909 240.307H68.4024L64.5947 233.78L68.4024 227.144H75.909L79.7167 233.78L75.909 240.307Z" fill="#EAECF0"/>
<path d="M75.909 256.736H68.4024L64.5947 250.1L68.4024 243.572H75.909L79.7167 250.1L75.909 256.736Z" fill="#EAECF0"/>
<path d="M75.909 273.055H68.4024L64.5947 266.528L68.4024 260H75.909L79.7167 266.528L75.909 273.055Z" fill="#EAECF0"/>
<path d="M1368.01 281.323H1360.51L1356.7 274.687L1360.51 268.159H1368.01L1371.82 274.687L1368.01 281.323Z" fill="#EAECF0"/>
<path d="M1368.01 264.894H1360.51L1356.7 258.367L1360.51 251.73H1368.01L1371.82 258.367L1368.01 264.894Z" fill="#EAECF0"/>
<path d="M1368.01 248.467H1360.51L1356.7 241.94L1360.51 235.412H1368.01L1371.82 241.94L1368.01 248.467Z" fill="#EAECF0"/>
<path d="M1368.01 232.147H1360.51L1356.7 225.511L1360.51 218.983H1368.01L1371.82 225.511L1368.01 232.147Z" fill="#EAECF0"/>
<path d="M1365.95 212.021H1362.58L1360.95 209.193L1362.58 206.255H1365.95L1367.58 209.193L1365.95 212.021Z" fill="#EAECF0"/>
<path d="M59.9128 212.566H55.9963L54.0381 209.194L55.9963 205.712H59.9128L61.9798 209.194L59.9128 212.566Z" fill="#EAECF0"/>
<path d="M61.7639 232.147H54.1485L50.3408 225.511L54.1485 218.983H61.7639L65.5715 225.511L61.7639 232.147Z" fill="#EAECF0"/>
<path d="M61.7639 248.467H54.1485L50.3408 241.94L54.1485 235.412H61.7639L65.5715 241.94L61.7639 248.467Z" fill="#EAECF0"/>
<path d="M61.7639 264.894H54.1485L50.3408 258.367L54.1485 251.73H61.7639L65.5715 258.367L61.7639 264.894Z" fill="#EAECF0"/>
<path d="M61.7639 281.323H54.1485L50.3408 274.687L54.1485 268.159H61.7639L65.5715 274.687L61.7639 281.323Z" fill="#EAECF0"/>
<path d="M1382.27 273.055H1374.65L1370.96 266.528L1374.65 260H1382.27L1386.08 266.528L1382.27 273.055Z" fill="#EAECF0"/>
<path d="M1382.27 256.736H1374.65L1370.96 250.1L1374.65 243.572H1382.27L1386.08 250.1L1382.27 256.736Z" fill="#EAECF0"/>
<path d="M1382.27 240.307H1374.65L1370.96 233.78L1374.65 227.144H1382.27L1386.08 233.78L1382.27 240.307Z" fill="#EAECF0"/>
<path d="M1382.27 223.88H1374.76L1370.96 217.352L1374.76 210.825H1382.27L1386.08 217.352L1382.27 223.88Z" fill="#EAECF0"/>
<path d="M44.6856 202.448H42.9449L41.9658 200.925L42.9449 199.402H44.6856L45.5559 200.925L44.6856 202.448Z" fill="#EAECF0"/>
<path d="M47.5115 223.88H40.0049L36.1973 217.352L40.0049 210.825H47.5115L51.3192 217.352L47.5115 223.88Z" fill="#EAECF0"/>
<path d="M47.5115 240.307H40.0049L36.1973 233.78L40.0049 227.144H47.5115L51.3192 233.78L47.5115 240.307Z" fill="#EAECF0"/>
<path d="M47.5115 256.736H40.0049L36.1973 250.1L40.0049 243.572H47.5115L51.3192 250.1L47.5115 256.736Z" fill="#EAECF0"/>
<path d="M47.5115 273.055H40.0049L36.1973 266.528L40.0049 260H47.5115L51.3192 266.528L47.5115 273.055Z" fill="#EAECF0"/>
<path d="M1396.52 281.323H1388.9L1385.09 274.687L1388.9 268.159H1396.52L1400.21 274.687L1396.52 281.323Z" fill="#EAECF0"/>
<path d="M1396.52 264.894H1388.9L1385.09 258.367L1388.9 251.73H1396.52L1400.21 258.367L1396.52 264.894Z" fill="#EAECF0"/>
<path d="M1396.52 248.467H1388.9L1385.09 241.94L1388.9 235.412H1396.52L1400.21 241.94L1396.52 248.467Z" fill="#EAECF0"/>
<path d="M1396.52 232.147H1388.9L1385.09 225.511L1388.9 218.983H1396.52L1400.21 225.511L1396.52 232.147Z" fill="#EAECF0"/>
<path d="M32.8279 214.74H26.3004L23.1455 209.192L26.3004 203.535H32.8279L35.9828 209.192L32.8279 214.74Z" fill="#EAECF0"/>
<path d="M33.3703 232.147H25.7549L21.9473 225.511L25.7549 218.983H33.3703L37.178 225.511L33.3703 232.147Z" fill="#EAECF0"/>
<path d="M33.3703 248.467H25.7549L21.9473 241.94L25.7549 235.412H33.3703L37.178 241.94L33.3703 248.467Z" fill="#EAECF0"/>
<path d="M33.3703 264.894H25.7549L21.9473 258.367L25.7549 251.73H33.3703L37.178 258.367L33.3703 264.894Z" fill="#EAECF0"/>
<path d="M33.3703 281.323H25.7549L21.9473 274.687L25.7549 268.159H33.3703L37.178 274.687L33.3703 281.323Z" fill="#EAECF0"/>
<path d="M1410.66 273.055H1403.05L1399.35 266.528L1403.05 260H1410.66L1414.47 266.528L1410.66 273.055Z" fill="#EAECF0"/>
<path d="M1410.66 256.736H1403.05L1399.35 250.1L1403.05 243.572H1410.66L1414.47 250.1L1410.66 256.736Z" fill="#EAECF0"/>
<path d="M1410.66 240.307H1403.05L1399.35 233.78L1403.05 227.144H1410.66L1414.47 233.78L1410.66 240.307Z" fill="#EAECF0"/>
<path d="M1407.73 218.876H1405.98L1405.11 217.353L1405.98 215.83H1407.73L1408.6 217.353L1407.73 218.876Z" fill="#EAECF0"/>
<path d="M19.118 223.88H11.6114L7.80371 217.352L11.6114 210.825H19.118L22.9256 217.352L19.118 223.88Z" fill="#EAECF0"/>
<path d="M18.6855 239.546H12.0493L8.67676 233.781L12.0493 228.015H18.6855L22.058 233.781L18.6855 239.546Z" fill="#EAECF0"/>
<path d="M19.118 256.736H11.6114L7.80371 250.1L11.6114 243.572H19.118L22.9256 250.1L19.118 256.736Z" fill="#EAECF0"/>
<path d="M19.118 273.055H11.6114L7.80371 266.528L11.6114 260H19.118L22.9256 266.528L19.118 273.055Z" fill="#EAECF0"/>
<path d="M1423.39 262.282H1418.82L1416.43 258.366L1418.82 254.34H1423.39L1425.67 258.366L1423.39 262.282Z" fill="#EAECF0"/>
<path d="M1424.91 248.467H1417.3L1413.49 241.94L1417.3 235.412H1424.91L1428.61 241.94L1424.91 248.467Z" fill="#EAECF0"/>
<path d="M1424.15 230.843H1417.95L1414.9 225.512L1417.95 220.182H1424.15L1427.2 225.512L1424.15 230.843Z" fill="#EAECF0"/>
<path d="M1.82151 210.282H0.516024L-0.136719 209.194L0.516024 207.997H1.82151L2.47426 209.194L1.82151 210.282Z" fill="#EAECF0"/>
<path d="M2.9075 228.558H-0.573802L-2.31445 225.512L-0.573802 222.466H2.9075L4.75695 225.512L2.9075 228.558Z" fill="#EAECF0"/>
<path d="M4.86815 248.358H-2.52963L-6.22852 241.939L-2.52963 235.521H4.86815L8.67582 241.939L4.86815 248.358Z" fill="#EAECF0"/>
<path d="M4.10444 263.482H-1.77026L-4.81641 258.368L-1.77026 253.146H4.10444L7.15058 258.368L4.10444 263.482Z" fill="#EAECF0"/>
<path d="M4.97577 281.323H-2.63959L-6.44727 274.687L-2.63959 268.159H4.97577L8.78345 274.687L4.97577 281.323Z" fill="#EAECF0"/>
<path d="M1437.86 254.668H1432.63L1430.02 250.099L1432.63 245.639H1437.86L1440.58 250.099L1437.86 254.668Z" fill="#EAECF0"/>
<path d="M1437.75 238.024H1432.86L1430.36 233.781L1432.86 229.538H1437.75L1440.15 233.781L1437.75 238.024Z" fill="#EAECF0"/>
<rect x="-16" y="30" width="1469" height="1007" fill="url(#paint0_linear_473_121381)"/>
</g>
<defs>
<filter id="filter0_d_473_121381" x="-1395" y="0" width="4229" height="4229" filterUnits="userSpaceOnUse" color-interpolation-filters="sRGB">
<feFlood flood-opacity="0" result="BackgroundImageFix"/>
<feColorMatrix in="SourceAlpha" type="matrix" values="0 0 0 0 0 0 0 0 0 0 0 0 0 0 0 0 0 0 127 0" result="hardAlpha"/>
<feOffset dy="-20"/>
<feGaussianBlur stdDeviation="25"/>
<feComposite in2="hardAlpha" operator="out"/>
<feColorMatrix type="matrix" values="0 0 0 0 0 0 0 0 0 0 0 0 0 0 0 0 0 0 0.25 0"/>
<feBlend mode="normal" in2="BackgroundImageFix" result="effect1_dropShadow_473_121381"/>
<feBlend mode="normal" in="SourceGraphic" in2="effect1_dropShadow_473_121381" result="shape"/>
</filter>
<linearGradient id="paint0_linear_473_121381" x1="718" y1="-91" x2="718.5" y2="1037" gradientUnits="userSpaceOnUse">
<stop stop-color="white" stop-opacity="0"/>
<stop offset="0.415033" stop-color="white"/>
</linearGradient>
</defs>
</svg>
