<svg width="25" height="25" viewBox="0 0 25 25" fill="none" xmlns="http://www.w3.org/2000/svg">
<path d="M5.73961 22.2695C11.3596 25.7765 18.7596 24.0605 22.2696 18.4375C25.7696 12.8135 24.0596 5.41155 18.4396 1.90455C12.8096 -1.60145 5.40965 0.11456 1.89965 5.73756C-1.60035 11.3616 0.109612 18.7625 5.73961 22.2695Z" fill="#D80027"/>
<path d="M19.4796 13.053L15.7897 10.753C16.1597 10.657 16.5096 10.421 16.7296 10.065C17.1896 9.332 16.9596 8.367 16.2296 7.909C15.7696 7.621 15.2096 7.60299 14.7496 7.81299C14.7396 7.30699 14.4796 6.81699 14.0096 6.52899C13.2796 6.07099 12.3196 6.29499 11.8596 7.02899C11.6396 7.38399 11.5797 7.79499 11.6497 8.17499L7.9696 5.875C7.3596 6.853 7.70958 8.17699 8.68958 8.78699L8.62964 8.75C8.01964 9.728 8.31968 11.015 9.29968 11.625C9.09968 11.942 8.99962 12.291 8.98962 12.639L6.59961 13.192L7.01965 15.022L9.61963 14.42C9.66963 14.482 9.71966 14.541 9.77966 14.595L7.44958 16.174L7.93958 18.729L10.4496 18.044L10.8496 15.26C10.9196 15.289 10.9996 15.311 11.0796 15.327L11.6797 17.923L13.5096 17.499L12.9496 15.114C13.2596 14.948 13.5296 14.703 13.7296 14.386C14.6996 14.996 15.9896 14.697 16.5996 13.719L16.5397 13.683C17.5197 14.292 18.8696 14.031 19.4796 13.053Z" fill="black"/>
</svg>
