<svg width="25" height="25" viewBox="0 0 25 25" fill="none" xmlns="http://www.w3.org/2000/svg">
<path d="M9.93041 24.5071C16.3504 26.1331 22.8804 22.2431 24.5104 15.8191C26.1304 9.39414 22.2403 2.86714 15.8203 1.24114C9.3903 -0.385864 2.87034 3.50412 1.24034 9.92912C-0.389657 16.3541 3.50041 22.8801 9.93041 24.5071Z" fill="#F0F0F0"/>
<path d="M24.5112 15.8207C25.6812 11.2087 24.0012 6.54373 20.5812 3.67773L15.2812 24.6348C19.6512 23.7388 23.3412 20.4327 24.5112 15.8207Z" fill="#D80027"/>
<path d="M1.2397 9.92926C0.0696967 14.5413 1.74974 19.2052 5.15974 22.0722L10.4697 1.11523C6.09968 2.01123 2.4097 5.31726 1.2397 9.92926Z" fill="#D80027"/>
<path d="M14.5112 14.9059L16.7913 14.4059L15.9113 13.6439L16.1613 12.6329L13.8912 13.132L15.4113 11.3649L14.4012 11.1089L13.7712 9.33594L12.3712 10.5969L11.3612 10.3409L11.8612 12.6199L10.0912 11.0969L9.84119 12.1079L8.70117 12.3579L10.4712 13.8809L9.70117 14.765L11.7312 15.2769L11.3412 16.7949L12.3612 17.051L12.7412 15.533L14.7612 16.0449L14.5112 14.9059Z" fill="#D80027"/>
</svg>
