<svg width="25" height="25" viewBox="0 0 25 25" fill="none" xmlns="http://www.w3.org/2000/svg">
<path d="M17.7122 23.4602C23.5894 20.3972 25.871 13.1502 22.8082 7.27324C19.7454 1.39624 12.498 -0.885767 6.62084 2.17723C0.743641 5.24023 -1.53796 12.4872 1.52484 18.3642C4.58764 24.2422 11.835 26.5232 17.7122 23.4602Z" fill="#D80027"/>
<path d="M5.17756 11.1641L7.56926 13.5121L10.5415 11.9631L9.05087 14.9651L11.4426 17.3131L8.12587 16.8211L6.62886 19.8221L6.07866 16.5141L2.75977 16.0181L5.73196 14.4691L5.17756 11.1641Z" fill="#FFDA44"/>
<path d="M17.1842 17.6289L16.0311 17.1309L15.202 18.0749L15.3174 16.8259L14.1621 16.3229L15.3882 16.0489L15.5077 14.7969L16.1465 15.8809L17.3767 15.6049L16.5413 16.5479L17.1842 17.6289Z" fill="#FFDA44"/>
<path d="M17.2591 14.3669L17.0371 13.1299L15.791 12.96L16.8964 12.3629L16.6702 11.127L17.5821 11.9949L18.6896 11.4019L18.1425 12.532L19.0502 13.4019L17.8041 13.2319L17.2591 14.3669Z" fill="#FFDA44"/>
<path d="M15.9449 7.24805L15.9765 8.50607L17.1797 8.86707L15.9958 9.28305L16.0252 10.537L15.2621 9.53906L14.074 9.95706L14.7926 8.92206L14.0273 7.92007L15.2305 8.28107L15.9449 7.24805Z" fill="#FFDA44"/>
<path d="M11.1129 5.91016L11.6081 7.06415L12.862 6.94415L11.9157 7.77515L12.4173 8.93115L11.3372 8.28815L10.3909 9.12015L10.666 7.89316L9.58398 7.25717L10.8378 7.13715L11.1129 5.91016Z" fill="#FFDA44"/>
</svg>
