<svg width="25" height="25" viewBox="0 0 25 25" fill="none" xmlns="http://www.w3.org/2000/svg">
<path d="M9.08467 23.7832C15.4863 25.4982 22.0663 21.6992 23.7816 15.2982C25.4969 8.8962 21.698 2.3162 15.2964 0.601199C8.89477 -1.1138 2.31467 2.6852 0.599367 9.0862C-1.11593 15.4882 2.68307 22.0682 9.08467 23.7832Z" fill="#FCFCFC"/>
<path d="M19.1463 12.4368C18.7935 12.3418 18.3567 12.2248 17.6344 12.0318C16.8886 14.8148 14.0277 16.4668 11.2444 15.7208C8.46113 14.9748 6.80943 12.1138 7.55523 9.33078C7.06803 9.19978 6.53043 9.05578 6.04333 8.92578C5.24003 11.9238 6.57653 14.9908 9.11673 16.5058C8.66193 16.9978 8.51473 17.7308 8.80133 18.3838C9.48813 18.0818 10.1992 17.7698 10.8024 17.5048C11.1924 18.0358 11.6522 18.6618 12.0961 19.2658C12.6763 18.8398 12.9146 18.1218 12.7574 17.4628C15.6898 17.3938 18.3486 15.4128 19.1463 12.4368Z" fill="#6DA544"/>
<path d="M8.69939 9.097C8.69939 9.097 8.02419 11.617 10.544 12.292L10.9129 12.931L11.9208 13.201C11.9208 13.201 12.8299 11.824 13.8378 12.094C13.8378 12.094 14.1079 11.086 15.1158 11.356C16.1237 11.627 16.6277 11.762 16.6277 11.762C16.6277 11.762 16.6639 9.611 19.5888 8.774L18.7159 8C18.7159 8 14.513 9.575 12.1282 8.395L11.8581 9.403L10.8502 9.133L10.4813 8.494L8.69939 9.097Z" fill="#FFDA44"/>
</svg>
