<svg width="25" height="25" viewBox="0 0 25 25" fill="none" xmlns="http://www.w3.org/2000/svg">
<path d="M18.9467 22.3428C24.6507 18.9675 26.5377 11.6077 23.1627 5.9042C19.7877 0.200603 12.4276 -1.68689 6.72462 1.68841C1.02062 5.06361 -0.866379 12.4234 2.50862 18.1269C5.88362 23.8305 13.2437 25.718 18.9467 22.3428Z" fill="#F0F0F0"/>
<path d="M22.2788 4.60822L9.79382 11.9964L4.62482 3.26172C3.79582 4.03812 3.09381 4.91662 2.52881 5.86622L7.09979 13.5907L1.79883 16.7275C2.00283 17.2025 2.23879 17.6698 2.50879 18.1263C2.77879 18.5828 3.0748 19.0147 3.3938 19.4216L8.69379 16.2848L13.2648 24.0092C14.3698 23.9707 15.4778 23.7783 16.5568 23.4251L11.3878 14.6906L23.8728 7.30231C23.6698 6.82741 23.4338 6.36002 23.1628 5.90352C22.8928 5.44702 22.5968 5.01522 22.2788 4.60822Z" fill="#0052B4"/>
</svg>
