<svg width="25" height="25" viewBox="0 0 25 25" fill="none" xmlns="http://www.w3.org/2000/svg">
<path d="M3.12109 20.1287C6.17109 23.9277 11.3711 25.6267 16.2711 23.9957C21.1611 22.3647 24.3111 17.8847 24.4711 13.0137L13.4611 15.5806L3.12109 20.1287Z" fill="#FFDA44"/>
<path d="M8.68054 1.22597C3.79054 2.85697 0.640469 7.33697 0.480469 12.208L11.4905 9.63997L21.8304 5.09298C18.7804 1.29398 13.5805 -0.405029 8.68054 1.22597Z" fill="black"/>
<path d="M0.480147 12.2068C0.430147 13.5928 0.630132 15.0108 1.09013 16.4028C1.55013 17.7958 2.25016 19.0458 3.12016 20.1268L24.4701 13.0118C24.5201 11.6258 24.3202 10.2088 23.8602 8.8158C23.4002 7.4238 22.7001 6.1728 21.8301 5.0918L0.480147 12.2068Z" fill="#D80027"/>
</svg>
