<svg width="34" height="32" viewBox="0 0 34 32" fill="none" xmlns="http://www.w3.org/2000/svg">
<g clip-path="url(#clip0_3352_8644)">
<path d="M10.7072 25.0849C16.4579 28.379 23.7903 26.3875 27.0844 20.6367C30.3786 14.886 28.3871 7.55363 22.6363 4.25949C16.8855 0.965351 9.5532 2.95684 6.25906 8.7076C2.96492 14.4584 4.95641 21.7907 10.7072 25.0849Z" fill="#F0F0F0"/>
<path d="M22.6373 4.25847C18.5091 1.89375 13.5659 2.25295 9.88653 4.77118L28.6454 15.5166C28.9563 11.0689 26.7655 6.62316 22.6373 4.25847Z" fill="#FF9811"/>
<path d="M10.7074 25.0843C14.8356 27.449 19.7788 27.0899 23.4582 24.5716L4.69922 13.8262C4.38834 18.2739 6.57918 22.7196 10.7074 25.0843Z" fill="#6DA544"/>
<path d="M14.5975 18.2938C16.5978 19.4396 19.1482 18.7469 20.2939 16.7466C21.4397 14.7464 20.747 12.196 18.7468 11.0502C16.7465 9.90443 14.1962 10.5971 13.0504 12.5974C11.9046 14.5976 12.5973 17.148 14.5975 18.2938Z" fill="#0052B4"/>
<path d="M15.3754 16.9352C16.6256 17.6513 18.2196 17.2184 18.9357 15.9682C19.6518 14.7181 19.2189 13.1241 17.9687 12.408C16.7185 11.6919 15.1246 12.1248 14.4084 13.3749C13.6923 14.6251 14.1253 16.2191 15.3754 16.9352Z" fill="#F0F0F0"/>
<path d="M18.2726 11.8788L18.0637 13.8626L19.8916 14.6611L18.0692 15.4721L18.2915 17.4544L16.678 16.2816L15.0725 17.4654L15.2813 15.4816L13.4535 14.683L15.2759 13.8721L15.0535 11.8898L16.667 13.0626L18.2726 11.8788Z" fill="#0052B4"/>
</g>
<defs>
<clipPath id="clip0_3352_8644">
<rect width="24" height="24" fill="white" transform="translate(12.2236 -1.70508) rotate(29.8049)"/>
</clipPath>
</defs>
</svg>
