<svg width="25" height="25" viewBox="0 0 25 25" fill="none" xmlns="http://www.w3.org/2000/svg">
<path d="M6.69926 23.0467C12.4713 26.3017 19.7903 24.2617 23.0463 18.4887C26.3013 12.7167 24.2613 5.39775 18.4883 2.14175C12.7163 -1.11425 5.39726 0.926723 2.14126 6.69872C-1.11374 12.4717 0.926263 19.7907 6.69926 23.0467Z" fill="#F0F0F0"/>
<path d="M17.81 12.5428L15.186 11.0628L15.155 8.05078L12.562 9.58276L9.938 8.10278L9.96901 11.1158L7.375 12.6478L9.99901 14.1278L10.029 17.1398L12.623 15.6068L15.247 17.0868L15.216 14.0748L17.81 12.5428ZM14.204 13.5038L12.611 14.4458L10.999 13.5368L10.981 11.6858L12.574 10.7448L14.186 11.6538L14.204 13.5038ZM14.167 9.80276L14.174 10.4918L13.574 10.1538L14.167 9.80276ZM10.962 9.83578L11.562 10.1738L10.969 10.5238L10.962 9.83578ZM9.388 12.6278L9.98001 12.2768L9.987 12.9658L9.388 12.6278ZM11.018 15.3868L11.011 14.6978L11.611 15.0368L11.018 15.3868ZM14.223 15.3548L13.623 15.0158L14.216 14.6658L14.223 15.3548ZM15.197 12.2248L15.797 12.5628L15.204 12.9128L15.197 12.2248Z" fill="#0052B4"/>
<path d="M23.713 8.08313L10.7 0.744141C9.31701 0.966141 7.979 1.42711 6.75 2.11111L24.587 12.1701C24.536 10.7651 24.238 9.38113 23.713 8.08313Z" fill="#0052B4"/>
<path d="M1.47362 17.1036L14.4856 24.4426C15.8686 24.2216 17.2066 23.7596 18.4356 23.0766L0.599609 13.0176C0.650609 14.4226 0.947618 15.8066 1.47362 17.1036Z" fill="#0052B4"/>
</svg>
