<svg width="25" height="25" viewBox="0 0 25 25" fill="none" xmlns="http://www.w3.org/2000/svg">
<path d="M18.6834 22.1766C24.2634 18.6006 25.8874 11.1786 22.3114 5.59863C18.7354 0.0186262 11.3134 -1.60536 5.7334 1.97064C0.153403 5.54664 -1.4706 12.9696 2.1054 18.5486C5.6814 24.1286 13.1044 25.7526 18.6834 22.1766Z" fill="#D80027"/>
<path d="M15.6995 3.01953L2.52148 11.4655L8.7155 21.1295L21.8935 12.6835L15.6995 3.01953Z" fill="#6DA544"/>
<path d="M15.6649 13.8876C14.0879 14.8986 11.9909 14.4396 10.9799 12.8626C9.96888 11.2856 10.4279 9.1876 12.0049 8.1766C12.4969 7.8616 13.0389 7.68957 13.5829 7.64957C12.5529 7.43657 11.4409 7.60959 10.4849 8.22159C8.54388 9.46559 7.97889 12.0476 9.22289 13.9886C10.4669 15.9296 13.0479 16.4936 14.9889 15.2506C15.9459 14.6376 16.5669 13.6996 16.8029 12.6736C16.5399 13.1516 16.1569 13.5726 15.6649 13.8876Z" fill="#F0F0F0"/>
</svg>
