<svg width="25" height="25" viewBox="0 0 25 25" fill="none" xmlns="http://www.w3.org/2000/svg">
<path d="M18.6615 22.6356C24.2415 19.0656 25.8815 11.6456 22.3115 6.06156C18.7415 0.477557 11.3214 -1.15545 5.73141 2.41455C0.151412 5.98455 -1.4786 13.4056 2.0914 18.9886C5.6614 24.5726 13.0815 26.2056 18.6615 22.6356Z" fill="#F0F0F0"/>
<path d="M5.73099 2.41436C1.39099 5.19336 -0.569016 10.3064 0.470984 15.0694L19.4311 2.94637C15.5411 0.00937104 10.081 -0.364642 5.73099 2.41436Z" fill="#A2001D"/>
<path d="M18.661 22.6365C23.011 19.8565 24.961 14.7445 23.931 9.98047L4.96094 22.1035C8.85094 25.0405 14.311 25.4155 18.661 22.6365Z" fill="#0052B4"/>
</svg>
