<svg width="25" height="25" viewBox="0 0 25 25" fill="none" xmlns="http://www.w3.org/2000/svg">
<path d="M13.9099 24.1552C20.4699 23.2162 25.0298 17.1362 24.0898 10.5762C23.1498 4.0152 17.0699 -0.541775 10.5099 0.398225C3.94985 1.33723 -0.610201 7.4172 0.329799 13.9772C1.2698 20.5382 7.34988 25.0952 13.9099 24.1552Z" fill="#F0F0F0"/>
<path d="M0.329305 13.9775C1.0593 19.0845 4.9094 22.9775 9.6794 24.0085L6.48934 1.72852C2.19934 4.05452 -0.400695 8.86951 0.329305 13.9775Z" fill="#6DA544"/>
<path d="M24.09 10.5759C23.36 5.4679 19.51 1.57592 14.75 0.544922L17.9399 22.8249C22.2199 20.4989 24.82 15.6829 24.09 10.5759Z" fill="#6DA544"/>
</svg>
