<svg width="25" height="25" viewBox="0 0 25 25" fill="none" xmlns="http://www.w3.org/2000/svg">
<path d="M18.9495 22.7959C24.6495 19.4206 26.5396 12.0608 23.1596 6.35729C19.7896 0.653741 12.4295 -1.23374 6.71954 2.14148C1.01954 5.51671 -0.87042 12.8765 2.50958 18.58C5.87958 24.2836 13.2395 26.1711 18.9495 22.7959Z" fill="#F0F0F0"/>
<path d="M24.6493 10.3287C24.3993 8.96416 23.9093 7.61966 23.1593 6.35646C22.4193 5.09323 21.4693 4.01763 20.3893 3.14453L1.0293 14.6071C1.2693 15.9715 1.75928 17.3161 2.50928 18.5793C3.25928 19.8425 4.1993 20.9181 5.2793 21.7912L15.4893 16.958L24.6493 10.3287Z" fill="#0052B4"/>
<path d="M18.9492 22.7945C23.3892 20.1668 25.5193 15.1242 24.6493 10.3281L5.2793 21.7906C9.0593 24.8598 14.5092 25.4222 18.9492 22.7945Z" fill="#D80027"/>
</svg>
