<svg width="25" height="25" viewBox="0 0 25 25" fill="none" xmlns="http://www.w3.org/2000/svg">
<path d="M6.70756 23.0799C12.4616 26.3669 19.7916 24.3679 23.0806 18.6132C26.3706 12.8588 24.3706 5.5286 18.6136 2.2409C12.8586 -1.0468 5.52858 0.952902 2.24058 6.7074C-1.04642 12.4618 0.952559 19.7919 6.70756 23.0799Z" fill="#F0F0F0"/>
<path d="M1.08223 15.8193C-0.66177 9.42549 3.10724 2.82828 9.50124 1.08398L11.3002 11.8846L1.08223 15.8193Z" fill="black"/>
<path d="M11.3012 11.8843L6.58718 2.30859C6.11318 2.58629 5.65617 2.89829 5.22017 3.24229L6.88222 9.3593L0.768209 11.0347C0.693209 11.5844 0.657223 12.1359 0.658223 12.6853L11.3012 11.8843Z" fill="#FFDA44"/>
<path d="M23.7702 17.2024L12.0772 10.5233L9.50116 1.08203C8.48416 1.35963 7.50316 1.77043 6.58716 2.30683L8.80121 10.4543L0.658203 12.6834C0.661203 13.7453 0.805191 14.7993 1.08319 15.8169L10.5242 13.2413L22.2102 19.9205C22.5302 19.5087 22.8202 19.0724 23.0802 18.6118C23.3402 18.1512 23.5702 17.6804 23.7702 17.2024Z" fill="#6DA544"/>
<path d="M1.59375 17.2998C2.57975 19.6542 4.31973 21.7146 6.70673 23.0786C11.5207 25.8286 17.4378 24.8776 21.1678 21.1246L10.3107 14.9219L1.59375 17.2998Z" fill="#0052B4"/>
<path d="M24.2701 15.6893C25.6101 10.57 23.43 4.99061 18.613 2.24021C16.226 0.876211 13.5671 0.423113 11.0391 0.769813L13.4171 9.48641L24.2701 15.6893Z" fill="#D80027"/>
</svg>
