<svg width="25" height="25" viewBox="0 0 25 25" fill="none" xmlns="http://www.w3.org/2000/svg">
<path d="M19.1663 22.7426C24.8343 19.3086 26.6463 11.9306 23.2133 6.26164C19.7793 0.592638 12.4013 -1.21936 6.73234 2.21464C1.06334 5.64764 -0.748656 13.0266 2.68534 18.6956C6.11834 24.3636 13.4973 26.1756 19.1663 22.7426Z" fill="#F0F0F0"/>
<path d="M1.02088 11.1602C0.84988 12.6982 0.974884 14.2751 1.41588 15.8031L6.75588 12.5692L1.02088 11.1602Z" fill="#0052B4"/>
<path d="M21.2374 3.79688C20.0884 2.69788 18.7474 1.85688 17.3064 1.29688L15.8984 7.03088L21.2374 3.79688Z" fill="#0052B4"/>
<path d="M4.66016 21.1578C5.81016 22.2568 7.15016 23.0978 8.59116 23.6588L10.0002 17.9238L4.66016 21.1578Z" fill="#0052B4"/>
<path d="M14.265 0.550177C12.728 0.379177 11.151 0.504181 9.62305 0.945181L12.857 6.28518L14.265 0.550177Z" fill="#0052B4"/>
<path d="M11.6309 24.4039C13.1679 24.5749 14.7449 24.4509 16.2729 24.0089L13.0388 18.6699L11.6309 24.4039Z" fill="#0052B4"/>
<path d="M4.26859 4.18945C3.16959 5.33945 2.32858 6.67946 1.76758 8.12146L7.50258 9.52946L4.26859 4.18945Z" fill="#0052B4"/>
<path d="M21.6285 20.7648C22.7275 19.6158 23.5675 18.2758 24.1285 16.8338L18.3945 15.4258L21.6285 20.7648Z" fill="#0052B4"/>
<path d="M19.1426 12.3883L24.8766 13.7963C25.0476 12.2593 24.9236 10.6813 24.4816 9.1543L19.1426 12.3883Z" fill="#0052B4"/>
<path d="M22.3149 4.97523L13.4769 10.3282L8.12294 1.49023C7.64994 1.69823 7.18593 1.93923 6.73193 2.21423C6.27793 2.48923 5.84894 2.78924 5.44594 3.11224L10.7989 11.9502L1.96094 17.3032C2.16894 17.7762 2.40994 18.2412 2.68494 18.6952C2.95894 19.1492 3.25994 19.5772 3.58194 19.9812L12.4209 14.6282L17.7739 23.4662C18.2469 23.2582 18.7119 23.0172 19.1659 22.7422C19.6189 22.4672 20.0479 22.1672 20.4519 21.8442L15.0979 13.0062L23.9369 7.65224C23.7279 7.18024 23.4879 6.71523 23.2129 6.26123C22.9379 5.80723 22.6369 5.37923 22.3149 4.97523Z" fill="#D80027"/>
<path d="M17.248 13.5355L24.6021 15.3415C24.6861 15.0035 24.7531 14.6615 24.8071 14.3175L18.51 12.7715L17.248 13.5355Z" fill="#D80027"/>
<path d="M11.8939 16.7793L10.0879 24.1333C10.4259 24.2163 10.7679 24.2843 11.1119 24.3373L12.6579 18.0413L11.8939 16.7793Z" fill="#D80027"/>
<path d="M8.6498 11.4232L1.29579 9.61719C1.21279 9.95519 1.1448 10.2972 1.0918 10.6412L7.38779 12.1882L8.6498 11.4232Z" fill="#D80027"/>
<path d="M14.0052 8.18008L15.8112 0.825089C15.4732 0.742089 15.1312 0.674094 14.7872 0.621094L13.2402 6.9171L14.0052 8.18008Z" fill="#D80027"/>
</svg>
