<svg width="25" height="25" viewBox="0 0 25 25" fill="none" xmlns="http://www.w3.org/2000/svg">
<path d="M9.98825 24.6088C16.4047 26.2678 22.9509 22.4108 24.6094 15.9938C26.2679 9.57779 22.4107 3.03182 15.9942 1.37282C9.57755 -0.285178 3.03148 3.57181 1.373 9.98781C-0.28548 16.4048 3.57169 22.9508 9.98825 24.6088Z" fill="#F0F0F0"/>
<path d="M12.4844 12.8611L24.6077 15.9941C24.8787 14.9461 25.0015 13.8941 24.9908 12.8601L13.2678 9.83008L12.4844 12.8611Z" fill="#D80027"/>
<path d="M14.0527 6.79755L24.4707 9.49054C24.0595 8.14654 23.4153 6.88554 22.5733 5.76654L14.8361 3.76758L14.0527 6.79755Z" fill="#D80027"/>
<path d="M9.98757 24.6099C12.7219 25.3169 15.4793 25.0209 17.8725 23.9529L3.4082 20.2148C4.98427 22.3078 7.25317 23.9029 9.98757 24.6099Z" fill="#D80027"/>
<path d="M1.5099 16.4891L21.3358 21.6141C22.1476 20.8301 22.8536 19.9261 23.4242 18.9201L0.988281 13.1211C1.00016 14.2771 1.17974 15.4101 1.5099 16.4891Z" fill="#D80027"/>
<path d="M9.2888 1.57559L10.3476 1.8486L9.1778 2.3096L9.2548 3.5646L8.4549 2.59457L7.2852 3.05557L7.8687 2.13955C6.8149 2.63755 5.8362 3.28757 4.9662 4.06857L5.3054 4.1556L4.5608 4.44955C4.421 4.58755 4.2846 4.72856 4.1514 4.87356L4.2126 5.87155L3.759 5.32156C3.54414 5.57956 3.33943 5.84758 3.14593 6.12558L3.21335 7.22555L4.4306 7.54055L3.26088 8.00155L3.33783 9.25656L2.53798 8.28659L1.83731 8.56259C1.65559 9.02159 1.49987 9.49757 1.37305 9.98757L12.9912 12.9906C14.6497 6.57457 14.8452 5.81758 15.9942 1.37258C13.6991 0.779585 11.3875 0.892588 9.2888 1.57559ZM7.5052 10.3336L6.7054 9.36355L5.5357 9.82455L6.2111 8.76358L5.4112 7.79361L6.6285 8.10855L7.3038 7.04757L7.3807 8.30258L8.598 8.61758L7.4283 9.07858L7.5052 10.3336ZM8.303 5.69455L8.38 6.94857L7.5801 5.9786L6.4104 6.4396L7.0859 5.3796L6.286 4.40957L7.5032 4.72457L8.1786 3.6636L8.2555 4.91861L9.4728 5.23355L8.303 5.69455ZM11.6726 11.4105L10.8728 10.4406L9.7031 10.9016L10.3785 9.8406L9.5786 8.87057L10.7959 9.18557L11.4712 8.12558L11.5481 9.38058L12.7654 9.69454L11.5957 10.1556L11.6726 11.4105ZM12.4704 6.77157L12.5474 8.02658L11.7475 7.05661L10.5778 7.5176L11.2532 6.45657L10.4533 5.4866L11.6706 5.8016L12.346 4.74057L12.4229 5.99557L13.6402 6.31057L12.4704 6.77157ZM13.3452 3.38656L13.4222 4.64157L12.6223 3.6716L11.4526 4.13259L12.128 3.0726L11.3281 2.10257L12.5454 2.41659L13.2208 1.35659L13.2977 2.6116L14.515 2.92556L13.3452 3.38656Z" fill="#0052B4"/>
</svg>
